BabelStoneHanExtra.ttf.ufo
<glyph name="exclam" format="2">
  <advance width="512"/>
  <unicode hex="0021"/>
  <outline>
    <contour>
      <point x="321" y="636"/>
      <point x="309" y="558" type="qcurve"/>
      <point x="292" y="468"/>
      <point x="288" y="266" type="qcurve"/>
      <point x="261" y="266" type="line"/>
      <point x="255" y="468"/>
      <point x="242" y="558" type="qcurve"/>
      <point x="229" y="635"/>
      <point x="230" y="656" type="qcurve"/>
      <point x="231" y="674"/>
      <point x="244" y="687" type="qcurve"/>
      <point x="259" y="700"/>
      <point x="278" y="701" type="qcurve"/>
      <point x="298" y="701"/>
      <point x="310" y="688" type="qcurve"/>
      <point x="321" y="675"/>
      <point x="322" y="656" type="qcurve"/>
    </contour>
    <contour>
      <point x="294" y="153"/>
      <point x="304" y="141" type="qcurve"/>
      <point x="316" y="129"/>
      <point x="316" y="111" type="qcurve"/>
      <point x="314" y="94"/>
      <point x="304" y="82" type="qcurve"/>
      <point x="291" y="71"/>
      <point x="275" y="70" type="qcurve"/>
      <point x="256" y="72"/>
      <point x="246" y="82" type="qcurve"/>
      <point x="233" y="95"/>
      <point x="234" y="111" type="qcurve"/>
      <point x="234" y="131"/>
      <point x="247" y="143" type="qcurve"/>
      <point x="259" y="152"/>
      <point x="275" y="152" type="qcurve"/>
    </contour>
  </outline>
</glyph>
<glyph name="quotedbl" format="2">
  <advance width="512"/>
  <unicode hex="0022"/>
  <outline>
    <contour>
      <point x="164" y="687"/>
      <point x="174" y="697" type="qcurve"/>
      <point x="185" y="708"/>
      <point x="198" y="708" type="qcurve"/>
      <point x="215" y="707"/>
      <point x="224" y="694" type="qcurve"/>
      <point x="232" y="681"/>
      <point x="232" y="668" type="qcurve"/>
      <point x="231" y="650"/>
      <point x="222" y="604" type="qcurve"/>
      <point x="213" y="553"/>
      <point x="213" y="507" type="qcurve"/>
      <point x="180" y="507" type="line"/>
      <point x="182" y="550"/>
      <point x="172" y="604" type="qcurve"/>
      <point x="163" y="653"/>
      <point x="164" y="666" type="qcurve"/>
    </contour>
    <contour>
      <point x="300" y="687"/>
      <point x="310" y="697" type="qcurve"/>
      <point x="321" y="708"/>
      <point x="334" y="708" type="qcurve"/>
      <point x="351" y="707"/>
      <point x="360" y="694" type="qcurve"/>
      <point x="368" y="681"/>
      <point x="368" y="668" type="qcurve"/>
      <point x="367" y="650"/>
      <point x="358" y="604" type="qcurve"/>
      <point x="349" y="553"/>
      <point x="349" y="507" type="qcurve"/>
      <point x="316" y="507" type="line"/>
      <point x="318" y="550"/>
      <point x="308" y="604" type="qcurve"/>
      <point x="299" y="653"/>
      <point x="300" y="666" type="qcurve"/>
    </contour>
  </outline>
</glyph>
<glyph name="numbersign" format="2">
  <advance width="512"/>
  <unicode hex="0023"/>
  <outline>
    <contour>
      <point x="113" y="321" type="line"/>
      <point x="59" y="54" type="line"/>
      <point x="41" y="54" type="line"/>
      <point x="95" y="321" type="line"/>
      <point x="14" y="321" type="line"/>
      <point x="14" y="373" type="line"/>
      <point x="106" y="373" type="line"/>
      <point x="148" y="573" type="line"/>
      <point x="26" y="573" type="line"/>
      <point x="26" y="625" type="line"/>
      <point x="159" y="625" type="line"/>
      <point x="205" y="844" type="line"/>
      <point x="223" y="844" type="line"/>
      <point x="177" y="625" type="line"/>
      <point x="408" y="625" type="line"/>
      <point x="454" y="844" type="line"/>
      <point x="472" y="844" type="line"/>
      <point x="426" y="625" type="line"/>
      <point x="498" y="625" type="line"/>
      <point x="498" y="573" type="line"/>
      <point x="415" y="573" type="line"/>
      <point x="373" y="373" type="line"/>
      <point x="486" y="373" type="line"/>
      <point x="486" y="321" type="line"/>
      <point x="362" y="321" type="line"/>
      <point x="308" y="54" type="line"/>
      <point x="290" y="54" type="line"/>
      <point x="344" y="321" type="line"/>
    </contour>
    <contour>
      <point x="166" y="573" type="line"/>
      <point x="124" y="373" type="line"/>
      <point x="355" y="373" type="line"/>
      <point x="397" y="573" type="line"/>
    </contour>
  </outline>
</glyph>
<glyph name="plus" format="2">
  <advance width="512"/>
  <unicode hex="002B"/>
  <outline>
    <contour>
      <point x="278" y="416" type="line"/>
      <point x="476" y="416" type="line"/>
      <point x="476" y="372" type="line"/>
      <point x="278" y="372" type="line"/>
      <point x="278" y="174" type="line"/>
      <point x="234" y="174" type="line"/>
      <point x="234" y="372" type="line"/>
      <point x="36" y="372" type="line"/>
      <point x="36" y="416" type="line"/>
      <point x="234" y="416" type="line"/>
      <point x="234" y="614" type="line"/>
      <point x="278" y="614" type="line"/>
    </contour>
  </outline>
</glyph>
<glyph name="comma" format="2">
  <advance width="512"/>
  <unicode hex="002C"/>
  <outline>
    <contour>
      <point x="286" y="125"/>
      <point x="304" y="104" type="qcurve"/>
      <point x="321" y="85"/>
      <point x="321" y="40" type="qcurve"/>
      <point x="319" y="15"/>
      <point x="306" y="-6" type="qcurve"/>
      <point x="288" y="-32"/>
      <point x="249" y="-56" type="qcurve"/>
      <point x="207" y="-82"/>
      <point x="162" y="-98" type="qcurve"/>
      <point x="151" y="-75" type="line"/>
      <point x="188" y="-60"/>
      <point x="225" y="-41" type="qcurve"/>
      <point x="256" y="-22"/>
      <point x="257" y="-6" type="qcurve"/>
      <point x="259" y="9"/>
      <point x="249" y="9" type="qcurve"/>
      <point x="227" y="9"/>
      <point x="212" y="24" type="qcurve"/>
      <point x="197" y="40"/>
      <point x="197" y="62" type="qcurve"/>
      <point x="197" y="91"/>
      <point x="213" y="107" type="qcurve"/>
      <point x="231" y="125"/>
      <point x="256" y="125" type="qcurve"/>
    </contour>
  </outline>
</glyph>
<glyph name="hyphen" format="2">
  <advance width="512"/>
  <unicode hex="002D"/>
  <outline>
    <contour>
      <point x="476" y="416" type="line"/>
      <point x="476" y="372" type="line"/>
      <point x="36" y="372" type="line"/>
      <point x="36" y="416" type="line"/>
    </contour>
  </outline>
</glyph>
<glyph name="one" format="2">
  <advance width="512"/>
  <unicode hex="0031"/>
  <outline>
    <contour>
      <point x="289" y="93"/>
      <point x="403" y="93" type="qcurve"/>
      <point x="403" y="76" type="line"/>
      <point x="124" y="76" type="line"/>
      <point x="124" y="93" type="line"/>
      <point x="240" y="93"/>
      <point x="240" y="159" type="qcurve"/>
      <point x="240" y="581" type="line"/>
      <point x="239" y="634"/>
      <point x="109" y="634" type="qcurve"/>
      <point x="109" y="651" type="line"/>
      <point x="278" y="694" type="line"/>
      <point x="289" y="694" type="line"/>
      <point x="289" y="159" type="line"/>
    </contour>
  </outline>
</glyph>
<glyph name="eight" format="2">
  <advance width="512"/>
  <unicode hex="0038"/>
  <outline>
    <contour>
      <point x="166" y="67"/>
      <point x="100" y="116" type="qcurve"/>
      <point x="41" y="161"/>
      <point x="41" y="228" type="qcurve"/>
      <point x="41" y="267"/>
      <point x="75" y="313" type="qcurve"/>
      <point x="101" y="351"/>
      <point x="195" y="394" type="qcurve"/>
      <point x="133" y="427"/>
      <point x="108" y="458" type="qcurve"/>
      <point x="69" y="502"/>
      <point x="69" y="548" type="qcurve"/>
      <point x="69" y="616"/>
      <point x="126" y="662" type="qcurve"/>
      <point x="178" y="704"/>
      <point x="256" y="704" type="qcurve"/>
      <point x="324" y="704"/>
      <point x="372" y="667" type="qcurve"/>
      <point x="436" y="626"/>
      <point x="436" y="560" type="qcurve"/>
      <point x="435" y="525"/>
      <point x="410" y="492" type="qcurve"/>
      <point x="384" y="458"/>
      <point x="290" y="410" type="qcurve"/>
      <point x="402" y="362"/>
      <point x="438" y="317" type="qcurve"/>
      <point x="471" y="278"/>
      <point x="471" y="238" type="qcurve"/>
      <point x="471" y="169"/>
      <point x="417" y="123" type="qcurve"/>
      <point x="354" y="66"/>
      <point x="258" y="66" type="qcurve"/>
    </contour>
    <contour>
      <point x="367" y="319"/>
      <point x="267" y="361" type="qcurve"/>
      <point x="245" y="372"/>
      <point x="226" y="379" type="qcurve"/>
      <point x="137" y="335"/>
      <point x="119" y="304" type="qcurve"/>
      <point x="93" y="265"/>
      <point x="93" y="228" type="qcurve"/>
      <point x="93" y="171"/>
      <point x="136" y="137" type="qcurve"/>
      <point x="188" y="94"/>
      <point x="258" y="94" type="qcurve"/>
      <point x="320" y="94"/>
      <point x="375" y="130" type="qcurve"/>
      <point x="424" y="165"/>
      <point x="424" y="225" type="qcurve"/>
      <point x="424" y="255"/>
      <point x="396" y="286" type="qcurve"/>
    </contour>
    <contour>
      <point x="168" y="462"/>
      <point x="261" y="422" type="qcurve"/>
      <point x="337" y="457"/>
      <point x="365" y="493" type="qcurve"/>
      <point x="393" y="530"/>
      <point x="393" y="570" type="qcurve"/>
      <point x="392" y="614"/>
      <point x="352" y="647" type="qcurve"/>
      <point x="311" y="676"/>
      <point x="256" y="676" type="qcurve"/>
      <point x="195" y="676"/>
      <point x="152" y="643" type="qcurve"/>
      <point x="112" y="610"/>
      <point x="112" y="565" type="qcurve"/>
      <point x="112" y="528"/>
      <point x="140" y="495" type="qcurve"/>
    </contour>
  </outline>
</glyph>
<glyph name="nine" format="2">
  <advance width="512"/>
  <unicode hex="0039"/>
  <outline>
    <contour>
      <point x="329" y="66"/>
      <point x="215" y="66" type="qcurve"/>
      <point x="151" y="67"/>
      <point x="105" y="98" type="qcurve"/>
      <point x="59" y="128"/>
      <point x="59" y="161" type="qcurve"/>
      <point x="58" y="179"/>
      <point x="68" y="188" type="qcurve"/>
      <point x="78" y="197"/>
      <point x="90" y="198" type="qcurve"/>
      <point x="106" y="198"/>
      <point x="116" y="185" type="qcurve"/>
      <point x="124" y="174"/>
      <point x="125" y="150" type="qcurve"/>
      <point x="125" y="118"/>
      <point x="150" y="106" type="qcurve"/>
      <point x="179" y="91"/>
      <point x="215" y="91" type="qcurve"/>
      <point x="286" y="91"/>
      <point x="346" y="161" type="qcurve"/>
      <point x="409" y="240"/>
      <point x="409" y="397" type="qcurve"/>
      <point x="337" y="292"/>
      <point x="237" y="292" type="qcurve"/>
      <point x="151" y="293"/>
      <point x="97" y="348" type="qcurve"/>
      <point x="45" y="407"/>
      <point x="45" y="495" type="qcurve"/>
      <point x="45" y="581"/>
      <point x="108" y="648" type="qcurve"/>
      <point x="165" y="704"/>
      <point x="253" y="704" type="qcurve"/>
      <point x="351" y="704"/>
      <point x="408" y="626" type="qcurve"/>
      <point x="462" y="553"/>
      <point x="462" y="399" type="qcurve"/>
      <point x="461" y="253"/>
      <point x="391" y="154" type="qcurve"/>
    </contour>
    <contour>
      <point x="97" y="579"/>
      <point x="97" y="495" type="qcurve"/>
      <point x="97" y="412"/>
      <point x="142" y="372" type="qcurve"/>
      <point x="185" y="331"/>
      <point x="237" y="331" type="qcurve"/>
      <point x="291" y="331"/>
      <point x="342" y="367" type="qcurve"/>
      <point x="375" y="393"/>
      <point x="409" y="438" type="qcurve"/>
      <point x="403" y="571"/>
      <point x="369" y="617" type="qcurve"/>
      <point x="322" y="676"/>
      <point x="253" y="676" type="qcurve"/>
      <point x="183" y="676"/>
      <point x="140" y="628" type="qcurve"/>
    </contour>
  </outline>
</glyph>
<glyph name="semicolon" format="2">
  <advance width="512"/>
  <unicode hex="003B"/>
  <outline>
    <contour>
      <point x="283" y="400"/>
      <point x="302" y="381" type="qcurve"/>
      <point x="318" y="365"/>
      <point x="318" y="337" type="qcurve"/>
      <point x="318" y="311"/>
      <point x="299" y="293" type="qcurve"/>
      <point x="283" y="277"/>
      <point x="256" y="277" type="qcurve"/>
      <point x="229" y="277"/>
      <point x="211" y="295" type="qcurve"/>
      <point x="194" y="312"/>
      <point x="194" y="337" type="qcurve"/>
      <point x="195" y="366"/>
      <point x="211" y="382" type="qcurve"/>
      <point x="231" y="400"/>
      <point x="256" y="400" type="qcurve"/>
    </contour>
    <contour>
      <point x="286" y="125"/>
      <point x="304" y="104" type="qcurve"/>
      <point x="321" y="85"/>
      <point x="321" y="40" type="qcurve"/>
      <point x="319" y="15"/>
      <point x="306" y="-6" type="qcurve"/>
      <point x="288" y="-32"/>
      <point x="249" y="-56" type="qcurve"/>
      <point x="207" y="-82"/>
      <point x="162" y="-98" type="qcurve"/>
      <point x="151" y="-75" type="line"/>
      <point x="188" y="-60"/>
      <point x="225" y="-41" type="qcurve"/>
      <point x="256" y="-22"/>
      <point x="257" y="-6" type="qcurve"/>
      <point x="259" y="9"/>
      <point x="249" y="9" type="qcurve"/>
      <point x="227" y="9"/>
      <point x="212" y="24" type="qcurve"/>
      <point x="197" y="40"/>
      <point x="197" y="62" type="qcurve"/>
      <point x="197" y="91"/>
      <point x="213" y="107" type="qcurve"/>
      <point x="231" y="125"/>
      <point x="256" y="125" type="qcurve"/>
    </contour>
  </outline>
</glyph>
<glyph name="at" format="2">
  <advance width="512"/>
  <unicode hex="0040"/>
  <outline>
    <contour>
      <point x="362" y="201"/>
      <point x="381" y="201" type="qcurve"/>
      <point x="406" y="201"/>
      <point x="431" y="241" type="qcurve"/>
      <point x="461" y="291"/>
      <point x="461" y="358" type="qcurve"/>
      <point x="461" y="460"/>
      <point x="406" y="511" type="qcurve"/>
      <point x="354" y="557"/>
      <point x="279" y="557" type="qcurve"/>
      <point x="182" y="556"/>
      <point x="122" y="501" type="qcurve"/>
      <point x="54" y="437"/>
      <point x="54" y="334" type="qcurve"/>
      <point x="55" y="217"/>
      <point x="113" y="156" type="qcurve"/>
      <point x="171" y="94"/>
      <point x="271" y="94" type="qcurve"/>
      <point x="326" y="94"/>
      <point x="417" y="142" type="qcurve"/>
      <point x="426" y="127" type="line"/>
      <point x="329" y="66"/>
      <point x="250" y="66" type="qcurve"/>
      <point x="144" y="66"/>
      <point x="75" y="138" type="qcurve"/>
      <point x="2" y="213"/>
      <point x="2" y="334" type="qcurve"/>
      <point x="2" y="448"/>
      <point x="75" y="515" type="qcurve"/>
      <point x="148" y="590"/>
      <point x="266" y="590" type="qcurve"/>
      <point x="356" y="590"/>
      <point x="423" y="527" type="qcurve"/>
      <point x="487" y="467"/>
      <point x="487" y="358" type="qcurve"/>
      <point x="486" y="257"/>
      <point x="443" y="203" type="qcurve"/>
      <point x="404" y="150"/>
      <point x="361" y="150" type="qcurve"/>
      <point x="335" y="150"/>
      <point x="322" y="165" type="qcurve"/>
      <point x="317" y="170"/>
      <point x="314" y="177" type="qcurve"/>
      <point x="278" y="148"/>
      <point x="247" y="148" type="qcurve"/>
      <point x="201" y="149"/>
      <point x="170" y="189" type="qcurve"/>
      <point x="134" y="234"/>
      <point x="134" y="316" type="qcurve"/>
      <point x="134" y="403"/>
      <point x="173" y="460" type="qcurve"/>
      <point x="209" y="512"/>
      <point x="254" y="512" type="qcurve"/>
      <point x="273" y="511"/>
      <point x="309" y="489" type="qcurve"/>
      <point x="309" y="504" type="line"/>
      <point x="361" y="504" type="line"/>
      <point x="361" y="209" type="line"/>
    </contour>
    <contour>
      <point x="186" y="398"/>
      <point x="186" y="316" type="qcurve"/>
      <point x="187" y="233"/>
      <point x="209" y="203" type="qcurve"/>
      <point x="229" y="176"/>
      <point x="257" y="176" type="qcurve"/>
      <point x="273" y="176"/>
      <point x="309" y="207" type="qcurve"/>
      <point x="310" y="208"/>
      <point x="309" y="209" type="qcurve"/>
      <point x="309" y="458" type="line"/>
      <point x="278" y="479"/>
      <point x="268" y="479" type="qcurve"/>
      <point x="237" y="479"/>
      <point x="215" y="446" type="qcurve"/>
    </contour>
  </outline>
</glyph>
<glyph name="D" format="2">
  <advance width="512"/>
  <unicode hex="0044"/>
  <outline>
    <contour>
      <point x="89" y="677"/>
      <point x="25" y="677" type="qcurve"/>
      <point x="25" y="694" type="line"/>
      <point x="253" y="694" type="line"/>
      <point x="327" y="694"/>
      <point x="400" y="621" type="qcurve"/>
      <point x="487" y="538"/>
      <point x="487" y="382" type="qcurve"/>
      <point x="486" y="223"/>
      <point x="413" y="145" type="qcurve"/>
      <point x="345" y="76"/>
      <point x="218" y="76" type="qcurve"/>
      <point x="25" y="76" type="line"/>
      <point x="25" y="93" type="line"/>
      <point x="90" y="93"/>
      <point x="90" y="160" type="qcurve"/>
      <point x="90" y="613" type="line"/>
    </contour>
    <contour>
      <point x="142" y="160" type="line"/>
      <point x="142" y="99"/>
      <point x="218" y="99" type="qcurve"/>
      <point x="298" y="99"/>
      <point x="370" y="168" type="qcurve"/>
      <point x="435" y="234"/>
      <point x="435" y="382" type="qcurve"/>
      <point x="435" y="532"/>
      <point x="368" y="607" type="qcurve"/>
      <point x="308" y="672"/>
      <point x="220" y="672" type="qcurve"/>
      <point x="142" y="671"/>
      <point x="142" y="613" type="qcurve"/>
    </contour>
  </outline>
</glyph>
<glyph name="E" format="2">
  <advance width="512"/>
  <unicode hex="0045"/>
  <outline>
    <contour>
      <point x="97" y="677"/>
      <point x="33" y="677" type="qcurve"/>
      <point x="33" y="694" type="line"/>
      <point x="480" y="694" type="line"/>
      <point x="480" y="539" type="line"/>
      <point x="467" y="539" type="line"/>
      <point x="464" y="623"/>
      <point x="421" y="648" type="qcurve"/>
      <point x="381" y="672"/>
      <point x="257" y="672" type="qcurve"/>
      <point x="150" y="672"/>
      <point x="150" y="611" type="qcurve"/>
      <point x="150" y="400" type="line"/>
      <point x="283" y="400" type="line"/>
      <point x="367" y="400"/>
      <point x="367" y="482" type="qcurve"/>
      <point x="384" y="482" type="line"/>
      <point x="384" y="286" type="line"/>
      <point x="367" y="286" type="line"/>
      <point x="367" y="377"/>
      <point x="283" y="377" type="qcurve"/>
      <point x="150" y="377" type="line"/>
      <point x="150" y="156" type="line"/>
      <point x="151" y="99"/>
      <point x="257" y="99" type="qcurve"/>
      <point x="337" y="99"/>
      <point x="391" y="124" type="qcurve"/>
      <point x="432" y="147"/>
      <point x="466" y="231" type="qcurve"/>
      <point x="479" y="227" type="line"/>
      <point x="441" y="76" type="line"/>
      <point x="33" y="76" type="line"/>
      <point x="33" y="93" type="line"/>
      <point x="98" y="93"/>
      <point x="98" y="156" type="qcurve"/>
      <point x="98" y="611" type="line"/>
    </contour>
  </outline>
</glyph>
<glyph name="G" format="2">
  <advance width="512"/>
  <unicode hex="0047"/>
  <outline>
    <contour>
      <point x="24" y="505"/>
      <point x="93" y="596" type="qcurve"/>
      <point x="177" y="704"/>
      <point x="292" y="704" type="qcurve"/>
      <point x="361" y="704"/>
      <point x="449" y="640" type="qcurve"/>
      <point x="443" y="524" type="line"/>
      <point x="428" y="524" type="line"/>
      <point x="411" y="606"/>
      <point x="377" y="640" type="qcurve"/>
      <point x="337" y="682"/>
      <point x="292" y="682" type="qcurve"/>
      <point x="225" y="682"/>
      <point x="156" y="601" type="qcurve"/>
      <point x="76" y="509"/>
      <point x="76" y="383" type="qcurve"/>
      <point x="76" y="249"/>
      <point x="155" y="158" type="qcurve"/>
      <point x="218" y="89"/>
      <point x="312" y="89" type="qcurve"/>
      <point x="336" y="89"/>
      <point x="360" y="98" type="qcurve"/>
      <point x="360" y="288" type="line"/>
      <point x="360" y="323"/>
      <point x="341" y="336" type="qcurve"/>
      <point x="322" y="352"/>
      <point x="285" y="352" type="qcurve"/>
      <point x="285" y="369" type="line"/>
      <point x="489" y="369" type="line"/>
      <point x="489" y="352" type="line"/>
      <point x="446" y="351"/>
      <point x="428" y="335" type="qcurve"/>
      <point x="412" y="321"/>
      <point x="412" y="288" type="qcurve"/>
      <point x="412" y="131" type="line"/>
      <point x="440" y="159" type="line"/>
      <point x="456" y="141" type="line"/>
      <point x="391" y="66"/>
      <point x="312" y="66" type="qcurve"/>
      <point x="179" y="67"/>
      <point x="100" y="155" type="qcurve"/>
      <point x="24" y="247"/>
      <point x="24" y="383" type="qcurve"/>
    </contour>
  </outline>
</glyph>
<glyph name="H" format="2">
  <advance width="512"/>
  <unicode hex="0048"/>
  <outline>
    <contour>
      <point x="418" y="128"/>
      <point x="434" y="110" type="qcurve"/>
      <point x="453" y="93"/>
      <point x="493" y="93" type="qcurve"/>
      <point x="493" y="76" type="line"/>
      <point x="293" y="76" type="line"/>
      <point x="293" y="93" type="line"/>
      <point x="330" y="94"/>
      <point x="351" y="110" type="qcurve"/>
      <point x="370" y="128"/>
      <point x="370" y="152" type="qcurve"/>
      <point x="370" y="379" type="line"/>
      <point x="141" y="379" type="line"/>
      <point x="141" y="152" type="line"/>
      <point x="141" y="131"/>
      <point x="159" y="110" type="qcurve"/>
      <point x="175" y="93"/>
      <point x="217" y="93" type="qcurve"/>
      <point x="217" y="76" type="line"/>
      <point x="20" y="76" type="line"/>
      <point x="20" y="93" type="line"/>
      <point x="66" y="93"/>
      <point x="81" y="112" type="qcurve"/>
      <point x="94" y="131"/>
      <point x="94" y="152" type="qcurve"/>
      <point x="94" y="608" type="line"/>
      <point x="94" y="647"/>
      <point x="76" y="662" type="qcurve"/>
      <point x="57" y="677"/>
      <point x="20" y="677" type="qcurve"/>
      <point x="20" y="694" type="line"/>
      <point x="217" y="694" type="line"/>
      <point x="217" y="677" type="line"/>
      <point x="168" y="677"/>
      <point x="153" y="661" type="qcurve"/>
      <point x="141" y="648"/>
      <point x="141" y="608" type="qcurve"/>
      <point x="141" y="401" type="line"/>
      <point x="370" y="401" type="line"/>
      <point x="370" y="608" type="line"/>
      <point x="370" y="652"/>
      <point x="352" y="665" type="qcurve"/>
      <point x="333" y="677"/>
      <point x="293" y="677" type="qcurve"/>
      <point x="293" y="694" type="line"/>
      <point x="493" y="694" type="line"/>
      <point x="493" y="677" type="line"/>
      <point x="451" y="677"/>
      <point x="433" y="665" type="qcurve"/>
      <point x="417" y="654"/>
      <point x="417" y="608" type="qcurve"/>
      <point x="417" y="152" type="line"/>
    </contour>
  </outline>
</glyph>
<glyph name="K" format="2">
  <advance width="512"/>
  <unicode hex="004B"/>
  <outline>
    <contour>
      <point x="92" y="677"/>
      <point x="25" y="677" type="qcurve"/>
      <point x="25" y="694" type="line"/>
      <point x="214" y="694" type="line"/>
      <point x="214" y="677" type="line"/>
      <point x="145" y="676"/>
      <point x="145" y="618" type="qcurve"/>
      <point x="145" y="409" type="line"/>
      <point x="336" y="626" type="line"/>
      <point x="378" y="678"/>
      <point x="312" y="677" type="qcurve"/>
      <point x="312" y="694" type="line"/>
      <point x="444" y="694" type="line"/>
      <point x="444" y="677" type="line"/>
      <point x="405" y="677"/>
      <point x="362" y="626" type="qcurve"/>
      <point x="171" y="409" type="line"/>
      <point x="404" y="135" type="line"/>
      <point x="442" y="93"/>
      <point x="488" y="93" type="qcurve"/>
      <point x="488" y="76" type="line"/>
      <point x="324" y="76" type="line"/>
      <point x="324" y="93" type="line"/>
      <point x="349" y="94"/>
      <point x="356" y="101" type="qcurve"/>
      <point x="361" y="110"/>
      <point x="339" y="135" type="qcurve"/>
      <point x="145" y="361" type="line"/>
      <point x="145" y="155" type="line"/>
      <point x="145" y="93"/>
      <point x="214" y="93" type="qcurve"/>
      <point x="214" y="76" type="line"/>
      <point x="25" y="76" type="line"/>
      <point x="25" y="93" type="line"/>
      <point x="93" y="94"/>
      <point x="93" y="155" type="qcurve"/>
      <point x="93" y="618" type="line"/>
    </contour>
  </outline>
</glyph>
<glyph name="P" format="2">
  <advance width="512"/>
  <unicode hex="0050"/>
  <outline>
    <contour>
      <point x="101" y="651"/>
      <point x="83" y="664" type="qcurve"/>
      <point x="62" y="677"/>
      <point x="22" y="677" type="qcurve"/>
      <point x="22" y="694" type="line"/>
      <point x="310" y="694" type="line"/>
      <point x="387" y="694"/>
      <point x="436" y="655" type="qcurve"/>
      <point x="490" y="614"/>
      <point x="490" y="553" type="qcurve"/>
      <point x="490" y="477"/>
      <point x="429" y="429" type="qcurve"/>
      <point x="356" y="380"/>
      <point x="218" y="380" type="qcurve"/>
      <point x="153" y="380" type="line"/>
      <point x="153" y="151" type="line"/>
      <point x="154" y="120"/>
      <point x="173" y="107" type="qcurve"/>
      <point x="193" y="93"/>
      <point x="236" y="93" type="qcurve"/>
      <point x="236" y="76" type="line"/>
      <point x="20" y="76" type="line"/>
      <point x="20" y="93" type="line"/>
      <point x="61" y="93"/>
      <point x="82" y="106" type="qcurve"/>
      <point x="101" y="120"/>
      <point x="101" y="151" type="qcurve"/>
      <point x="101" y="624" type="line"/>
    </contour>
    <contour>
      <point x="153" y="403" type="line"/>
      <point x="218" y="403" type="line"/>
      <point x="319" y="403"/>
      <point x="377" y="440" type="qcurve"/>
      <point x="438" y="480"/>
      <point x="438" y="553" type="qcurve"/>
      <point x="437" y="606"/>
      <point x="391" y="637" type="qcurve"/>
      <point x="341" y="672"/>
      <point x="256" y="672" type="qcurve"/>
      <point x="196" y="673"/>
      <point x="174" y="661" type="qcurve"/>
      <point x="153" y="651"/>
      <point x="153" y="624" type="qcurve"/>
    </contour>
  </outline>
</glyph>
<glyph name="T" format="2">
  <advance width="512"/>
  <unicode hex="0054"/>
  <outline>
    <contour>
      <point x="273" y="93"/>
      <point x="387" y="93" type="qcurve"/>
      <point x="387" y="76" type="line"/>
      <point x="110" y="76" type="line"/>
      <point x="110" y="93" type="line"/>
      <point x="226" y="94"/>
      <point x="226" y="152" type="qcurve"/>
      <point x="226" y="672" type="line"/>
      <point x="166" y="672" type="line"/>
      <point x="99" y="672"/>
      <point x="38" y="563" type="qcurve"/>
      <point x="27" y="567" type="line"/>
      <point x="68" y="694" type="line"/>
      <point x="444" y="694" type="line"/>
      <point x="486" y="567" type="line"/>
      <point x="474" y="563" type="line"/>
      <point x="415" y="672"/>
      <point x="348" y="672" type="qcurve"/>
      <point x="273" y="672" type="line"/>
      <point x="273" y="152" type="line"/>
    </contour>
  </outline>
</glyph>
<glyph name="V" format="2">
  <advance width="512"/>
  <unicode hex="0056"/>
  <outline>
    <contour>
      <point x="76" y="677"/>
      <point x="16" y="677" type="qcurve"/>
      <point x="16" y="694" type="line"/>
      <point x="212" y="694" type="line"/>
      <point x="212" y="677" type="line"/>
      <point x="129" y="677"/>
      <point x="148" y="601" type="qcurve"/>
      <point x="262" y="148" type="line"/>
      <point x="413" y="617" type="line"/>
      <point x="430" y="677"/>
      <point x="363" y="677" type="qcurve"/>
      <point x="363" y="694" type="line"/>
      <point x="496" y="694" type="line"/>
      <point x="496" y="677" type="line"/>
      <point x="448" y="677"/>
      <point x="430" y="617" type="qcurve"/>
      <point x="256" y="77" type="line"/>
      <point x="247" y="77" type="line"/>
      <point x="247" y="76" type="line"/>
      <point x="233" y="76" type="line"/>
      <point x="96" y="601" type="line"/>
    </contour>
  </outline>
</glyph>
<glyph name="backslash" format="2">
  <advance width="512"/>
  <unicode hex="005C"/>
  <outline>
    <contour>
      <point x="60" y="844" type="line"/>
      <point x="503" y="-68" type="line"/>
      <point x="451" y="-68" type="line"/>
      <point x="8" y="844" type="line"/>
    </contour>
  </outline>
</glyph>
<glyph name="bracketright" format="2">
  <advance width="512"/>
  <unicode hex="005D"/>
  <outline>
    <contour>
      <point x="211" y="822" type="line"/>
      <point x="42" y="822" type="line"/>
      <point x="42" y="844" type="line"/>
      <point x="263" y="844" type="line"/>
      <point x="263" y="-68" type="line"/>
      <point x="42" y="-68" type="line"/>
      <point x="42" y="-45" type="line"/>
      <point x="211" y="-45" type="line"/>
    </contour>
  </outline>
</glyph>
<glyph name="underscore" format="2">
  <advance width="512"/>
  <unicode hex="005F"/>
  <outline>
    <contour>
      <point x="512" y="-81" type="line"/>
      <point x="512" y="-124" type="line"/>
      <point x="0" y="-124" type="line"/>
      <point x="0" y="-81" type="line"/>
    </contour>
  </outline>
</glyph>
<glyph name="i" format="2">
  <advance width="512"/>
  <unicode hex="0069"/>
  <outline>
    <contour>
      <point x="265" y="668"/>
      <point x="278" y="658" type="qcurve"/>
      <point x="290" y="648"/>
      <point x="290" y="629" type="qcurve"/>
      <point x="289" y="613"/>
      <point x="279" y="601" type="qcurve"/>
      <point x="268" y="588"/>
      <point x="249" y="588" type="qcurve"/>
      <point x="230" y="588"/>
      <point x="220" y="600" type="qcurve"/>
      <point x="209" y="614"/>
      <point x="209" y="629" type="qcurve"/>
      <point x="210" y="649"/>
      <point x="220" y="659" type="qcurve"/>
      <point x="231" y="669"/>
      <point x="249" y="669" type="qcurve"/>
    </contour>
    <contour>
      <point x="284" y="117"/>
      <point x="300" y="104" type="qcurve"/>
      <point x="317" y="93"/>
      <point x="347" y="93" type="qcurve"/>
      <point x="440" y="93" type="line"/>
      <point x="440" y="76" type="line"/>
      <point x="73" y="76" type="line"/>
      <point x="73" y="93" type="line"/>
      <point x="154" y="93" type="line"/>
      <point x="191" y="93"/>
      <point x="212" y="106" type="qcurve"/>
      <point x="231" y="117"/>
      <point x="231" y="141" type="qcurve"/>
      <point x="231" y="389" type="line"/>
      <point x="231" y="402"/>
      <point x="213" y="408" type="qcurve"/>
      <point x="193" y="415"/>
      <point x="96" y="415" type="qcurve"/>
      <point x="96" y="437" type="line"/>
      <point x="201" y="437"/>
      <point x="255" y="495" type="qcurve"/>
      <point x="283" y="495" type="line"/>
      <point x="283" y="141" type="line"/>
    </contour>
  </outline>
</glyph>
<glyph name="m" format="2">
  <advance width="512"/>
  <unicode hex="006D"/>
  <outline>
    <contour>
      <point x="458" y="103"/>
      <point x="467" y="99" type="qcurve"/>
      <point x="478" y="93"/>
      <point x="500" y="93" type="qcurve"/>
      <point x="500" y="76" type="line"/>
      <point x="368" y="76" type="line"/>
      <point x="368" y="93" type="line"/>
      <point x="389" y="93"/>
      <point x="399" y="99" type="qcurve"/>
      <point x="409" y="104"/>
      <point x="409" y="116" type="qcurve"/>
      <point x="409" y="407" type="line"/>
      <point x="405" y="434"/>
      <point x="395" y="444" type="qcurve"/>
      <point x="380" y="457"/>
      <point x="362" y="456" type="qcurve"/>
      <point x="342" y="456"/>
      <point x="318" y="432" type="qcurve"/>
      <point x="295" y="411"/>
      <point x="277" y="371" type="qcurve"/>
      <point x="277" y="116" type="line"/>
      <point x="278" y="102"/>
      <point x="285" y="98" type="qcurve"/>
      <point x="293" y="93"/>
      <point x="318" y="93" type="qcurve"/>
      <point x="318" y="76" type="line"/>
      <point x="195" y="76" type="line"/>
      <point x="195" y="93" type="line"/>
      <point x="218" y="94"/>
      <point x="222" y="98" type="qcurve"/>
      <point x="228" y="103"/>
      <point x="228" y="116" type="qcurve"/>
      <point x="228" y="398" type="line"/>
      <point x="228" y="423"/>
      <point x="218" y="439" type="qcurve"/>
      <point x="208" y="456"/>
      <point x="187" y="456" type="qcurve"/>
      <point x="172" y="455"/>
      <point x="153" y="436" type="qcurve"/>
      <point x="130" y="415"/>
      <point x="102" y="372" type="qcurve"/>
      <point x="102" y="114" type="line"/>
      <point x="102" y="102"/>
      <point x="112" y="98" type="qcurve"/>
      <point x="122" y="93"/>
      <point x="144" y="93" type="qcurve"/>
      <point x="144" y="76" type="line"/>
      <point x="13" y="76" type="line"/>
      <point x="13" y="93" type="line"/>
      <point x="38" y="94"/>
      <point x="45" y="98" type="qcurve"/>
      <point x="53" y="104"/>
      <point x="53" y="114" type="qcurve"/>
      <point x="53" y="400" type="line"/>
      <point x="53" y="410"/>
      <point x="46" y="414" type="qcurve"/>
      <point x="40" y="419"/>
      <point x="13" y="419" type="qcurve"/>
      <point x="13" y="436" type="line"/>
      <point x="88" y="495" type="line"/>
      <point x="102" y="495" type="line"/>
      <point x="102" y="421" type="line"/>
      <point x="117" y="445"/>
      <point x="133" y="458" type="qcurve"/>
      <point x="169" y="495"/>
      <point x="212" y="495" type="qcurve"/>
      <point x="242" y="494"/>
      <point x="260" y="469" type="qcurve"/>
      <point x="271" y="454"/>
      <point x="275" y="424" type="qcurve"/>
      <point x="287" y="443"/>
      <point x="302" y="456" type="qcurve"/>
      <point x="339" y="495"/>
      <point x="384" y="495" type="qcurve"/>
      <point x="414" y="495"/>
      <point x="435" y="473" type="qcurve"/>
      <point x="458" y="450"/>
      <point x="458" y="407" type="qcurve"/>
      <point x="458" y="116" type="line"/>
    </contour>
  </outline>
</glyph>
<glyph name="p" format="2">
  <advance width="512"/>
  <unicode hex="0070"/>
  <outline>
    <contour>
      <point x="116" y="407"/>
      <point x="100" y="413" type="qcurve"/>
      <point x="82" y="420"/>
      <point x="33" y="420" type="qcurve"/>
      <point x="33" y="437" type="line"/>
      <point x="154" y="495" type="line"/>
      <point x="168" y="495" type="line"/>
      <point x="168" y="432" type="line"/>
      <point x="237" y="496"/>
      <point x="300" y="495" type="qcurve"/>
      <point x="377" y="494"/>
      <point x="429" y="433" type="qcurve"/>
      <point x="479" y="377"/>
      <point x="479" y="272" type="qcurve"/>
      <point x="478" y="190"/>
      <point x="429" y="130" type="qcurve"/>
      <point x="375" y="67"/>
      <point x="296" y="67" type="qcurve"/>
      <point x="232" y="68"/>
      <point x="168" y="95" type="qcurve"/>
      <point x="168" y="8" type="line"/>
      <point x="169" y="-15"/>
      <point x="188" y="-28" type="qcurve"/>
      <point x="204" y="-38"/>
      <point x="250" y="-38" type="qcurve"/>
      <point x="250" y="-58" type="line"/>
      <point x="43" y="-58" type="line"/>
      <point x="43" y="-38" type="line"/>
      <point x="85" y="-38"/>
      <point x="101" y="-26" type="qcurve"/>
      <point x="116" y="-14"/>
      <point x="116" y="8" type="qcurve"/>
      <point x="116" y="385" type="line"/>
    </contour>
    <contour>
      <point x="168" y="133" type="line"/>
      <point x="226" y="95"/>
      <point x="272" y="94" type="qcurve"/>
      <point x="333" y="94"/>
      <point x="381" y="145" type="qcurve"/>
      <point x="427" y="196"/>
      <point x="427" y="272" type="qcurve"/>
      <point x="427" y="361"/>
      <point x="382" y="406" type="qcurve"/>
      <point x="338" y="450"/>
      <point x="274" y="450" type="qcurve"/>
      <point x="226" y="450"/>
      <point x="168" y="401" type="qcurve"/>
    </contour>
  </outline>
</glyph>
<glyph name="r" format="2">
  <advance width="512"/>
  <unicode hex="0072"/>
  <outline>
    <contour>
      <point x="117" y="404"/>
      <point x="104" y="411" type="qcurve"/>
      <point x="88" y="420"/>
      <point x="49" y="420" type="qcurve"/>
      <point x="49" y="437" type="line"/>
      <point x="160" y="495" type="line"/>
      <point x="171" y="495" type="line"/>
      <point x="171" y="385" type="line"/>
      <point x="207" y="432"/>
      <point x="243" y="456" type="qcurve"/>
      <point x="299" y="495"/>
      <point x="336" y="495" type="qcurve"/>
      <point x="377" y="496"/>
      <point x="411" y="472" type="qcurve"/>
      <point x="440" y="453"/>
      <point x="441" y="429" type="qcurve"/>
      <point x="441" y="408"/>
      <point x="428" y="395" type="qcurve"/>
      <point x="416" y="383"/>
      <point x="398" y="383" type="qcurve"/>
      <point x="392" y="384"/>
      <point x="385" y="400" type="qcurve"/>
      <point x="357" y="453"/>
      <point x="309" y="453" type="qcurve"/>
      <point x="278" y="454"/>
      <point x="239" y="424" type="qcurve"/>
      <point x="204" y="398"/>
      <point x="171" y="355" type="qcurve"/>
      <point x="171" y="154" type="line"/>
      <point x="171" y="129"/>
      <point x="193" y="110" type="qcurve"/>
      <point x="216" y="93"/>
      <point x="259" y="93" type="qcurve"/>
      <point x="259" y="76" type="line"/>
      <point x="30" y="76" type="line"/>
      <point x="30" y="93" type="line"/>
      <point x="71" y="93"/>
      <point x="95" y="111" type="qcurve"/>
      <point x="119" y="129"/>
      <point x="119" y="154" type="qcurve"/>
      <point x="119" y="383" type="line"/>
    </contour>
  </outline>
</glyph>
<glyph name="t" format="2">
  <advance width="512"/>
  <unicode hex="0074"/>
  <outline>
    <contour>
      <point x="47" y="474" type="line"/>
      <point x="47" y="496" type="line"/>
      <point x="55" y="497"/>
      <point x="62" y="496" type="qcurve"/>
      <point x="110" y="504"/>
      <point x="159" y="535" type="qcurve"/>
      <point x="209" y="572"/>
      <point x="219" y="644" type="qcurve"/>
      <point x="238" y="644" type="line"/>
      <point x="238" y="497" type="line"/>
      <point x="437" y="497" type="line"/>
      <point x="426" y="474" type="line"/>
      <point x="238" y="474" type="line"/>
      <point x="238" y="178" type="line"/>
      <point x="239" y="147"/>
      <point x="261" y="126" type="qcurve"/>
      <point x="282" y="108"/>
      <point x="331" y="108" type="qcurve"/>
      <point x="362" y="108"/>
      <point x="393" y="132" type="qcurve"/>
      <point x="422" y="154"/>
      <point x="446" y="206" type="qcurve"/>
      <point x="466" y="197" type="line"/>
      <point x="438" y="124"/>
      <point x="401" y="97" type="qcurve"/>
      <point x="359" y="66"/>
      <point x="307" y="66" type="qcurve"/>
      <point x="250" y="67"/>
      <point x="219" y="95" type="qcurve"/>
      <point x="186" y="124"/>
      <point x="186" y="178" type="qcurve"/>
      <point x="186" y="474" type="line"/>
    </contour>
  </outline>
</glyph>
<glyph name="z" format="2">
  <advance width="512"/>
  <unicode hex="007A"/>
  <outline>
    <contour>
      <point x="265" y="99" type="line"/>
      <point x="321" y="100"/>
      <point x="357" y="113" type="qcurve"/>
      <point x="390" y="129"/>
      <point x="424" y="178" type="qcurve"/>
      <point x="435" y="171" type="line"/>
      <point x="392" y="76" type="line"/>
      <point x="77" y="76" type="line"/>
      <point x="77" y="105" type="line"/>
      <point x="347" y="473" type="line"/>
      <point x="218" y="473" type="line"/>
      <point x="169" y="473"/>
      <point x="144" y="457" type="qcurve"/>
      <point x="116" y="439"/>
      <point x="98" y="387" type="qcurve"/>
      <point x="86" y="391" type="line"/>
      <point x="97" y="495" type="line"/>
      <point x="399" y="495" type="line"/>
      <point x="399" y="473" type="line"/>
      <point x="129" y="99" type="line"/>
    </contour>
  </outline>
</glyph>
<glyph name="braceleft" format="2">
  <advance width="512"/>
  <unicode hex="007B"/>
  <outline>
    <contour>
      <point x="386" y="845"/>
      <point x="476" y="844" type="qcurve"/>
      <point x="476" y="823" type="line"/>
      <point x="411" y="824"/>
      <point x="371" y="769" type="qcurve"/>
      <point x="330" y="712"/>
      <point x="340" y="579" type="qcurve"/>
      <point x="349" y="475"/>
      <point x="298" y="417" type="qcurve"/>
      <point x="272" y="388"/>
      <point x="239" y="373" type="qcurve"/>
      <point x="279" y="360"/>
      <point x="301" y="329" type="qcurve"/>
      <point x="347" y="271"/>
      <point x="334" y="159" type="qcurve"/>
      <point x="321" y="34"/>
      <point x="360" y="-6" type="qcurve"/>
      <point x="400" y="-46"/>
      <point x="470" y="-47" type="qcurve"/>
      <point x="470" y="-68" type="line"/>
      <point x="368" y="-68"/>
      <point x="319" y="-22" type="qcurve"/>
      <point x="265" y="29"/>
      <point x="278" y="159" type="qcurve"/>
      <point x="290" y="289"/>
      <point x="253" y="326" type="qcurve"/>
      <point x="221" y="358"/>
      <point x="161" y="358" type="qcurve"/>
      <point x="161" y="386" type="line"/>
      <point x="224" y="387"/>
      <point x="251" y="412" type="qcurve"/>
      <point x="278" y="440"/>
      <point x="285" y="579" type="qcurve"/>
      <point x="295" y="721"/>
      <point x="338" y="776" type="qcurve"/>
    </contour>
  </outline>
</glyph>
<glyph name="bar" format="2">
  <advance width="512"/>
  <unicode hex="007C"/>
  <outline>
    <contour>
      <point x="275" y="844" type="line"/>
      <point x="275" y="-68" type="line"/>
      <point x="235" y="-68" type="line"/>
      <point x="235" y="844" type="line"/>
    </contour>
  </outline>
</glyph>
<glyph name="braceright" format="2">
  <advance width="512"/>
  <unicode hex="007D"/>
  <outline>
    <contour>
      <point x="236" y="482"/>
      <point x="263" y="445" type="qcurve"/>
      <point x="291" y="407"/>
      <point x="357" y="406" type="qcurve"/>
      <point x="357" y="378" type="line"/>
      <point x="351" y="379"/>
      <point x="350" y="378" type="qcurve"/>
      <point x="292" y="378"/>
      <point x="268" y="351" type="qcurve"/>
      <point x="230" y="309"/>
      <point x="234" y="176" type="qcurve"/>
      <point x="238" y="19"/>
      <point x="195" y="-21" type="qcurve"/>
      <point x="147" y="-67"/>
      <point x="42" y="-68" type="qcurve"/>
      <point x="42" y="-47" type="line"/>
      <point x="109" y="-45"/>
      <point x="155" y="-5" type="qcurve"/>
      <point x="192" y="31"/>
      <point x="179" y="176" type="qcurve"/>
      <point x="166" y="289"/>
      <point x="221" y="350" type="qcurve"/>
      <point x="244" y="378"/>
      <point x="277" y="391" type="qcurve"/>
      <point x="237" y="407"/>
      <point x="213" y="441" type="qcurve"/>
      <point x="169" y="503"/>
      <point x="182" y="606" type="qcurve"/>
      <point x="191" y="732"/>
      <point x="145" y="783" type="qcurve"/>
      <point x="106" y="824"/>
      <point x="42" y="823" type="qcurve"/>
      <point x="42" y="844" type="line"/>
      <point x="138" y="845"/>
      <point x="183" y="794" type="qcurve"/>
      <point x="238" y="739"/>
      <point x="237" y="606" type="qcurve"/>
    </contour>
  </outline>
</glyph>
<glyph name="u20000" format="2">
  <advance width="1024"/>
  <unicode hex="20000"/>
  <outline>
    <contour>
      <point x="232" y="-12" type="line"/>
      <point x="205" y="-35"/>
      <point x="195" y="-53" type="qcurve"/>
      <point x="187" y="-63"/>
      <point x="180" y="-53" type="qcurve"/>
      <point x="162" y="-31"/>
      <point x="146" y="-18" type="qcurve"/>
      <point x="138" y="-11"/>
      <point x="147" y="-5" type="qcurve"/>
      <point x="161" y="3"/>
      <point x="162" y="7" type="qcurve"/>
      <point x="165" y="11"/>
      <point x="165" y="21" type="qcurve"/>
      <point x="165" y="406" type="line"/>
      <point x="165" y="457"/>
      <point x="158" y="491" type="qcurve"/>
      <point x="156" y="501"/>
      <point x="160" y="505" type="qcurve"/>
      <point x="165" y="508"/>
      <point x="178" y="496" type="qcurve"/>
      <point x="196" y="480"/>
      <point x="217" y="467" type="qcurve"/>
      <point x="477" y="467" type="line"/>
      <point x="477" y="756" type="line"/>
      <point x="167" y="756" type="line"/>
      <point x="140" y="756"/>
      <point x="106" y="749" type="qcurve"/>
      <point x="101" y="748"/>
      <point x="100" y="751" type="qcurve"/>
      <point x="87" y="771"/>
      <point x="77" y="787" type="qcurve"/>
      <point x="71" y="797"/>
      <point x="84" y="794" type="qcurve"/>
      <point x="145" y="788"/>
      <point x="152" y="787" type="qcurve"/>
      <point x="809" y="787" type="line"/>
      <point x="821" y="787"/>
      <point x="825" y="791" type="qcurve"/>
      <point x="830" y="796"/>
      <point x="839" y="806" type="qcurve"/>
      <point x="865" y="843" type="line"/>
      <point x="872" y="852"/>
      <point x="881" y="843" type="qcurve"/>
      <point x="912" y="815"/>
      <point x="942" y="784" type="qcurve"/>
      <point x="952" y="774"/>
      <point x="951" y="765" type="qcurve"/>
      <point x="949" y="757"/>
      <point x="936" y="756" type="qcurve"/>
      <point x="525" y="756" type="line"/>
      <point x="525" y="428" type="line"/>
      <point x="524" y="406"/>
      <point x="517" y="403" type="qcurve"/>
      <point x="506" y="399"/>
      <point x="490" y="393" type="qcurve"/>
      <point x="476" y="387"/>
      <point x="477" y="400" type="qcurve"/>
      <point x="477" y="436" type="line"/>
      <point x="213" y="436" type="line"/>
      <point x="213" y="19" type="line"/>
      <point x="787" y="19" type="line"/>
      <point x="799" y="19"/>
      <point x="803" y="23" type="qcurve"/>
      <point x="808" y="28"/>
      <point x="817" y="38" type="qcurve"/>
      <point x="843" y="75" type="line"/>
      <point x="850" y="84"/>
      <point x="859" y="75" type="qcurve"/>
      <point x="890" y="47"/>
      <point x="920" y="16" type="qcurve"/>
      <point x="930" y="6"/>
      <point x="929" y="-3" type="qcurve"/>
      <point x="927" y="-11"/>
      <point x="914" y="-12" type="qcurve"/>
    </contour>
  </outline>
</glyph>
<glyph name="u20001" format="2">
  <advance width="1024"/>
  <unicode hex="20001"/>
  <outline>
    <contour>
      <point x="415" y="576" type="line"/>
      <point x="401" y="537"/>
      <point x="385" y="492" type="qcurve"/>
      <point x="340" y="367" type="line"/>
      <point x="714" y="367" type="line"/>
      <point x="723" y="367"/>
      <point x="727" y="370" type="qcurve"/>
      <point x="757" y="404" type="line"/>
      <point x="766" y="414"/>
      <point x="773" y="404" type="qcurve"/>
      <point x="805" y="379"/>
      <point x="827" y="354" type="qcurve"/>
      <point x="833" y="349"/>
      <point x="823" y="343" type="qcurve"/>
      <point x="818" y="343"/>
      <point x="817" y="340" type="qcurve"/>
      <point x="783" y="326"/>
      <point x="777" y="251" type="qcurve"/>
      <point x="752" y="49"/>
      <point x="668" y="-44" type="qcurve"/>
      <point x="612" y="-89"/>
      <point x="600" y="-86" type="qcurve"/>
      <point x="595" y="-86"/>
      <point x="594" y="-73" type="qcurve"/>
      <point x="592" y="-57"/>
      <point x="583" y="-47" type="qcurve"/>
      <point x="570" y="-31"/>
      <point x="488" y="-21" type="qcurve"/>
      <point x="473" y="-21"/>
      <point x="474" y="-8" type="qcurve"/>
      <point x="475" y="2"/>
      <point x="491" y="1" type="qcurve"/>
      <point x="629" y="-7"/>
      <point x="639" y="8" type="qcurve"/>
      <point x="664" y="32"/>
      <point x="689" y="102" type="qcurve"/>
      <point x="731" y="228"/>
      <point x="735" y="336" type="qcurve"/>
      <point x="332" y="336" type="line"/>
      <point x="310" y="315" type="line"/>
      <point x="300" y="307"/>
      <point x="293" y="320" type="qcurve"/>
      <point x="282" y="338"/>
      <point x="263" y="359" type="qcurve"/>
      <point x="254" y="370"/>
      <point x="269" y="374" type="qcurve"/>
      <point x="301" y="384"/>
      <point x="319" y="432" type="qcurve"/>
      <point x="355" y="536" type="line"/>
      <point x="363" y="557"/>
      <point x="370" y="576" type="qcurve"/>
      <point x="166" y="576" type="line"/>
      <point x="124" y="575"/>
      <point x="93" y="569" type="qcurve"/>
      <point x="84" y="566"/>
      <point x="83" y="575" type="qcurve"/>
      <point x="78" y="593"/>
      <point x="63" y="606" type="qcurve"/>
      <point x="55" y="613"/>
      <point x="59" y="617" type="qcurve"/>
      <point x="63" y="620"/>
      <point x="70" y="616" type="qcurve"/>
      <point x="108" y="607"/>
      <point x="154" y="607" type="qcurve"/>
      <point x="381" y="607" type="line"/>
      <point x="449" y="800"/>
      <point x="447" y="866" type="qcurve"/>
      <point x="447" y="877"/>
      <point x="454" y="874" type="qcurve"/>
      <point x="486" y="863"/>
      <point x="523" y="844" type="qcurve"/>
      <point x="533" y="839"/>
      <point x="533" y="833" type="qcurve"/>
      <point x="534" y="827"/>
      <point x="522" y="823" type="qcurve"/>
      <point x="506" y="817"/>
      <point x="500" y="801" type="qcurve"/>
      <point x="492" y="786"/>
      <point x="427" y="607" type="qcurve"/>
      <point x="823" y="607" type="line"/>
      <point x="837" y="608"/>
      <point x="853" y="626" type="qcurve"/>
      <point x="879" y="663" type="line"/>
      <point x="886" y="672"/>
      <point x="895" y="663" type="qcurve"/>
      <point x="966" y="600"/>
      <point x="965" y="585" type="qcurve"/>
      <point x="963" y="577"/>
      <point x="950" y="576" type="qcurve"/>
    </contour>
  </outline>
</glyph>
<glyph name="u20002" format="2">
  <advance width="1024"/>
  <unicode hex="20002"/>
  <outline>
    <contour>
      <point x="790" y="-22"/>
      <point x="803" y="-12" type="qcurve"/>
      <point x="835" y="5"/>
      <point x="871" y="149" type="qcurve"/>
      <point x="873" y="160"/>
      <point x="885" y="159" type="qcurve"/>
      <point x="898" y="157"/>
      <point x="897" y="146" type="qcurve"/>
      <point x="881" y="63"/>
      <point x="884" y="32" type="qcurve"/>
      <point x="886" y="14"/>
      <point x="902" y="2" type="qcurve"/>
      <point x="907" y="-3"/>
      <point x="900" y="-9" type="qcurve"/>
      <point x="866" y="-59"/>
      <point x="791" y="-62" type="qcurve"/>
      <point x="207" y="-91"/>
      <point x="144" y="-34" type="qcurve"/>
      <point x="114" y="-8"/>
      <point x="113" y="33" type="qcurve"/>
      <point x="110" y="131"/>
      <point x="425" y="420" type="qcurve"/>
      <point x="562" y="543"/>
      <point x="581" y="573" type="qcurve"/>
      <point x="225" y="573" type="line"/>
      <point x="183" y="572"/>
      <point x="152" y="567" type="qcurve"/>
      <point x="143" y="564"/>
      <point x="142" y="572" type="qcurve"/>
      <point x="137" y="588"/>
      <point x="122" y="603" type="qcurve"/>
      <point x="114" y="609"/>
      <point x="118" y="613" type="qcurve"/>
      <point x="122" y="616"/>
      <point x="129" y="612" type="qcurve"/>
      <point x="167" y="604"/>
      <point x="213" y="604" type="qcurve"/>
      <point x="564" y="604" type="line"/>
      <point x="581" y="604"/>
      <point x="587" y="607" type="qcurve"/>
      <point x="619" y="635" type="line"/>
      <point x="624" y="640"/>
      <point x="627" y="640" type="qcurve"/>
      <point x="640" y="640"/>
      <point x="703" y="583" type="qcurve"/>
      <point x="713" y="573"/>
      <point x="698" y="572" type="qcurve"/>
      <point x="646" y="568"/>
      <point x="537" y="468" type="qcurve"/>
      <point x="345" y="302"/>
      <point x="239" y="166" type="qcurve"/>
      <point x="171" y="77"/>
      <point x="172" y="36" type="qcurve"/>
      <point x="173" y="7"/>
      <point x="192" y="-7" type="qcurve"/>
      <point x="242" y="-47"/>
      <point x="743" y="-25" type="qcurve"/>
    </contour>
    <contour>
      <point x="167" y="756" type="line"/>
      <point x="140" y="756"/>
      <point x="106" y="749" type="qcurve"/>
      <point x="101" y="748"/>
      <point x="100" y="751" type="qcurve"/>
      <point x="87" y="771"/>
      <point x="77" y="787" type="qcurve"/>
      <point x="71" y="797"/>
      <point x="84" y="794" type="qcurve"/>
      <point x="145" y="788"/>
      <point x="152" y="787" type="qcurve"/>
      <point x="809" y="787" type="line"/>
      <point x="821" y="787"/>
      <point x="825" y="791" type="qcurve"/>
      <point x="830" y="796"/>
      <point x="839" y="806" type="qcurve"/>
      <point x="865" y="843" type="line"/>
      <point x="872" y="852"/>
      <point x="881" y="843" type="qcurve"/>
      <point x="912" y="815"/>
      <point x="942" y="784" type="qcurve"/>
      <point x="952" y="774"/>
      <point x="951" y="765" type="qcurve"/>
      <point x="949" y="757"/>
      <point x="936" y="756" type="qcurve"/>
    </contour>
  </outline>
</glyph>
<glyph name="u20004" format="2">
  <advance width="1024"/>
  <unicode hex="20004"/>
  <outline>
    <contour>
      <point x="533" y="708" type="line"/>
      <point x="533" y="35" type="line"/>
      <point x="829" y="35" type="line"/>
      <point x="843" y="36"/>
      <point x="859" y="54" type="qcurve"/>
      <point x="885" y="91" type="line"/>
      <point x="892" y="100"/>
      <point x="901" y="91" type="qcurve"/>
      <point x="972" y="28"/>
      <point x="971" y="13" type="qcurve"/>
      <point x="969" y="5"/>
      <point x="956" y="4" type="qcurve"/>
      <point x="160" y="4" type="line"/>
      <point x="118" y="3"/>
      <point x="87" y="-3" type="qcurve"/>
      <point x="78" y="-6"/>
      <point x="77" y="3" type="qcurve"/>
      <point x="72" y="21"/>
      <point x="57" y="34" type="qcurve"/>
      <point x="49" y="41"/>
      <point x="53" y="45" type="qcurve"/>
      <point x="57" y="48"/>
      <point x="64" y="44" type="qcurve"/>
      <point x="102" y="35"/>
      <point x="148" y="35" type="qcurve"/>
      <point x="485" y="35" type="line"/>
      <point x="485" y="708" type="line"/>
      <point x="244" y="708" type="line"/>
      <point x="202" y="707"/>
      <point x="171" y="701" type="qcurve"/>
      <point x="162" y="698"/>
      <point x="161" y="707" type="qcurve"/>
      <point x="156" y="725"/>
      <point x="141" y="738" type="qcurve"/>
      <point x="133" y="745"/>
      <point x="137" y="749" type="qcurve"/>
      <point x="141" y="752"/>
      <point x="148" y="748" type="qcurve"/>
      <point x="186" y="739"/>
      <point x="232" y="739" type="qcurve"/>
      <point x="815" y="739" type="line"/>
      <point x="822" y="739"/>
      <point x="827" y="745" type="qcurve"/>
      <point x="869" y="778" type="line"/>
      <point x="873" y="782"/>
      <point x="876" y="782" type="qcurve"/>
      <point x="891" y="782"/>
      <point x="948" y="722" type="qcurve"/>
      <point x="960" y="709"/>
      <point x="942" y="709" type="qcurve"/>
      <point x="908" y="706"/>
      <point x="894" y="693" type="qcurve"/>
      <point x="825" y="602"/>
      <point x="695" y="486" type="qcurve"/>
      <point x="679" y="472"/>
      <point x="671" y="480" type="qcurve"/>
      <point x="663" y="490"/>
      <point x="673" y="502" type="qcurve"/>
      <point x="783" y="614"/>
      <point x="820" y="708" type="qcurve"/>
    </contour>
  </outline>
</glyph>
<glyph name="u20005" format="2">
  <advance width="1024"/>
  <unicode hex="20005"/>
  <outline>
    <contour>
      <point x="167" y="756" type="line"/>
      <point x="140" y="756"/>
      <point x="106" y="749" type="qcurve"/>
      <point x="101" y="748"/>
      <point x="100" y="751" type="qcurve"/>
      <point x="87" y="771"/>
      <point x="77" y="787" type="qcurve"/>
      <point x="71" y="797"/>
      <point x="84" y="794" type="qcurve"/>
      <point x="145" y="788"/>
      <point x="152" y="787" type="qcurve"/>
      <point x="809" y="787" type="line"/>
      <point x="821" y="787"/>
      <point x="825" y="791" type="qcurve"/>
      <point x="830" y="796"/>
      <point x="839" y="806" type="qcurve"/>
      <point x="865" y="843" type="line"/>
      <point x="872" y="852"/>
      <point x="881" y="843" type="qcurve"/>
      <point x="912" y="815"/>
      <point x="942" y="784" type="qcurve"/>
      <point x="952" y="774"/>
      <point x="951" y="765" type="qcurve"/>
      <point x="949" y="757"/>
      <point x="936" y="756" type="qcurve"/>
    </contour>
    <contour>
      <point x="493" y="429" type="line"/>
      <point x="495" y="486"/>
      <point x="495" y="533" type="qcurve"/>
      <point x="495" y="607" type="line"/>
      <point x="494" y="636"/>
      <point x="487" y="679" type="qcurve"/>
      <point x="485" y="690"/>
      <point x="489" y="692" type="qcurve"/>
      <point x="492" y="695"/>
      <point x="501" y="691" type="qcurve"/>
      <point x="544" y="677"/>
      <point x="575" y="664" type="qcurve"/>
      <point x="582" y="660"/>
      <point x="582" y="657" type="qcurve"/>
      <point x="582" y="651"/>
      <point x="576" y="651" type="qcurve"/>
      <point x="561" y="647"/>
      <point x="554" y="636" type="qcurve"/>
      <point x="546" y="624"/>
      <point x="543" y="607" type="qcurve"/>
      <point x="543" y="533" type="line"/>
      <point x="542" y="486"/>
      <point x="541" y="429" type="qcurve"/>
      <point x="819" y="429" type="line"/>
      <point x="830" y="430"/>
      <point x="834" y="433" type="qcurve"/>
      <point x="857" y="459" type="line"/>
      <point x="863" y="467"/>
      <point x="872" y="459" type="qcurve"/>
      <point x="909" y="434"/>
      <point x="931" y="415" type="qcurve"/>
      <point x="937" y="409"/>
      <point x="928" y="407" type="qcurve"/>
      <point x="894" y="397"/>
      <point x="893" y="378" type="qcurve"/>
      <point x="862" y="115"/>
      <point x="847" y="43" type="qcurve"/>
      <point x="824" y="-43"/>
      <point x="731" y="-72" type="qcurve"/>
      <point x="722" y="-76"/>
      <point x="721" y="-71" type="qcurve"/>
      <point x="716" y="-50"/>
      <point x="700" y="-42" type="qcurve"/>
      <point x="682" y="-31"/>
      <point x="615" y="-25" type="qcurve"/>
      <point x="600" y="-24"/>
      <point x="601" y="-16" type="qcurve"/>
      <point x="603" y="-8"/>
      <point x="615" y="-10" type="qcurve"/>
      <point x="749" y="-19"/>
      <point x="764" y="-5" type="qcurve"/>
      <point x="785" y="10"/>
      <point x="795" y="37" type="qcurve"/>
      <point x="812" y="83"/>
      <point x="824" y="210" type="qcurve"/>
      <point x="839" y="309"/>
      <point x="849" y="398" type="qcurve"/>
      <point x="539" y="398" type="line"/>
      <point x="530" y="318"/>
      <point x="497" y="248" type="qcurve"/>
      <point x="450" y="135"/>
      <point x="371" y="66" type="qcurve"/>
      <point x="279" y="-13"/>
      <point x="104" y="-81" type="qcurve"/>
      <point x="89" y="-85"/>
      <point x="86" y="-80" type="qcurve"/>
      <point x="81" y="-71"/>
      <point x="91" y="-68" type="qcurve"/>
      <point x="208" y="-17"/>
      <point x="286" y="39" type="qcurve"/>
      <point x="464" y="183"/>
      <point x="491" y="398" type="qcurve"/>
      <point x="189" y="398" type="line"/>
      <point x="188" y="398"/>
      <point x="188" y="397" type="qcurve"/>
      <point x="177" y="385"/>
      <point x="173" y="381" type="qcurve"/>
      <point x="167" y="374"/>
      <point x="163" y="381" type="qcurve"/>
      <point x="151" y="400"/>
      <point x="126" y="419" type="qcurve"/>
      <point x="119" y="425"/>
      <point x="126" y="429" type="qcurve"/>
      <point x="135" y="433"/>
      <point x="145" y="439" type="qcurve"/>
      <point x="151" y="444"/>
      <point x="157" y="450" type="qcurve"/>
      <point x="207" y="644"/>
      <point x="200" y="694" type="qcurve"/>
      <point x="201" y="705"/>
      <point x="208" y="701" type="qcurve"/>
      <point x="237" y="684"/>
      <point x="271" y="659" type="qcurve"/>
      <point x="280" y="653"/>
      <point x="279" y="646" type="qcurve"/>
      <point x="279" y="640"/>
      <point x="267" y="639" type="qcurve"/>
      <point x="260" y="638"/>
      <point x="257" y="635" type="qcurve"/>
      <point x="238" y="607"/>
      <point x="201" y="429" type="qcurve"/>
    </contour>
  </outline>
</glyph>
<glyph name="u20006" format="2">
  <advance width="1024"/>
  <unicode hex="20006"/>
  <outline>
    <contour>
      <point x="543" y="343" type="line"/>
      <point x="827" y="343" type="line"/>
      <point x="841" y="344"/>
      <point x="857" y="362" type="qcurve"/>
      <point x="883" y="399" type="line"/>
      <point x="890" y="408"/>
      <point x="899" y="399" type="qcurve"/>
      <point x="970" y="336"/>
      <point x="969" y="321" type="qcurve"/>
      <point x="967" y="313"/>
      <point x="954" y="312" type="qcurve"/>
      <point x="543" y="312" type="line"/>
      <point x="543" y="151" type="line"/>
      <point x="543" y="33"/>
      <point x="547" y="-46" type="qcurve"/>
      <point x="546" y="-55"/>
      <point x="501" y="-85" type="qcurve"/>
      <point x="487" y="-94"/>
      <point x="488" y="-73" type="qcurve"/>
      <point x="495" y="60"/>
      <point x="495" y="151" type="qcurve"/>
      <point x="495" y="312" type="line"/>
      <point x="162" y="312" type="line"/>
      <point x="120" y="311"/>
      <point x="89" y="305" type="qcurve"/>
      <point x="80" y="302"/>
      <point x="79" y="311" type="qcurve"/>
      <point x="74" y="329"/>
      <point x="59" y="342" type="qcurve"/>
      <point x="51" y="349"/>
      <point x="55" y="353" type="qcurve"/>
      <point x="59" y="356"/>
      <point x="66" y="352" type="qcurve"/>
      <point x="104" y="343"/>
      <point x="150" y="343" type="qcurve"/>
      <point x="495" y="343" type="line"/>
      <point x="495" y="570" type="line"/>
      <point x="322" y="535"/>
      <point x="144" y="516" type="qcurve"/>
      <point x="125" y="515"/>
      <point x="124" y="525" type="qcurve"/>
      <point x="124" y="539"/>
      <point x="143" y="540" type="qcurve"/>
      <point x="309" y="562"/>
      <point x="495" y="613" type="qcurve"/>
      <point x="495" y="710" type="line"/>
      <point x="494" y="790"/>
      <point x="490" y="838" type="qcurve"/>
      <point x="488" y="855"/>
      <point x="500" y="851" type="qcurve"/>
      <point x="554" y="834"/>
      <point x="572" y="824" type="qcurve"/>
      <point x="586" y="817"/>
      <point x="570" y="808" type="qcurve"/>
      <point x="554" y="800"/>
      <point x="550" y="790" type="qcurve"/>
      <point x="543" y="771"/>
      <point x="543" y="710" type="qcurve"/>
      <point x="543" y="626" type="line"/>
      <point x="650" y="657"/>
      <point x="763" y="697" type="qcurve"/>
      <point x="773" y="701"/>
      <point x="777" y="695" type="qcurve"/>
      <point x="809" y="654"/>
      <point x="830" y="632" type="qcurve"/>
      <point x="835" y="627"/>
      <point x="834" y="623" type="qcurve"/>
      <point x="829" y="616"/>
      <point x="816" y="620" type="qcurve"/>
      <point x="759" y="631"/>
      <point x="543" y="580" type="qcurve"/>
    </contour>
  </outline>
</glyph>
<glyph name="u20007" format="2">
  <advance width="1024"/>
  <unicode hex="20007"/>
  <outline>
    <contour>
      <point x="877" y="2" type="qcurve"/>
      <point x="913" y="43" type="line"/>
      <point x="920" y="50"/>
      <point x="927" y="43" type="qcurve"/>
      <point x="953" y="17"/>
      <point x="971" y="-5" type="qcurve"/>
      <point x="982" y="-19"/>
      <point x="975" y="-29" type="qcurve"/>
      <point x="970" y="-35"/>
      <point x="957" y="-36" type="qcurve"/>
      <point x="156" y="-36" type="line"/>
      <point x="114" y="-37"/>
      <point x="83" y="-43" type="qcurve"/>
      <point x="75" y="-46"/>
      <point x="72" y="-37" type="qcurve"/>
      <point x="68" y="-19"/>
      <point x="53" y="-7" type="qcurve"/>
      <point x="46" y="0"/>
      <point x="49" y="4" type="qcurve"/>
      <point x="53" y="7"/>
      <point x="60" y="3" type="qcurve"/>
      <point x="98" y="-5"/>
      <point x="144" y="-5" type="qcurve"/>
      <point x="293" y="-5" type="line"/>
      <point x="293" y="712" type="line"/>
      <point x="293" y="767"/>
      <point x="286" y="813" type="qcurve"/>
      <point x="285" y="825"/>
      <point x="289" y="826" type="qcurve"/>
      <point x="294" y="828"/>
      <point x="301" y="819" type="qcurve"/>
      <point x="311" y="806"/>
      <point x="335" y="787" type="qcurve"/>
      <point x="686" y="787" type="line"/>
      <point x="692" y="788"/>
      <point x="696" y="792" type="qcurve"/>
      <point x="719" y="818" type="line"/>
      <point x="725" y="826"/>
      <point x="732" y="820" type="qcurve"/>
      <point x="765" y="796"/>
      <point x="793" y="771" type="qcurve"/>
      <point x="802" y="763"/>
      <point x="792" y="760" type="qcurve"/>
      <point x="775" y="757"/>
      <point x="768" y="747" type="qcurve"/>
      <point x="761" y="737"/>
      <point x="761" y="718" type="qcurve"/>
      <point x="761" y="-5" type="line"/>
      <point x="865" y="-5" type="line"/>
      <point x="871" y="-5"/>
    </contour>
    <contour>
      <point x="341" y="-5" type="line"/>
      <point x="713" y="-5" type="line"/>
      <point x="713" y="368" type="line"/>
      <point x="341" y="368" type="line"/>
    </contour>
    <contour>
      <point x="341" y="399" type="line"/>
      <point x="713" y="399" type="line"/>
      <point x="713" y="756" type="line"/>
      <point x="341" y="756" type="line"/>
    </contour>
  </outline>
</glyph>
<glyph name="u20008" format="2">
  <advance width="1024"/>
  <unicode hex="20008"/>
  <outline>
    <contour>
      <point x="522" y="285" type="line"/>
      <point x="511" y="269"/>
      <point x="502" y="253" type="qcurve"/>
      <point x="494" y="239"/>
      <point x="484" y="252" type="qcurve"/>
      <point x="466" y="273"/>
      <point x="447" y="286" type="qcurve"/>
      <point x="434" y="296"/>
      <point x="443" y="300" type="qcurve"/>
      <point x="473" y="312"/>
      <point x="493" y="358" type="qcurve"/>
      <point x="560" y="506" type="line"/>
      <point x="293" y="506" type="line"/>
      <point x="293" y="3" type="line"/>
      <point x="722" y="3" type="line"/>
      <point x="722" y="285" type="line"/>
    </contour>
    <contour>
      <point x="695" y="316" type="line"/>
      <point x="707" y="316"/>
      <point x="714" y="323" type="qcurve"/>
      <point x="739" y="349" type="line"/>
      <point x="744" y="356"/>
      <point x="753" y="350" type="qcurve"/>
      <point x="784" y="327"/>
      <point x="806" y="308" type="qcurve"/>
      <point x="813" y="300"/>
      <point x="804" y="299" type="qcurve"/>
      <point x="787" y="296"/>
      <point x="778" y="287" type="qcurve"/>
      <point x="770" y="278"/>
      <point x="770" y="268" type="qcurve"/>
      <point x="770" y="3" type="line"/>
      <point x="833" y="3" type="line"/>
      <point x="847" y="4"/>
      <point x="863" y="22" type="qcurve"/>
      <point x="889" y="59" type="line"/>
      <point x="896" y="68"/>
      <point x="905" y="59" type="qcurve"/>
      <point x="976" y="-4"/>
      <point x="975" y="-19" type="qcurve"/>
      <point x="973" y="-27"/>
      <point x="960" y="-28" type="qcurve"/>
      <point x="156" y="-28" type="line"/>
      <point x="114" y="-29"/>
      <point x="83" y="-35" type="qcurve"/>
      <point x="74" y="-38"/>
      <point x="73" y="-29" type="qcurve"/>
      <point x="68" y="-11"/>
      <point x="53" y="2" type="qcurve"/>
      <point x="45" y="9"/>
      <point x="49" y="13" type="qcurve"/>
      <point x="53" y="16"/>
      <point x="60" y="12" type="qcurve"/>
      <point x="98" y="3"/>
      <point x="144" y="3" type="qcurve"/>
      <point x="245" y="3" type="line"/>
      <point x="245" y="624" type="line"/>
      <point x="245" y="679"/>
      <point x="238" y="725" type="qcurve"/>
      <point x="237" y="737"/>
      <point x="241" y="738" type="qcurve"/>
      <point x="242" y="738"/>
      <point x="290" y="696" type="qcurve"/>
      <point x="610" y="764"/>
      <point x="763" y="839" type="qcurve"/>
      <point x="775" y="846"/>
      <point x="779" y="839" type="qcurve"/>
      <point x="798" y="807"/>
      <point x="826" y="782" type="qcurve"/>
      <point x="834" y="774"/>
      <point x="831" y="768" type="qcurve"/>
      <point x="828" y="764"/>
      <point x="815" y="767" type="qcurve"/>
      <point x="768" y="776"/>
      <point x="609" y="736" type="qcurve"/>
      <point x="443" y="694"/>
      <point x="293" y="675" type="qcurve"/>
      <point x="293" y="537" type="line"/>
      <point x="540" y="537" type="line"/>
      <point x="548" y="537"/>
      <point x="554" y="543" type="qcurve"/>
      <point x="578" y="577" type="line"/>
      <point x="585" y="587"/>
      <point x="594" y="578" type="qcurve"/>
      <point x="623" y="554"/>
      <point x="651" y="524" type="qcurve"/>
      <point x="658" y="517"/>
      <point x="639" y="511" type="qcurve"/>
      <point x="608" y="498"/>
      <point x="599" y="465" type="qcurve"/>
      <point x="521" y="316" type="line"/>
    </contour>
  </outline>
</glyph>
<glyph name="u20009" format="2">
  <advance width="1024"/>
  <unicode hex="20009"/>
  <outline>
    <contour>
      <point x="847" y="4"/>
      <point x="863" y="22" type="qcurve"/>
      <point x="889" y="59" type="line"/>
      <point x="896" y="68"/>
      <point x="905" y="59" type="qcurve"/>
      <point x="976" y="-4"/>
      <point x="975" y="-19" type="qcurve"/>
      <point x="973" y="-27"/>
      <point x="960" y="-28" type="qcurve"/>
      <point x="156" y="-28" type="line"/>
      <point x="114" y="-29"/>
      <point x="83" y="-35" type="qcurve"/>
      <point x="74" y="-38"/>
      <point x="73" y="-29" type="qcurve"/>
      <point x="68" y="-11"/>
      <point x="53" y="2" type="qcurve"/>
      <point x="45" y="9"/>
      <point x="49" y="13" type="qcurve"/>
      <point x="53" y="16"/>
      <point x="60" y="12" type="qcurve"/>
      <point x="98" y="3"/>
      <point x="144" y="3" type="qcurve"/>
      <point x="245" y="3" type="line"/>
      <point x="245" y="624" type="line"/>
      <point x="245" y="679"/>
      <point x="238" y="725" type="qcurve"/>
      <point x="237" y="737"/>
      <point x="241" y="738" type="qcurve"/>
      <point x="242" y="738"/>
      <point x="290" y="696" type="qcurve"/>
      <point x="610" y="764"/>
      <point x="763" y="839" type="qcurve"/>
      <point x="775" y="846"/>
      <point x="779" y="839" type="qcurve"/>
      <point x="798" y="807"/>
      <point x="826" y="782" type="qcurve"/>
      <point x="834" y="774"/>
      <point x="831" y="768" type="qcurve"/>
      <point x="828" y="764"/>
      <point x="815" y="767" type="qcurve"/>
      <point x="768" y="776"/>
      <point x="609" y="736" type="qcurve"/>
      <point x="443" y="694"/>
      <point x="293" y="675" type="qcurve"/>
      <point x="293" y="459" type="line"/>
      <point x="769" y="459" type="line"/>
      <point x="783" y="461" type="line"/>
      <point x="795" y="473" type="line"/>
      <point x="825" y="515" type="line"/>
      <point x="832" y="524"/>
      <point x="841" y="515" type="qcurve"/>
      <point x="912" y="452"/>
      <point x="911" y="437" type="qcurve"/>
      <point x="909" y="429"/>
      <point x="896" y="428" type="qcurve"/>
      <point x="293" y="428" type="line"/>
      <point x="293" y="3" type="line"/>
      <point x="833" y="3" type="line"/>
    </contour>
  </outline>
</glyph>
<glyph name="u2000A" format="2">
  <advance width="1024"/>
  <unicode hex="2000A"/>
  <outline>
    <contour>
      <point x="259" y="368" type="qcurve"/>
      <point x="168" y="315"/>
      <point x="88" y="284" type="qcurve"/>
      <point x="67" y="272"/>
      <point x="62" y="284" type="qcurve"/>
      <point x="55" y="303"/>
      <point x="75" y="310" type="qcurve"/>
      <point x="217" y="383"/>
      <point x="298" y="444" type="qcurve"/>
      <point x="363" y="498"/>
      <point x="401" y="546" type="qcurve"/>
      <point x="433" y="594"/>
      <point x="449" y="652" type="qcurve"/>
      <point x="179" y="652" type="line"/>
      <point x="137" y="651"/>
      <point x="106" y="645" type="qcurve"/>
      <point x="97" y="642"/>
      <point x="96" y="651" type="qcurve"/>
      <point x="91" y="669"/>
      <point x="76" y="682" type="qcurve"/>
      <point x="68" y="689"/>
      <point x="72" y="693" type="qcurve"/>
      <point x="76" y="696"/>
      <point x="83" y="692" type="qcurve"/>
      <point x="121" y="683"/>
      <point x="167" y="683" type="qcurve"/>
      <point x="457" y="683" type="line"/>
      <point x="470" y="738" type="line"/>
      <point x="482" y="792"/>
      <point x="479" y="852" type="qcurve"/>
      <point x="478" y="859"/>
      <point x="482" y="862" type="qcurve"/>
      <point x="486" y="864"/>
      <point x="493" y="863" type="qcurve"/>
      <point x="538" y="851"/>
      <point x="574" y="836" type="qcurve"/>
      <point x="581" y="833"/>
      <point x="580" y="827" type="qcurve"/>
      <point x="579" y="821"/>
      <point x="561" y="821" type="qcurve"/>
      <point x="547" y="821"/>
      <point x="540" y="812" type="qcurve"/>
      <point x="533" y="807"/>
      <point x="527" y="762" type="qcurve"/>
      <point x="516" y="715"/>
      <point x="510" y="683" type="qcurve"/>
      <point x="824" y="683" type="line"/>
      <point x="838" y="684"/>
      <point x="854" y="702" type="qcurve"/>
      <point x="880" y="739" type="line"/>
      <point x="887" y="748"/>
      <point x="896" y="739" type="qcurve"/>
      <point x="967" y="676"/>
      <point x="966" y="661" type="qcurve"/>
      <point x="964" y="653"/>
      <point x="951" y="652" type="qcurve"/>
      <point x="503" y="652" type="line"/>
      <point x="495" y="626"/>
      <point x="488" y="604" type="qcurve"/>
      <point x="429" y="469"/>
    </contour>
    <contour>
      <point x="554" y="-5"/>
      <point x="538" y="-30" type="qcurve"/>
      <point x="513" y="-67"/>
      <point x="488" y="-80" type="qcurve"/>
      <point x="480" y="-87"/>
      <point x="476" y="-87" type="qcurve"/>
      <point x="473" y="-88"/>
      <point x="466" y="-67" type="qcurve"/>
      <point x="456" y="-37"/>
      <point x="446" y="-27" type="qcurve"/>
      <point x="435" y="-14"/>
      <point x="375" y="-8" type="qcurve"/>
      <point x="359" y="-7"/>
      <point x="360" y="6" type="qcurve"/>
      <point x="361" y="20"/>
      <point x="377" y="19" type="qcurve"/>
      <point x="472" y="5"/>
      <point x="493" y="14" type="qcurve"/>
      <point x="507" y="20"/>
      <point x="508" y="42" type="qcurve"/>
      <point x="508" y="362" type="line"/>
      <point x="507" y="442"/>
      <point x="504" y="491" type="qcurve"/>
      <point x="501" y="507"/>
      <point x="511" y="504" type="qcurve"/>
      <point x="568" y="484"/>
      <point x="587" y="474" type="qcurve"/>
      <point x="599" y="466"/>
      <point x="584" y="459" type="qcurve"/>
      <point x="566" y="451"/>
      <point x="562" y="442" type="qcurve"/>
      <point x="556" y="423"/>
      <point x="556" y="362" type="qcurve"/>
      <point x="556" y="32" type="line"/>
    </contour>
    <contour>
      <point x="670" y="284"/>
      <point x="677" y="291" type="qcurve"/>
      <point x="684" y="298"/>
      <point x="694" y="289" type="qcurve"/>
      <point x="886" y="146"/>
      <point x="919" y="64" type="qcurve"/>
      <point x="932" y="33"/>
      <point x="925" y="9" type="qcurve"/>
      <point x="917" y="-14"/>
      <point x="908" y="-24" type="qcurve"/>
      <point x="900" y="-33"/>
      <point x="893" y="-32" type="qcurve"/>
      <point x="886" y="-29"/>
      <point x="883" y="-16" type="qcurve"/>
      <point x="851" y="105"/>
      <point x="677" y="276" type="qcurve"/>
    </contour>
  </outline>
</glyph>
<glyph name="u2000B" format="2">
  <advance width="1024"/>
  <unicode hex="2000B"/>
  <outline>
    <contour>
      <point x="366" y="278"/>
      <point x="276" y="521" type="qcurve"/>
      <point x="272" y="535"/>
      <point x="282" y="539" type="qcurve"/>
      <point x="295" y="544"/>
      <point x="299" y="528" type="qcurve"/>
      <point x="366" y="335"/>
      <point x="480" y="208" type="qcurve"/>
      <point x="495" y="232"/>
      <point x="505" y="256" type="qcurve"/>
      <point x="552" y="374"/>
      <point x="556" y="588" type="qcurve"/>
      <point x="180" y="588" type="line"/>
      <point x="138" y="587"/>
      <point x="107" y="581" type="qcurve"/>
      <point x="98" y="578"/>
      <point x="97" y="587" type="qcurve"/>
      <point x="92" y="605"/>
      <point x="77" y="618" type="qcurve"/>
      <point x="69" y="625"/>
      <point x="73" y="629" type="qcurve"/>
      <point x="77" y="632"/>
      <point x="84" y="628" type="qcurve"/>
      <point x="122" y="619"/>
      <point x="168" y="619" type="qcurve"/>
      <point x="556" y="619" type="line"/>
      <point x="557" y="623"/>
      <point x="557" y="624" type="qcurve"/>
      <point x="557" y="713" type="line"/>
      <point x="556" y="782"/>
      <point x="552" y="846" type="qcurve"/>
      <point x="550" y="860"/>
      <point x="553" y="863" type="qcurve"/>
      <point x="556" y="866"/>
      <point x="563" y="863" type="qcurve"/>
      <point x="604" y="847"/>
      <point x="637" y="834" type="qcurve"/>
      <point x="646" y="829"/>
      <point x="646" y="825" type="qcurve"/>
      <point x="645" y="820"/>
      <point x="635" y="816" type="qcurve"/>
      <point x="609" y="805"/>
      <point x="608" y="795" type="qcurve"/>
      <point x="605" y="776"/>
      <point x="605" y="713" type="qcurve"/>
      <point x="605" y="624" type="line"/>
      <point x="604" y="622"/>
      <point x="604" y="619" type="qcurve"/>
      <point x="829" y="619" type="line"/>
      <point x="843" y="620"/>
      <point x="859" y="638" type="qcurve"/>
      <point x="885" y="675" type="line"/>
      <point x="892" y="684"/>
      <point x="901" y="675" type="qcurve"/>
      <point x="972" y="612"/>
      <point x="971" y="597" type="qcurve"/>
      <point x="969" y="589"/>
      <point x="956" y="588" type="qcurve"/>
      <point x="604" y="588" type="line"/>
      <point x="597" y="319"/>
      <point x="510" y="178" type="qcurve"/>
      <point x="548" y="142"/>
      <point x="594" y="112" type="qcurve"/>
      <point x="763" y="5"/>
      <point x="968" y="5" type="qcurve"/>
      <point x="975" y="4"/>
      <point x="975" y="-3" type="qcurve"/>
      <point x="975" y="-12"/>
      <point x="959" y="-13" type="qcurve"/>
      <point x="914" y="-18"/>
      <point x="890" y="-58" type="qcurve"/>
      <point x="886" y="-66"/>
      <point x="874" y="-60" type="qcurve"/>
      <point x="603" y="17"/>
      <point x="485" y="140" type="qcurve"/>
      <point x="361" y="-22"/>
      <point x="69" y="-77" type="qcurve"/>
      <point x="50" y="-81"/>
      <point x="49" y="-66" type="qcurve"/>
      <point x="48" y="-54"/>
      <point x="61" y="-50" type="qcurve"/>
      <point x="327" y="9"/>
      <point x="456" y="171" type="qcurve"/>
    </contour>
    <contour>
      <point x="677" y="844"/>
      <point x="681" y="851" type="qcurve"/>
      <point x="685" y="858"/>
      <point x="697" y="852" type="qcurve"/>
      <point x="822" y="811"/>
      <point x="837" y="751" type="qcurve"/>
      <point x="842" y="733"/>
      <point x="832" y="702" type="qcurve"/>
      <point x="823" y="676"/>
      <point x="813" y="675" type="qcurve"/>
      <point x="803" y="674"/>
      <point x="797" y="693" type="qcurve"/>
      <point x="759" y="785"/>
      <point x="684" y="839" type="qcurve"/>
    </contour>
  </outline>
</glyph>
<glyph name="u2000C" format="2">
  <advance width="1024"/>
  <unicode hex="2000C"/>
  <outline>
    <contour>
      <point x="813" y="687" type="line"/>
      <point x="825" y="687"/>
      <point x="829" y="691" type="qcurve"/>
      <point x="834" y="696"/>
      <point x="843" y="706" type="qcurve"/>
      <point x="869" y="743" type="line"/>
      <point x="876" y="752"/>
      <point x="885" y="743" type="qcurve"/>
      <point x="916" y="715"/>
      <point x="946" y="684" type="qcurve"/>
      <point x="956" y="674"/>
      <point x="955" y="665" type="qcurve"/>
      <point x="953" y="657"/>
      <point x="940" y="656" type="qcurve"/>
      <point x="653" y="656" type="line"/>
      <point x="653" y="-17" type="line"/>
      <point x="833" y="-17" type="line"/>
      <point x="845" y="-17"/>
      <point x="849" y="-13" type="qcurve"/>
      <point x="854" y="-8"/>
      <point x="863" y="2" type="qcurve"/>
      <point x="889" y="39" type="line"/>
      <point x="896" y="48"/>
      <point x="905" y="39" type="qcurve"/>
      <point x="936" y="11"/>
      <point x="966" y="-20" type="qcurve"/>
      <point x="976" y="-30"/>
      <point x="975" y="-39" type="qcurve"/>
      <point x="973" y="-47"/>
      <point x="960" y="-48" type="qcurve"/>
      <point x="143" y="-48" type="line"/>
      <point x="116" y="-48"/>
      <point x="82" y="-55" type="qcurve"/>
      <point x="77" y="-56"/>
      <point x="76" y="-53" type="qcurve"/>
      <point x="63" y="-33"/>
      <point x="53" y="-17" type="qcurve"/>
      <point x="47" y="-7"/>
      <point x="60" y="-10" type="qcurve"/>
      <point x="121" y="-16"/>
      <point x="128" y="-17" type="qcurve"/>
      <point x="381" y="-17" type="line"/>
      <point x="381" y="656" type="line"/>
      <point x="171" y="656" type="line"/>
      <point x="144" y="656"/>
      <point x="110" y="649" type="qcurve"/>
      <point x="105" y="648"/>
      <point x="104" y="651" type="qcurve"/>
      <point x="91" y="671"/>
      <point x="81" y="687" type="qcurve"/>
      <point x="75" y="697"/>
      <point x="88" y="694" type="qcurve"/>
      <point x="149" y="688"/>
      <point x="156" y="687" type="qcurve"/>
      <point x="354" y="687" type="line"/>
      <point x="360" y="688"/>
      <point x="364" y="692" type="qcurve"/>
      <point x="387" y="718" type="line"/>
      <point x="393" y="726"/>
      <point x="400" y="720" type="qcurve"/>
      <point x="433" y="696"/>
      <point x="461" y="671" type="qcurve"/>
      <point x="468" y="666"/>
      <point x="462" y="662" type="qcurve"/>
      <point x="433" y="643"/>
      <point x="432" y="640" type="qcurve"/>
      <point x="429" y="634"/>
      <point x="429" y="618" type="qcurve"/>
      <point x="429" y="-17" type="line"/>
      <point x="605" y="-17" type="line"/>
      <point x="605" y="608" type="line"/>
      <point x="605" y="663"/>
      <point x="598" y="709" type="qcurve"/>
      <point x="597" y="721"/>
      <point x="601" y="722" type="qcurve"/>
      <point x="606" y="724"/>
      <point x="613" y="715" type="qcurve"/>
      <point x="623" y="703"/>
      <point x="642" y="687" type="qcurve"/>
    </contour>
  </outline>
</glyph>
<glyph name="u2000D" format="2">
  <advance width="1024"/>
  <unicode hex="2000D"/>
  <outline>
    <contour>
      <point x="715" y="3" type="line"/>
      <point x="715" y="528" type="line"/>
      <point x="499" y="528" type="line"/>
      <point x="499" y="3" type="line"/>
    </contour>
    <contour>
      <point x="451" y="3" type="line"/>
      <point x="451" y="528" type="line"/>
      <point x="255" y="528" type="line"/>
      <point x="255" y="3" type="line"/>
    </contour>
    <contour>
      <point x="763" y="3" type="line"/>
      <point x="827" y="3" type="line"/>
      <point x="841" y="5" type="line"/>
      <point x="853" y="17" type="line"/>
      <point x="883" y="59" type="line"/>
      <point x="890" y="68"/>
      <point x="899" y="59" type="qcurve"/>
      <point x="970" y="-4"/>
      <point x="969" y="-19" type="qcurve"/>
      <point x="967" y="-27"/>
      <point x="954" y="-28" type="qcurve"/>
      <point x="267" y="-28" type="line"/>
      <point x="246" y="-44"/>
      <point x="239" y="-62" type="qcurve"/>
      <point x="236" y="-70"/>
      <point x="229" y="-66" type="qcurve"/>
      <point x="204" y="-43"/>
      <point x="188" y="-36" type="qcurve"/>
      <point x="178" y="-31"/>
      <point x="187" y="-22" type="qcurve"/>
      <point x="204" y="-3"/>
      <point x="207" y="24" type="qcurve"/>
      <point x="207" y="528" type="line"/>
      <point x="150" y="528" type="line"/>
      <point x="108" y="527"/>
      <point x="77" y="521" type="qcurve"/>
      <point x="68" y="518"/>
      <point x="67" y="527" type="qcurve"/>
      <point x="62" y="545"/>
      <point x="47" y="558" type="qcurve"/>
      <point x="39" y="565"/>
      <point x="43" y="569" type="qcurve"/>
      <point x="47" y="572"/>
      <point x="54" y="568" type="qcurve"/>
      <point x="92" y="559"/>
      <point x="138" y="559" type="qcurve"/>
      <point x="207" y="559" type="line"/>
      <point x="207" y="638" type="line"/>
      <point x="206" y="717"/>
      <point x="202" y="765" type="qcurve"/>
      <point x="201" y="782"/>
      <point x="213" y="778" type="qcurve"/>
      <point x="266" y="759"/>
      <point x="285" y="749" type="qcurve"/>
      <point x="299" y="741"/>
      <point x="286" y="735" type="qcurve"/>
      <point x="267" y="727"/>
      <point x="261" y="715" type="qcurve"/>
      <point x="255" y="696"/>
      <point x="255" y="638" type="qcurve"/>
      <point x="255" y="559" type="line"/>
      <point x="451" y="559" type="line"/>
      <point x="451" y="694" type="line"/>
      <point x="450" y="774"/>
      <point x="446" y="822" type="qcurve"/>
      <point x="444" y="839"/>
      <point x="456" y="835" type="qcurve"/>
      <point x="510" y="818"/>
      <point x="528" y="808" type="qcurve"/>
      <point x="542" y="801"/>
      <point x="526" y="792" type="qcurve"/>
      <point x="510" y="784"/>
      <point x="506" y="774" type="qcurve"/>
      <point x="499" y="755"/>
      <point x="499" y="694" type="qcurve"/>
      <point x="499" y="559" type="line"/>
      <point x="715" y="559" type="line"/>
      <point x="715" y="690" type="line"/>
      <point x="714" y="770"/>
      <point x="710" y="818" type="qcurve"/>
      <point x="708" y="835"/>
      <point x="720" y="831" type="qcurve"/>
      <point x="774" y="814"/>
      <point x="792" y="804" type="qcurve"/>
      <point x="806" y="797"/>
      <point x="790" y="788" type="qcurve"/>
      <point x="774" y="780"/>
      <point x="770" y="770" type="qcurve"/>
      <point x="763" y="751"/>
      <point x="763" y="690" type="qcurve"/>
      <point x="763" y="559" type="line"/>
      <point x="839" y="559" type="line"/>
      <point x="853" y="560"/>
      <point x="869" y="578" type="qcurve"/>
      <point x="895" y="615" type="line"/>
      <point x="902" y="624"/>
      <point x="911" y="615" type="qcurve"/>
      <point x="982" y="552"/>
      <point x="981" y="537" type="qcurve"/>
      <point x="979" y="529"/>
      <point x="966" y="528" type="qcurve"/>
      <point x="763" y="528" type="line"/>
    </contour>
  </outline>
</glyph>
<glyph name="u2000E" format="2">
  <advance width="1024"/>
  <unicode hex="2000E"/>
  <outline>
    <contour>
      <point x="679" y="-44" type="line"/>
      <point x="823" y="-44" type="line"/>
      <point x="837" y="-43"/>
      <point x="853" y="-25" type="qcurve"/>
      <point x="879" y="12" type="line"/>
      <point x="886" y="21"/>
      <point x="895" y="12" type="qcurve"/>
      <point x="966" y="-51"/>
      <point x="965" y="-66" type="qcurve"/>
      <point x="963" y="-74"/>
      <point x="950" y="-75" type="qcurve"/>
      <point x="166" y="-75" type="line"/>
      <point x="124" y="-76"/>
      <point x="93" y="-82" type="qcurve"/>
      <point x="84" y="-85"/>
      <point x="83" y="-76" type="qcurve"/>
      <point x="78" y="-58"/>
      <point x="63" y="-45" type="qcurve"/>
      <point x="55" y="-38"/>
      <point x="59" y="-34" type="qcurve"/>
      <point x="63" y="-31"/>
      <point x="70" y="-35" type="qcurve"/>
      <point x="108" y="-44"/>
      <point x="154" y="-44" type="qcurve"/>
      <point x="339" y="-44" type="line"/>
      <point x="339" y="280" type="line"/>
      <point x="214" y="280" type="line"/>
      <point x="172" y="279"/>
      <point x="141" y="273" type="qcurve"/>
      <point x="132" y="270"/>
      <point x="131" y="279" type="qcurve"/>
      <point x="126" y="297"/>
      <point x="111" y="310" type="qcurve"/>
      <point x="103" y="317"/>
      <point x="107" y="321" type="qcurve"/>
      <point x="111" y="324"/>
      <point x="118" y="320" type="qcurve"/>
      <point x="156" y="311"/>
      <point x="202" y="311" type="qcurve"/>
      <point x="339" y="311" type="line"/>
      <point x="339" y="580" type="line"/>
      <point x="214" y="580" type="line"/>
      <point x="172" y="579"/>
      <point x="141" y="573" type="qcurve"/>
      <point x="132" y="570"/>
      <point x="131" y="579" type="qcurve"/>
      <point x="126" y="597"/>
      <point x="111" y="610" type="qcurve"/>
      <point x="103" y="617"/>
      <point x="107" y="621" type="qcurve"/>
      <point x="111" y="624"/>
      <point x="118" y="620" type="qcurve"/>
      <point x="156" y="611"/>
      <point x="202" y="611" type="qcurve"/>
      <point x="339" y="611" type="line"/>
      <point x="339" y="746" type="line"/>
      <point x="338" y="785"/>
      <point x="335" y="816" type="qcurve"/>
      <point x="334" y="832"/>
      <point x="344" y="829" type="qcurve"/>
      <point x="397" y="812"/>
      <point x="415" y="803" type="qcurve"/>
      <point x="429" y="794"/>
      <point x="413" y="787" type="qcurve"/>
      <point x="398" y="779"/>
      <point x="394" y="769" type="qcurve"/>
      <point x="387" y="756"/>
      <point x="387" y="746" type="qcurve"/>
      <point x="387" y="611" type="line"/>
      <point x="631" y="611" type="line"/>
      <point x="631" y="746" type="line"/>
      <point x="630" y="785"/>
      <point x="627" y="816" type="qcurve"/>
      <point x="626" y="832"/>
      <point x="636" y="829" type="qcurve"/>
      <point x="689" y="812"/>
      <point x="707" y="803" type="qcurve"/>
      <point x="721" y="794"/>
      <point x="705" y="787" type="qcurve"/>
      <point x="690" y="779"/>
      <point x="686" y="769" type="qcurve"/>
      <point x="679" y="756"/>
      <point x="679" y="746" type="qcurve"/>
      <point x="679" y="611" type="line"/>
      <point x="775" y="611" type="line"/>
      <point x="789" y="612"/>
      <point x="805" y="630" type="qcurve"/>
      <point x="831" y="667" type="line"/>
      <point x="838" y="676"/>
      <point x="847" y="667" type="qcurve"/>
      <point x="918" y="604"/>
      <point x="917" y="589" type="qcurve"/>
      <point x="915" y="581"/>
      <point x="902" y="580" type="qcurve"/>
      <point x="679" y="580" type="line"/>
      <point x="679" y="311" type="line"/>
      <point x="775" y="311" type="line"/>
      <point x="789" y="312"/>
      <point x="805" y="330" type="qcurve"/>
      <point x="831" y="367" type="line"/>
      <point x="838" y="376"/>
      <point x="847" y="367" type="qcurve"/>
      <point x="918" y="304"/>
      <point x="917" y="289" type="qcurve"/>
      <point x="915" y="281"/>
      <point x="902" y="280" type="qcurve"/>
      <point x="679" y="280" type="line"/>
    </contour>
    <contour>
      <point x="387" y="311" type="line"/>
      <point x="631" y="311" type="line"/>
      <point x="631" y="580" type="line"/>
      <point x="387" y="580" type="line"/>
    </contour>
    <contour>
      <point x="387" y="-44" type="line"/>
      <point x="631" y="-44" type="line"/>
      <point x="631" y="280" type="line"/>
      <point x="387" y="280" type="line"/>
    </contour>
  </outline>
</glyph>
<glyph name="u2000F" format="2">
  <advance width="1024"/>
  <unicode hex="2000F"/>
  <outline>
    <contour>
      <point x="829" y="-34"/>
      <point x="845" y="-16" type="qcurve"/>
      <point x="871" y="21" type="line"/>
      <point x="878" y="30"/>
      <point x="887" y="21" type="qcurve"/>
      <point x="958" y="-42"/>
      <point x="957" y="-57" type="qcurve"/>
      <point x="955" y="-65"/>
      <point x="942" y="-66" type="qcurve"/>
      <point x="174" y="-66" type="line"/>
      <point x="132" y="-67"/>
      <point x="101" y="-73" type="qcurve"/>
      <point x="92" y="-76"/>
      <point x="91" y="-67" type="qcurve"/>
      <point x="86" y="-49"/>
      <point x="71" y="-36" type="qcurve"/>
      <point x="63" y="-29"/>
      <point x="67" y="-25" type="qcurve"/>
      <point x="71" y="-22"/>
      <point x="78" y="-26" type="qcurve"/>
      <point x="116" y="-35"/>
      <point x="162" y="-35" type="qcurve"/>
      <point x="815" y="-35" type="line"/>
    </contour>
    <contour>
      <point x="513" y="92" type="line"/>
      <point x="493" y="92"/>
      <point x="477" y="108" type="qcurve"/>
      <point x="461" y="123"/>
      <point x="461" y="166" type="qcurve"/>
      <point x="461" y="356" type="line"/>
      <point x="253" y="356" type="line"/>
      <point x="232" y="340"/>
      <point x="225" y="322" type="qcurve"/>
      <point x="222" y="314"/>
      <point x="215" y="318" type="qcurve"/>
      <point x="190" y="341"/>
      <point x="174" y="348" type="qcurve"/>
      <point x="164" y="353"/>
      <point x="173" y="362" type="qcurve"/>
      <point x="184" y="374"/>
      <point x="188" y="381" type="qcurve"/>
      <point x="192" y="389"/>
      <point x="193" y="408" type="qcurve"/>
      <point x="193" y="524" type="line"/>
      <point x="192" y="575"/>
      <point x="188" y="606" type="qcurve"/>
      <point x="187" y="623"/>
      <point x="197" y="619" type="qcurve"/>
      <point x="253" y="599"/>
      <point x="271" y="589" type="qcurve"/>
      <point x="284" y="580"/>
      <point x="277" y="576" type="qcurve"/>
      <point x="247" y="557"/>
      <point x="244" y="554" type="qcurve"/>
      <point x="241" y="549"/>
      <point x="241" y="524" type="qcurve"/>
      <point x="241" y="387" type="line"/>
      <point x="461" y="387" type="line"/>
      <point x="461" y="676" type="line"/>
      <point x="167" y="676" type="line"/>
      <point x="140" y="676"/>
      <point x="106" y="669" type="qcurve"/>
      <point x="101" y="668"/>
      <point x="100" y="671" type="qcurve"/>
      <point x="87" y="691"/>
      <point x="77" y="707" type="qcurve"/>
      <point x="71" y="717"/>
      <point x="84" y="714" type="qcurve"/>
      <point x="145" y="708"/>
      <point x="152" y="707" type="qcurve"/>
      <point x="461" y="707" type="line"/>
      <point x="461" y="786" type="line"/>
      <point x="460" y="825"/>
      <point x="457" y="856" type="qcurve"/>
      <point x="456" y="872"/>
      <point x="466" y="869" type="qcurve"/>
      <point x="520" y="852"/>
      <point x="542" y="840" type="qcurve"/>
      <point x="551" y="835"/>
      <point x="542" y="829" type="qcurve"/>
      <point x="520" y="813"/>
      <point x="516" y="809" type="qcurve"/>
      <point x="509" y="802"/>
      <point x="509" y="786" type="qcurve"/>
      <point x="509" y="707" type="line"/>
      <point x="773" y="707" type="line"/>
      <point x="785" y="707"/>
      <point x="789" y="711" type="qcurve"/>
      <point x="794" y="716"/>
      <point x="803" y="726" type="qcurve"/>
      <point x="829" y="763" type="line"/>
      <point x="836" y="772"/>
      <point x="845" y="763" type="qcurve"/>
      <point x="876" y="735"/>
      <point x="906" y="704" type="qcurve"/>
      <point x="916" y="694"/>
      <point x="915" y="685" type="qcurve"/>
      <point x="913" y="677"/>
      <point x="900" y="676" type="qcurve"/>
      <point x="509" y="676" type="line"/>
      <point x="509" y="387" type="line"/>
      <point x="713" y="387" type="line"/>
      <point x="713" y="534" type="line"/>
      <point x="712" y="573"/>
      <point x="709" y="604" type="qcurve"/>
      <point x="708" y="620"/>
      <point x="718" y="617" type="qcurve"/>
      <point x="772" y="600"/>
      <point x="794" y="588" type="qcurve"/>
      <point x="803" y="583"/>
      <point x="794" y="577" type="qcurve"/>
      <point x="772" y="561"/>
      <point x="768" y="557" type="qcurve"/>
      <point x="761" y="550"/>
      <point x="761" y="534" type="qcurve"/>
      <point x="761" y="348" type="line"/>
      <point x="760" y="326"/>
      <point x="753" y="323" type="qcurve"/>
      <point x="742" y="319"/>
      <point x="726" y="313" type="qcurve"/>
      <point x="712" y="307"/>
      <point x="713" y="320" type="qcurve"/>
      <point x="713" y="356" type="line"/>
      <point x="509" y="356" type="line"/>
      <point x="509" y="177" type="line"/>
      <point x="510" y="156"/>
      <point x="517" y="149" type="qcurve"/>
      <point x="525" y="140"/>
      <point x="538" y="140" type="qcurve"/>
      <point x="824" y="140" type="line"/>
      <point x="841" y="140"/>
      <point x="850" y="146" type="qcurve"/>
      <point x="860" y="153"/>
      <point x="869" y="175" type="qcurve"/>
      <point x="886" y="219"/>
      <point x="904" y="318" type="qcurve"/>
      <point x="906" y="330"/>
      <point x="916" y="329" type="qcurve"/>
      <point x="925" y="327"/>
      <point x="924" y="317" type="qcurve"/>
      <point x="913" y="229"/>
      <point x="920" y="189" type="qcurve"/>
      <point x="924" y="167"/>
      <point x="936" y="160" type="qcurve"/>
      <point x="939" y="156"/>
      <point x="938" y="152" type="qcurve"/>
      <point x="927" y="122"/>
      <point x="909" y="109" type="qcurve"/>
      <point x="887" y="92"/>
      <point x="853" y="92" type="qcurve"/>
    </contour>
  </outline>
</glyph>
<glyph name="u20010" format="2">
  <advance width="1024"/>
  <unicode hex="20010"/>
  <outline>
    <contour>
      <point x="459" y="722" type="line"/>
      <point x="458" y="802"/>
      <point x="454" y="850" type="qcurve"/>
      <point x="452" y="867"/>
      <point x="464" y="863" type="qcurve"/>
      <point x="518" y="846"/>
      <point x="536" y="836" type="qcurve"/>
      <point x="550" y="829"/>
      <point x="534" y="820" type="qcurve"/>
      <point x="518" y="812"/>
      <point x="514" y="802" type="qcurve"/>
      <point x="507" y="783"/>
      <point x="507" y="722" type="qcurve"/>
      <point x="507" y="655" type="line"/>
      <point x="780" y="655" type="line"/>
      <point x="792" y="655"/>
      <point x="799" y="662" type="qcurve"/>
      <point x="824" y="688" type="line"/>
      <point x="829" y="695"/>
      <point x="838" y="689" type="qcurve"/>
      <point x="869" y="666"/>
      <point x="891" y="647" type="qcurve"/>
      <point x="898" y="639"/>
      <point x="889" y="638" type="qcurve"/>
      <point x="872" y="635"/>
      <point x="863" y="626" type="qcurve"/>
      <point x="855" y="617"/>
      <point x="855" y="607" type="qcurve"/>
      <point x="855" y="455" type="line"/>
      <point x="856" y="387"/>
      <point x="863" y="288" type="qcurve"/>
      <point x="863" y="275"/>
      <point x="853" y="269" type="qcurve"/>
      <point x="808" y="243"/>
      <point x="804" y="244" type="qcurve"/>
      <point x="800" y="246"/>
      <point x="801" y="262" type="qcurve"/>
      <point x="803" y="291"/>
      <point x="804" y="328" type="qcurve"/>
      <point x="507" y="328" type="line"/>
      <point x="507" y="251" type="line"/>
      <point x="507" y="134"/>
      <point x="511" y="55" type="qcurve"/>
      <point x="512" y="47"/>
      <point x="506" y="43" type="qcurve"/>
      <point x="464" y="16" type="line"/>
      <point x="451" y="6"/>
      <point x="452" y="27" type="qcurve"/>
      <point x="458" y="160"/>
      <point x="459" y="251" type="qcurve"/>
      <point x="459" y="328" type="line"/>
      <point x="166" y="328" type="line"/>
      <point x="166" y="301"/>
      <point x="167" y="279" type="qcurve"/>
      <point x="166" y="264"/>
      <point x="129" y="239" type="qcurve"/>
      <point x="121" y="235"/>
      <point x="117" y="235" type="qcurve"/>
      <point x="111" y="236"/>
      <point x="112" y="255" type="qcurve"/>
      <point x="116" y="355"/>
      <point x="119" y="461" type="qcurve"/>
      <point x="119" y="597" type="line"/>
      <point x="118" y="629"/>
      <point x="112" y="675" type="qcurve"/>
      <point x="110" y="685"/>
      <point x="113" y="686" type="qcurve"/>
      <point x="114" y="686"/>
      <point x="153" y="655" type="qcurve"/>
      <point x="459" y="655" type="line"/>
    </contour>
    <contour>
      <point x="459" y="624" type="line"/>
      <point x="167" y="624" type="line"/>
      <point x="167" y="461" type="line"/>
      <point x="166" y="405"/>
      <point x="166" y="359" type="qcurve"/>
      <point x="459" y="359" type="line"/>
    </contour>
    <contour>
      <point x="507" y="359" type="line"/>
      <point x="805" y="359" type="line"/>
      <point x="806" y="390"/>
      <point x="807" y="426" type="qcurve"/>
      <point x="807" y="624" type="line"/>
      <point x="507" y="624" type="line"/>
    </contour>
    <contour>
      <point x="829" y="-4"/>
      <point x="845" y="14" type="qcurve"/>
      <point x="871" y="51" type="line"/>
      <point x="878" y="60"/>
      <point x="887" y="51" type="qcurve"/>
      <point x="958" y="-12"/>
      <point x="957" y="-27" type="qcurve"/>
      <point x="955" y="-35"/>
      <point x="942" y="-36" type="qcurve"/>
      <point x="174" y="-36" type="line"/>
      <point x="132" y="-37"/>
      <point x="101" y="-43" type="qcurve"/>
      <point x="92" y="-46"/>
      <point x="91" y="-37" type="qcurve"/>
      <point x="86" y="-19"/>
      <point x="71" y="-6" type="qcurve"/>
      <point x="63" y="1"/>
      <point x="67" y="5" type="qcurve"/>
      <point x="71" y="8"/>
      <point x="78" y="4" type="qcurve"/>
      <point x="116" y="-5"/>
      <point x="162" y="-5" type="qcurve"/>
      <point x="815" y="-5" type="line"/>
    </contour>
  </outline>
</glyph>
<glyph name="u20012" format="2">
  <advance width="1024"/>
  <unicode hex="20012"/>
  <outline>
    <contour>
      <point x="165" y="776" type="line"/>
      <point x="138" y="776"/>
      <point x="104" y="769" type="qcurve"/>
      <point x="99" y="768"/>
      <point x="98" y="771" type="qcurve"/>
      <point x="85" y="791"/>
      <point x="75" y="807" type="qcurve"/>
      <point x="69" y="817"/>
      <point x="82" y="814" type="qcurve"/>
      <point x="143" y="808"/>
      <point x="150" y="807" type="qcurve"/>
      <point x="807" y="807" type="line"/>
      <point x="819" y="807"/>
      <point x="823" y="811" type="qcurve"/>
      <point x="828" y="816"/>
      <point x="837" y="826" type="qcurve"/>
      <point x="863" y="863" type="line"/>
      <point x="870" y="872"/>
      <point x="879" y="863" type="qcurve"/>
      <point x="910" y="835"/>
      <point x="940" y="804" type="qcurve"/>
      <point x="950" y="794"/>
      <point x="949" y="785" type="qcurve"/>
      <point x="947" y="777"/>
      <point x="934" y="776" type="qcurve"/>
    </contour>
    <contour>
      <point x="611" y="723" type="qcurve"/>
      <point x="615" y="729"/>
      <point x="627" y="726" type="qcurve"/>
      <point x="800" y="658"/>
      <point x="832" y="598" type="qcurve"/>
      <point x="840" y="579"/>
      <point x="834" y="547" type="qcurve"/>
      <point x="830" y="521"/>
      <point x="819" y="518" type="qcurve"/>
      <point x="808" y="517"/>
      <point x="801" y="534" type="qcurve"/>
      <point x="739" y="625"/>
      <point x="615" y="711" type="qcurve"/>
      <point x="609" y="716"/>
    </contour>
    <contour>
      <point x="829" y="469" type="line"/>
      <point x="843" y="470"/>
      <point x="859" y="488" type="qcurve"/>
      <point x="885" y="525" type="line"/>
      <point x="892" y="534"/>
      <point x="901" y="525" type="qcurve"/>
      <point x="972" y="462"/>
      <point x="971" y="447" type="qcurve"/>
      <point x="969" y="439"/>
      <point x="956" y="438" type="qcurve"/>
      <point x="380" y="438" type="line"/>
      <point x="352" y="353"/>
      <point x="325" y="289" type="qcurve"/>
      <point x="715" y="289" type="line"/>
      <point x="726" y="290"/>
      <point x="730" y="294" type="qcurve"/>
      <point x="753" y="326" type="line"/>
      <point x="759" y="336"/>
      <point x="768" y="326" type="qcurve"/>
      <point x="805" y="294"/>
      <point x="827" y="272" type="qcurve"/>
      <point x="833" y="265"/>
      <point x="824" y="261" type="qcurve"/>
      <point x="808" y="256"/>
      <point x="801" y="250" type="qcurve"/>
      <point x="788" y="247"/>
      <point x="779" y="169" type="qcurve"/>
      <point x="770" y="71" type="line"/>
      <point x="753" y="-9"/>
      <point x="726" y="-39" type="qcurve"/>
      <point x="694" y="-75"/>
      <point x="651" y="-93" type="qcurve"/>
      <point x="643" y="-97"/>
      <point x="642" y="-91" type="qcurve"/>
      <point x="632" y="-46"/>
      <point x="539" y="-34" type="qcurve"/>
      <point x="524" y="-32"/>
      <point x="525" y="-22" type="qcurve"/>
      <point x="527" y="-12"/>
      <point x="539" y="-15" type="qcurve"/>
      <point x="668" y="-26"/>
      <point x="684" y="-8" type="qcurve"/>
      <point x="700" y="6"/>
      <point x="709" y="34" type="qcurve"/>
      <point x="722" y="82"/>
      <point x="729" y="132" type="qcurve"/>
      <point x="738" y="191"/>
      <point x="745" y="258" type="qcurve"/>
      <point x="315" y="258" type="line"/>
      <point x="309" y="251"/>
      <point x="308" y="247" type="qcurve"/>
      <point x="304" y="239"/>
      <point x="298" y="245" type="qcurve"/>
      <point x="283" y="263"/>
      <point x="255" y="276" type="qcurve"/>
      <point x="247" y="280"/>
      <point x="254" y="286" type="qcurve"/>
      <point x="273" y="302"/>
      <point x="280" y="311" type="qcurve"/>
      <point x="308" y="374"/>
      <point x="332" y="438" type="qcurve"/>
      <point x="160" y="438" type="line"/>
      <point x="118" y="437"/>
      <point x="87" y="431" type="qcurve"/>
      <point x="78" y="428"/>
      <point x="77" y="437" type="qcurve"/>
      <point x="72" y="455"/>
      <point x="57" y="468" type="qcurve"/>
      <point x="49" y="475"/>
      <point x="53" y="479" type="qcurve"/>
      <point x="57" y="482"/>
      <point x="64" y="478" type="qcurve"/>
      <point x="102" y="469"/>
      <point x="148" y="469" type="qcurve"/>
    </contour>
    <contour>
      <point x="364" y="724"/>
      <point x="371" y="720" type="qcurve"/>
      <point x="411" y="697"/>
      <point x="439" y="675" type="qcurve"/>
      <point x="448" y="669"/>
      <point x="445" y="665" type="qcurve"/>
      <point x="440" y="659"/>
      <point x="427" y="660" type="qcurve"/>
      <point x="423" y="661"/>
      <point x="422" y="660" type="qcurve"/>
      <point x="406" y="659"/>
      <point x="330" y="613" type="qcurve"/>
      <point x="227" y="545"/>
      <point x="146" y="501" type="qcurve"/>
      <point x="134" y="495"/>
      <point x="130" y="502" type="qcurve"/>
      <point x="126" y="510"/>
      <point x="135" y="516" type="qcurve"/>
      <point x="282" y="608"/>
      <point x="359" y="714" type="qcurve"/>
    </contour>
  </outline>
</glyph>
<glyph name="u20013" format="2">
  <advance width="1024"/>
  <unicode hex="20013"/>
  <outline>
    <contour>
      <point x="823" y="875"/>
      <point x="835" y="871" type="qcurve"/>
      <point x="889" y="854"/>
      <point x="907" y="844" type="qcurve"/>
      <point x="921" y="837"/>
      <point x="905" y="828" type="qcurve"/>
      <point x="889" y="820"/>
      <point x="885" y="810" type="qcurve"/>
      <point x="878" y="791"/>
      <point x="878" y="730" type="qcurve"/>
      <point x="878" y="263" type="line"/>
      <point x="878" y="186"/>
      <point x="882" y="107" type="qcurve"/>
      <point x="883" y="99"/>
      <point x="877" y="95" type="qcurve"/>
      <point x="835" y="68" type="line"/>
      <point x="822" y="58"/>
      <point x="823" y="79" type="qcurve"/>
      <point x="829" y="212"/>
      <point x="830" y="263" type="qcurve"/>
      <point x="830" y="730" type="line"/>
      <point x="829" y="810"/>
      <point x="825" y="858" type="qcurve"/>
    </contour>
    <contour>
      <point x="494" y="807" type="line"/>
      <point x="500" y="807"/>
      <point x="503" y="811" type="qcurve"/>
      <point x="521" y="839" type="line"/>
      <point x="528" y="847"/>
      <point x="535" y="840" type="qcurve"/>
      <point x="564" y="821"/>
      <point x="592" y="799" type="qcurve"/>
      <point x="598" y="793"/>
      <point x="597" y="787" type="qcurve"/>
      <point x="594" y="781"/>
      <point x="584" y="780" type="qcurve"/>
      <point x="572" y="778"/>
      <point x="566" y="768" type="qcurve"/>
      <point x="562" y="759"/>
      <point x="562" y="746" type="qcurve"/>
      <point x="562" y="680" type="line"/>
      <point x="562" y="648"/>
      <point x="568" y="593" type="qcurve"/>
      <point x="570" y="581"/>
      <point x="561" y="577" type="qcurve"/>
      <point x="526" y="557"/>
      <point x="519" y="557" type="qcurve"/>
      <point x="514" y="558"/>
      <point x="514" y="568" type="qcurve"/>
      <point x="514" y="602" type="line"/>
      <point x="253" y="602" type="line"/>
      <point x="207" y="449" type="line"/>
      <point x="506" y="449" type="line"/>
      <point x="517" y="450"/>
      <point x="521" y="454" type="qcurve"/>
      <point x="544" y="486" type="line"/>
      <point x="550" y="496"/>
      <point x="559" y="486" type="qcurve"/>
      <point x="596" y="450"/>
      <point x="617" y="425" type="qcurve"/>
      <point x="622" y="416"/>
      <point x="613" y="415" type="qcurve"/>
      <point x="592" y="410"/>
      <point x="583" y="403" type="qcurve"/>
      <point x="579" y="399"/>
      <point x="549" y="275" type="qcurve"/>
      <point x="532" y="223"/>
      <point x="516" y="171" type="qcurve"/>
      <point x="491" y="96"/>
      <point x="409" y="68" type="qcurve"/>
      <point x="400" y="63"/>
      <point x="399" y="69" type="qcurve"/>
      <point x="393" y="95"/>
      <point x="377" y="107" type="qcurve"/>
      <point x="359" y="120"/>
      <point x="290" y="129" type="qcurve"/>
      <point x="275" y="131"/>
      <point x="276" y="141" type="qcurve"/>
      <point x="278" y="151"/>
      <point x="290" y="148" type="qcurve"/>
      <point x="427" y="132"/>
      <point x="445" y="153" type="qcurve"/>
      <point x="458" y="163"/>
      <point x="468" y="182" type="qcurve"/>
      <point x="482" y="216"/>
      <point x="501" y="272" type="qcurve"/>
      <point x="523" y="355"/>
      <point x="536" y="418" type="qcurve"/>
      <point x="204" y="418" type="line"/>
      <point x="183" y="392" type="line"/>
      <point x="178" y="385"/>
      <point x="171" y="392" type="qcurve"/>
      <point x="155" y="407"/>
      <point x="134" y="423" type="qcurve"/>
      <point x="126" y="430"/>
      <point x="135" y="434" type="qcurve"/>
      <point x="161" y="450"/>
      <point x="167" y="477" type="qcurve"/>
      <point x="200" y="576" type="line"/>
      <point x="208" y="611"/>
      <point x="211" y="653" type="qcurve"/>
      <point x="212" y="667"/>
      <point x="216" y="668" type="qcurve"/>
      <point x="220" y="669"/>
      <point x="226" y="660" type="qcurve"/>
      <point x="237" y="646"/>
      <point x="250" y="633" type="qcurve"/>
      <point x="514" y="633" type="line"/>
      <point x="514" y="776" type="line"/>
      <point x="217" y="776" type="line"/>
      <point x="175" y="775"/>
      <point x="144" y="769" type="qcurve"/>
      <point x="135" y="766"/>
      <point x="134" y="775" type="qcurve"/>
      <point x="129" y="793"/>
      <point x="114" y="806" type="qcurve"/>
      <point x="106" y="813"/>
      <point x="110" y="817" type="qcurve"/>
      <point x="114" y="820"/>
      <point x="121" y="816" type="qcurve"/>
      <point x="159" y="807"/>
      <point x="205" y="807" type="qcurve"/>
    </contour>
    <contour>
      <point x="829" y="-34"/>
      <point x="845" y="-16" type="qcurve"/>
      <point x="871" y="21" type="line"/>
      <point x="878" y="30"/>
      <point x="887" y="21" type="qcurve"/>
      <point x="958" y="-42"/>
      <point x="957" y="-57" type="qcurve"/>
      <point x="955" y="-65"/>
      <point x="942" y="-66" type="qcurve"/>
      <point x="174" y="-66" type="line"/>
      <point x="132" y="-67"/>
      <point x="101" y="-73" type="qcurve"/>
      <point x="92" y="-76"/>
      <point x="91" y="-67" type="qcurve"/>
      <point x="86" y="-49"/>
      <point x="71" y="-36" type="qcurve"/>
      <point x="63" y="-29"/>
      <point x="67" y="-25" type="qcurve"/>
      <point x="71" y="-22"/>
      <point x="78" y="-26" type="qcurve"/>
      <point x="116" y="-35"/>
      <point x="162" y="-35" type="qcurve"/>
      <point x="815" y="-35" type="line"/>
    </contour>
  </outline>
</glyph>
<glyph name="u20014" format="2">
  <advance width="1024"/>
  <unicode hex="20014"/>
  <outline>
    <contour>
      <point x="833" y="94"/>
      <point x="894" y="18" type="qcurve"/>
      <point x="914" y="-9"/>
      <point x="913" y="-34" type="qcurve"/>
      <point x="910" y="-58"/>
      <point x="906" y="-70" type="qcurve"/>
      <point x="902" y="-80"/>
      <point x="893" y="-81" type="qcurve"/>
      <point x="886" y="-82"/>
      <point x="879" y="-69" type="qcurve"/>
      <point x="815" y="44"/>
      <point x="602" y="161" type="qcurve"/>
      <point x="541" y="104"/>
      <point x="489" y="70" type="qcurve"/>
      <point x="363" y="-12"/>
      <point x="122" y="-82" type="qcurve"/>
      <point x="97" y="-90"/>
      <point x="94" y="-77" type="qcurve"/>
      <point x="90" y="-61"/>
      <point x="105" y="-57" type="qcurve"/>
      <point x="288" y="0"/>
      <point x="388" y="57" type="qcurve"/>
      <point x="488" y="115"/>
      <point x="599" y="227" type="qcurve"/>
      <point x="710" y="340"/>
      <point x="758" y="421" type="qcurve"/>
      <point x="762" y="431"/>
      <point x="766" y="431" type="qcurve"/>
      <point x="770" y="432"/>
      <point x="774" y="428" type="qcurve"/>
      <point x="798" y="403"/>
      <point x="829" y="369" type="qcurve"/>
      <point x="836" y="361"/>
      <point x="833" y="357" type="qcurve"/>
      <point x="829" y="353"/>
      <point x="817" y="357" type="qcurve"/>
      <point x="805" y="364"/>
      <point x="789" y="358" type="qcurve"/>
      <point x="775" y="354"/>
      <point x="741" y="311" type="qcurve"/>
      <point x="676" y="235"/>
      <point x="618" y="177" type="qcurve"/>
    </contour>
    <contour>
      <point x="365" y="441"/>
      <point x="441" y="447" type="qcurve"/>
      <point x="502" y="452"/>
      <point x="548" y="453" type="qcurve"/>
      <point x="608" y="532"/>
      <point x="636" y="590" type="qcurve"/>
      <point x="639" y="600"/>
      <point x="642" y="601" type="qcurve"/>
      <point x="647" y="602"/>
      <point x="651" y="598" type="qcurve"/>
      <point x="677" y="575"/>
      <point x="711" y="544" type="qcurve"/>
      <point x="717" y="536"/>
      <point x="716" y="532" type="qcurve"/>
      <point x="713" y="528"/>
      <point x="700" y="532" type="qcurve"/>
      <point x="672" y="542"/>
      <point x="633" y="485" type="qcurve"/>
      <point x="521" y="324"/>
      <point x="430" y="254" type="qcurve"/>
      <point x="326" y="173"/>
      <point x="119" y="92" type="qcurve"/>
      <point x="94" y="82"/>
      <point x="90" y="95" type="qcurve"/>
      <point x="86" y="111"/>
      <point x="99" y="115" type="qcurve"/>
      <point x="255" y="181"/>
      <point x="339" y="239" type="qcurve"/>
      <point x="423" y="298"/>
      <point x="511" y="406" type="qcurve"/>
      <point x="514" y="411"/>
      <point x="517" y="414" type="qcurve"/>
      <point x="330" y="401"/>
      <point x="246" y="368" type="qcurve"/>
      <point x="237" y="364"/>
      <point x="234" y="374" type="qcurve"/>
      <point x="227" y="400"/>
      <point x="211" y="424" type="qcurve"/>
      <point x="204" y="435"/>
      <point x="219" y="439" type="qcurve"/>
      <point x="299" y="504"/>
      <point x="405" y="700" type="qcurve"/>
      <point x="162" y="700" type="line"/>
      <point x="120" y="699"/>
      <point x="89" y="693" type="qcurve"/>
      <point x="80" y="690"/>
      <point x="79" y="699" type="qcurve"/>
      <point x="74" y="717"/>
      <point x="59" y="730" type="qcurve"/>
      <point x="51" y="737"/>
      <point x="55" y="741" type="qcurve"/>
      <point x="59" y="744"/>
      <point x="66" y="740" type="qcurve"/>
      <point x="104" y="731"/>
      <point x="150" y="731" type="qcurve"/>
      <point x="827" y="731" type="line"/>
      <point x="841" y="732"/>
      <point x="857" y="750" type="qcurve"/>
      <point x="883" y="787" type="line"/>
      <point x="890" y="796"/>
      <point x="899" y="787" type="qcurve"/>
      <point x="970" y="724"/>
      <point x="969" y="709" type="qcurve"/>
      <point x="967" y="701"/>
      <point x="954" y="700" type="qcurve"/>
      <point x="436" y="700" type="line"/>
      <point x="458" y="686"/>
      <point x="480" y="670" type="qcurve"/>
      <point x="487" y="664"/>
      <point x="486" y="660" type="qcurve"/>
      <point x="484" y="655"/>
      <point x="478" y="656" type="qcurve"/>
      <point x="435" y="655"/>
      <point x="296" y="443" type="qcurve"/>
    </contour>
  </outline>
</glyph>
<glyph name="u20015" format="2">
  <advance width="1024"/>
  <unicode hex="20015"/>
  <outline>
    <contour>
      <point x="843" y="12"/>
      <point x="859" y="30" type="qcurve"/>
      <point x="885" y="67" type="line"/>
      <point x="892" y="76"/>
      <point x="901" y="67" type="qcurve"/>
      <point x="972" y="4"/>
      <point x="971" y="-11" type="qcurve"/>
      <point x="969" y="-19"/>
      <point x="956" y="-20" type="qcurve"/>
      <point x="160" y="-20" type="line"/>
      <point x="118" y="-21"/>
      <point x="87" y="-27" type="qcurve"/>
      <point x="78" y="-30"/>
      <point x="77" y="-21" type="qcurve"/>
      <point x="72" y="-3"/>
      <point x="57" y="10" type="qcurve"/>
      <point x="49" y="17"/>
      <point x="53" y="21" type="qcurve"/>
      <point x="57" y="24"/>
      <point x="64" y="20" type="qcurve"/>
      <point x="102" y="11"/>
      <point x="148" y="11" type="qcurve"/>
      <point x="622" y="11" type="line"/>
      <point x="634" y="182" type="line"/>
      <point x="327" y="182" type="line"/>
      <point x="309" y="154" type="line"/>
      <point x="301" y="144"/>
      <point x="292" y="156" type="qcurve"/>
      <point x="276" y="172"/>
      <point x="254" y="188" type="qcurve"/>
      <point x="243" y="196"/>
      <point x="256" y="203" type="qcurve"/>
      <point x="283" y="220"/>
      <point x="292" y="271" type="qcurve"/>
      <point x="356" y="732" type="line"/>
      <point x="184" y="732" type="line"/>
      <point x="142" y="731"/>
      <point x="111" y="725" type="qcurve"/>
      <point x="102" y="722"/>
      <point x="101" y="731" type="qcurve"/>
      <point x="96" y="749"/>
      <point x="81" y="762" type="qcurve"/>
      <point x="73" y="769"/>
      <point x="77" y="773" type="qcurve"/>
      <point x="81" y="776"/>
      <point x="88" y="772" type="qcurve"/>
      <point x="126" y="763"/>
      <point x="172" y="763" type="qcurve"/>
      <point x="773" y="763" type="line"/>
      <point x="787" y="764"/>
      <point x="803" y="782" type="qcurve"/>
      <point x="829" y="819" type="line"/>
      <point x="836" y="828"/>
      <point x="845" y="819" type="qcurve"/>
      <point x="916" y="756"/>
      <point x="915" y="741" type="qcurve"/>
      <point x="913" y="733"/>
      <point x="900" y="732" type="qcurve"/>
      <point x="400" y="732" type="line"/>
      <point x="373" y="555" type="line"/>
      <point x="642" y="555" type="line"/>
      <point x="648" y="555"/>
      <point x="651" y="558" type="qcurve"/>
      <point x="675" y="585" type="line"/>
      <point x="681" y="595"/>
      <point x="691" y="585" type="qcurve"/>
      <point x="723" y="564"/>
      <point x="748" y="542" type="qcurve"/>
      <point x="753" y="534"/>
      <point x="752" y="530" type="qcurve"/>
      <point x="750" y="525"/>
      <point x="738" y="525" type="qcurve"/>
      <point x="727" y="526"/>
      <point x="720" y="517" type="qcurve"/>
      <point x="710" y="505"/>
      <point x="709" y="487" type="qcurve"/>
      <point x="675" y="11" type="line"/>
      <point x="829" y="11" type="line"/>
    </contour>
    <contour>
      <point x="636" y="213" type="line"/>
      <point x="658" y="524" type="line"/>
      <point x="369" y="524" type="line"/>
      <point x="327" y="213" type="line"/>
    </contour>
    <contour>
      <point x="411" y="436"/>
      <point x="414" y="443" type="qcurve"/>
      <point x="417" y="449"/>
      <point x="430" y="445" type="qcurve"/>
      <point x="501" y="426"/>
      <point x="541" y="401" type="qcurve"/>
      <point x="567" y="386"/>
      <point x="574" y="368" type="qcurve"/>
      <point x="581" y="349"/>
      <point x="574" y="318" type="qcurve"/>
      <point x="568" y="292"/>
      <point x="558" y="289" type="qcurve"/>
      <point x="548" y="287"/>
      <point x="541" y="305" type="qcurve"/>
      <point x="519" y="349"/>
      <point x="489" y="377" type="qcurve"/>
      <point x="461" y="403"/>
      <point x="418" y="430" type="qcurve"/>
    </contour>
  </outline>
</glyph>
<glyph name="u20018" format="2">
  <advance width="1024"/>
  <unicode hex="20018"/>
  <outline>
    <contour>
      <point x="812" y="313"/>
      <point x="816" y="317" type="qcurve"/>
      <point x="821" y="322"/>
      <point x="830" y="332" type="qcurve"/>
      <point x="856" y="369" type="line"/>
      <point x="863" y="378"/>
      <point x="872" y="369" type="qcurve"/>
      <point x="903" y="341"/>
      <point x="933" y="310" type="qcurve"/>
      <point x="943" y="300"/>
      <point x="942" y="291" type="qcurve"/>
      <point x="940" y="283"/>
      <point x="927" y="282" type="qcurve"/>
      <point x="632" y="282" type="line"/>
      <point x="632" y="27" type="line"/>
      <point x="633" y="6"/>
      <point x="640" y="-1" type="qcurve"/>
      <point x="648" y="-10"/>
      <point x="661" y="-10" type="qcurve"/>
      <point x="843" y="-10" type="line"/>
      <point x="860" y="-9"/>
      <point x="869" y="-5" type="qcurve"/>
      <point x="880" y="1"/>
      <point x="887" y="23" type="qcurve"/>
      <point x="904" y="66"/>
      <point x="923" y="160" type="qcurve"/>
      <point x="925" y="172"/>
      <point x="935" y="171" type="qcurve"/>
      <point x="944" y="170"/>
      <point x="943" y="158" type="qcurve"/>
      <point x="932" y="76"/>
      <point x="938" y="39" type="qcurve"/>
      <point x="942" y="17"/>
      <point x="954" y="10" type="qcurve"/>
      <point x="960" y="6"/>
      <point x="956" y="2" type="qcurve"/>
      <point x="946" y="-28"/>
      <point x="928" y="-41" type="qcurve"/>
      <point x="906" y="-58"/>
      <point x="872" y="-58" type="qcurve"/>
      <point x="636" y="-58" type="line"/>
      <point x="616" y="-58"/>
      <point x="600" y="-42" type="qcurve"/>
      <point x="584" y="-27"/>
      <point x="584" y="16" type="qcurve"/>
      <point x="584" y="282" type="line"/>
      <point x="419" y="282" type="line"/>
      <point x="398" y="137"/>
      <point x="355" y="73" type="qcurve"/>
      <point x="314" y="11"/>
      <point x="250" y="-20" type="qcurve"/>
      <point x="181" y="-55"/>
      <point x="85" y="-74" type="qcurve"/>
      <point x="68" y="-77"/>
      <point x="67" y="-64" type="qcurve"/>
      <point x="65" y="-51"/>
      <point x="81" y="-48" type="qcurve"/>
      <point x="158" y="-29"/>
      <point x="212" y="-1" type="qcurve"/>
      <point x="277" y="34"/>
      <point x="308" y="77" type="qcurve"/>
      <point x="347" y="134"/>
      <point x="369" y="282" type="qcurve"/>
      <point x="166" y="282" type="line"/>
      <point x="139" y="282"/>
      <point x="105" y="275" type="qcurve"/>
      <point x="100" y="274"/>
      <point x="99" y="277" type="qcurve"/>
      <point x="86" y="297"/>
      <point x="76" y="313" type="qcurve"/>
      <point x="70" y="323"/>
      <point x="83" y="320" type="qcurve"/>
      <point x="144" y="314"/>
      <point x="151" y="313" type="qcurve"/>
      <point x="800" y="313" type="line"/>
    </contour>
    <contour>
      <point x="812" y="803"/>
      <point x="816" y="807" type="qcurve"/>
      <point x="821" y="812"/>
      <point x="830" y="822" type="qcurve"/>
      <point x="856" y="859" type="line"/>
      <point x="863" y="868"/>
      <point x="872" y="859" type="qcurve"/>
      <point x="903" y="831"/>
      <point x="933" y="800" type="qcurve"/>
      <point x="943" y="790"/>
      <point x="942" y="781" type="qcurve"/>
      <point x="940" y="773"/>
      <point x="927" y="772" type="qcurve"/>
      <point x="632" y="772" type="line"/>
      <point x="632" y="517" type="line"/>
      <point x="633" y="496"/>
      <point x="640" y="489" type="qcurve"/>
      <point x="648" y="480"/>
      <point x="661" y="480" type="qcurve"/>
      <point x="843" y="480" type="line"/>
      <point x="860" y="481"/>
      <point x="869" y="485" type="qcurve"/>
      <point x="880" y="491"/>
      <point x="887" y="513" type="qcurve"/>
      <point x="904" y="556"/>
      <point x="923" y="650" type="qcurve"/>
      <point x="925" y="662"/>
      <point x="935" y="661" type="qcurve"/>
      <point x="944" y="660"/>
      <point x="943" y="648" type="qcurve"/>
      <point x="932" y="566"/>
      <point x="938" y="529" type="qcurve"/>
      <point x="942" y="507"/>
      <point x="954" y="500" type="qcurve"/>
      <point x="960" y="496"/>
      <point x="956" y="492" type="qcurve"/>
      <point x="946" y="462"/>
      <point x="928" y="449" type="qcurve"/>
      <point x="906" y="432"/>
      <point x="872" y="432" type="qcurve"/>
      <point x="636" y="432" type="line"/>
      <point x="616" y="432"/>
      <point x="600" y="448" type="qcurve"/>
      <point x="584" y="463"/>
      <point x="584" y="506" type="qcurve"/>
      <point x="584" y="772" type="line"/>
      <point x="419" y="772" type="line"/>
      <point x="398" y="617"/>
      <point x="355" y="553" type="qcurve"/>
      <point x="314" y="491"/>
      <point x="250" y="455" type="qcurve"/>
      <point x="181" y="415"/>
      <point x="85" y="376" type="qcurve"/>
      <point x="68" y="373"/>
      <point x="67" y="386" type="qcurve"/>
      <point x="65" y="399"/>
      <point x="81" y="402" type="qcurve"/>
      <point x="158" y="441"/>
      <point x="212" y="474" type="qcurve"/>
      <point x="277" y="514"/>
      <point x="308" y="557" type="qcurve"/>
      <point x="347" y="614"/>
      <point x="369" y="772" type="qcurve"/>
      <point x="166" y="772" type="line"/>
      <point x="139" y="772"/>
      <point x="105" y="765" type="qcurve"/>
      <point x="100" y="764"/>
      <point x="99" y="767" type="qcurve"/>
      <point x="86" y="787"/>
      <point x="76" y="803" type="qcurve"/>
      <point x="70" y="813"/>
      <point x="83" y="810" type="qcurve"/>
      <point x="144" y="804"/>
      <point x="151" y="803" type="qcurve"/>
      <point x="800" y="803" type="line"/>
    </contour>
  </outline>
</glyph>
<glyph name="u20019" format="2">
  <advance width="1024"/>
  <unicode hex="20019"/>
  <outline>
    <contour>
      <point x="358" y="780"/>
      <point x="374" y="798" type="qcurve"/>
      <point x="400" y="835" type="line"/>
      <point x="407" y="844"/>
      <point x="416" y="835" type="qcurve"/>
      <point x="487" y="772"/>
      <point x="486" y="757" type="qcurve"/>
      <point x="484" y="749"/>
      <point x="471" y="748" type="qcurve"/>
      <point x="220" y="748" type="line"/>
      <point x="178" y="747"/>
      <point x="147" y="741" type="qcurve"/>
      <point x="138" y="738"/>
      <point x="137" y="747" type="qcurve"/>
      <point x="132" y="765"/>
      <point x="117" y="778" type="qcurve"/>
      <point x="109" y="785"/>
      <point x="113" y="789" type="qcurve"/>
      <point x="117" y="792"/>
      <point x="124" y="788" type="qcurve"/>
      <point x="162" y="779"/>
      <point x="208" y="779" type="qcurve"/>
      <point x="344" y="779" type="line"/>
    </contour>
    <contour>
      <point x="455" y="-12"/>
      <point x="437" y="-37" type="qcurve"/>
      <point x="419" y="-62"/>
      <point x="392" y="-72" type="qcurve"/>
      <point x="383" y="-76"/>
      <point x="380" y="-67" type="qcurve"/>
      <point x="360" y="-16"/>
      <point x="285" y="-10" type="qcurve"/>
      <point x="273" y="-8"/>
      <point x="274" y="2" type="qcurve"/>
      <point x="275" y="11"/>
      <point x="288" y="10" type="qcurve"/>
      <point x="394" y="5"/>
      <point x="400" y="8" type="qcurve"/>
      <point x="407" y="12"/>
      <point x="407" y="33" type="qcurve"/>
      <point x="407" y="576" type="line"/>
      <point x="199" y="576" type="line"/>
      <point x="199" y="149" type="line"/>
      <point x="198" y="42"/>
      <point x="199" y="-33" type="qcurve"/>
      <point x="198" y="-48"/>
      <point x="161" y="-73" type="qcurve"/>
      <point x="153" y="-77"/>
      <point x="149" y="-77" type="qcurve"/>
      <point x="143" y="-76"/>
      <point x="144" y="-57" type="qcurve"/>
      <point x="148" y="43"/>
      <point x="151" y="149" type="qcurve"/>
      <point x="151" y="549" type="line"/>
      <point x="150" y="581"/>
      <point x="144" y="627" type="qcurve"/>
      <point x="142" y="637"/>
      <point x="145" y="638" type="qcurve"/>
      <point x="146" y="638"/>
      <point x="185" y="607" type="qcurve"/>
      <point x="390" y="607" type="line"/>
      <point x="399" y="607"/>
      <point x="400" y="608" type="qcurve"/>
      <point x="425" y="641" type="line"/>
      <point x="427" y="645"/>
      <point x="431" y="645" type="qcurve"/>
      <point x="435" y="645"/>
      <point x="439" y="641" type="qcurve"/>
      <point x="470" y="616"/>
      <point x="494" y="591" type="qcurve"/>
      <point x="501" y="583"/>
      <point x="485" y="577" type="qcurve"/>
      <point x="461" y="567"/>
      <point x="458" y="563" type="qcurve"/>
      <point x="455" y="557"/>
      <point x="455" y="550" type="qcurve"/>
      <point x="455" y="22" type="line"/>
    </contour>
    <contour>
      <point x="871" y="-12"/>
      <point x="853" y="-37" type="qcurve"/>
      <point x="835" y="-62"/>
      <point x="808" y="-72" type="qcurve"/>
      <point x="800" y="-76"/>
      <point x="797" y="-67" type="qcurve"/>
      <point x="778" y="-19"/>
      <point x="705" y="-10" type="qcurve"/>
      <point x="693" y="-8"/>
      <point x="694" y="2" type="qcurve"/>
      <point x="695" y="11"/>
      <point x="708" y="10" type="qcurve"/>
      <point x="810" y="5"/>
      <point x="816" y="8" type="qcurve"/>
      <point x="823" y="12"/>
      <point x="823" y="33" type="qcurve"/>
      <point x="823" y="576" type="line"/>
      <point x="603" y="576" type="line"/>
      <point x="603" y="149" type="line"/>
      <point x="602" y="42"/>
      <point x="603" y="-33" type="qcurve"/>
      <point x="602" y="-48"/>
      <point x="565" y="-73" type="qcurve"/>
      <point x="557" y="-77"/>
      <point x="553" y="-77" type="qcurve"/>
      <point x="547" y="-76"/>
      <point x="548" y="-57" type="qcurve"/>
      <point x="552" y="43"/>
      <point x="555" y="149" type="qcurve"/>
      <point x="555" y="549" type="line"/>
      <point x="554" y="581"/>
      <point x="548" y="627" type="qcurve"/>
      <point x="546" y="637"/>
      <point x="549" y="638" type="qcurve"/>
      <point x="550" y="638"/>
      <point x="589" y="607" type="qcurve"/>
      <point x="806" y="607" type="line"/>
      <point x="815" y="607"/>
      <point x="816" y="608" type="qcurve"/>
      <point x="841" y="641" type="line"/>
      <point x="843" y="645"/>
      <point x="847" y="645" type="qcurve"/>
      <point x="851" y="645"/>
      <point x="855" y="641" type="qcurve"/>
      <point x="886" y="616"/>
      <point x="910" y="591" type="qcurve"/>
      <point x="917" y="583"/>
      <point x="901" y="577" type="qcurve"/>
      <point x="877" y="567"/>
      <point x="874" y="563" type="qcurve"/>
      <point x="871" y="557"/>
      <point x="871" y="550" type="qcurve"/>
      <point x="871" y="22" type="line"/>
    </contour>
    <contour>
      <point x="783" y="780"/>
      <point x="799" y="798" type="qcurve"/>
      <point x="825" y="835" type="line"/>
      <point x="832" y="844"/>
      <point x="841" y="835" type="qcurve"/>
      <point x="912" y="772"/>
      <point x="911" y="757" type="qcurve"/>
      <point x="909" y="749"/>
      <point x="896" y="748" type="qcurve"/>
      <point x="645" y="748" type="line"/>
      <point x="603" y="747"/>
      <point x="572" y="741" type="qcurve"/>
      <point x="563" y="738"/>
      <point x="562" y="747" type="qcurve"/>
      <point x="557" y="765"/>
      <point x="542" y="778" type="qcurve"/>
      <point x="534" y="785"/>
      <point x="538" y="789" type="qcurve"/>
      <point x="542" y="792"/>
      <point x="549" y="788" type="qcurve"/>
      <point x="587" y="779"/>
      <point x="633" y="779" type="qcurve"/>
      <point x="769" y="779" type="line"/>
    </contour>
  </outline>
</glyph>
<glyph name="u2001A" format="2">
  <advance width="1024"/>
  <unicode hex="2001A"/>
  <outline>
    <contour>
      <point x="618" y="303" type="qcurve"/>
      <point x="622" y="312"/>
      <point x="635" y="306" type="qcurve"/>
      <point x="882" y="220"/>
      <point x="942" y="145" type="qcurve"/>
      <point x="965" y="119"/>
      <point x="964" y="94" type="qcurve"/>
      <point x="962" y="70"/>
      <point x="958" y="58" type="qcurve"/>
      <point x="953" y="47"/>
      <point x="946" y="46" type="qcurve"/>
      <point x="938" y="45"/>
      <point x="931" y="58" type="qcurve"/>
      <point x="858" y="174"/>
      <point x="623" y="289" type="qcurve"/>
      <point x="614" y="294"/>
    </contour>
    <contour>
      <point x="508" y="457" type="qcurve"/>
      <point x="502" y="456"/>
      <point x="497" y="456" type="qcurve"/>
      <point x="311" y="443"/>
      <point x="173" y="425" type="qcurve"/>
      <point x="151" y="421"/>
      <point x="148" y="428" type="qcurve"/>
      <point x="135" y="460"/>
      <point x="122" y="476" type="qcurve"/>
      <point x="112" y="488"/>
      <point x="127" y="489" type="qcurve"/>
      <point x="157" y="493"/>
      <point x="181" y="499" type="qcurve"/>
      <point x="278" y="529"/>
      <point x="461" y="760" type="qcurve"/>
      <point x="188" y="760" type="line"/>
      <point x="146" y="759"/>
      <point x="115" y="753" type="qcurve"/>
      <point x="106" y="750"/>
      <point x="105" y="759" type="qcurve"/>
      <point x="100" y="777"/>
      <point x="85" y="790" type="qcurve"/>
      <point x="77" y="797"/>
      <point x="81" y="801" type="qcurve"/>
      <point x="85" y="804"/>
      <point x="92" y="800" type="qcurve"/>
      <point x="130" y="791"/>
      <point x="176" y="791" type="qcurve"/>
      <point x="821" y="791" type="line"/>
      <point x="835" y="792"/>
      <point x="851" y="810" type="qcurve"/>
      <point x="877" y="847" type="line"/>
      <point x="884" y="856"/>
      <point x="893" y="847" type="qcurve"/>
      <point x="964" y="784"/>
      <point x="963" y="769" type="qcurve"/>
      <point x="961" y="761"/>
      <point x="948" y="760" type="qcurve"/>
      <point x="539" y="760" type="line"/>
      <point x="431" y="629"/>
      <point x="232" y="488" type="qcurve"/>
      <point x="497" y="496"/>
      <point x="773" y="503" type="qcurve"/>
      <point x="705" y="578"/>
      <point x="600" y="653" type="qcurve"/>
      <point x="593" y="658"/>
      <point x="597" y="667" type="qcurve"/>
      <point x="603" y="674"/>
      <point x="615" y="667" type="qcurve"/>
      <point x="827" y="554"/>
      <point x="875" y="475" type="qcurve"/>
      <point x="892" y="447"/>
      <point x="888" y="422" type="qcurve"/>
      <point x="884" y="397"/>
      <point x="877" y="387" type="qcurve"/>
      <point x="870" y="377"/>
      <point x="863" y="377" type="qcurve"/>
      <point x="855" y="378"/>
      <point x="851" y="391" type="qcurve"/>
      <point x="833" y="430"/>
      <point x="796" y="476" type="qcurve"/>
      <point x="793" y="477"/>
      <point x="792" y="476" type="qcurve"/>
      <point x="649" y="467"/>
      <point x="570" y="461" type="qcurve"/>
      <point x="538" y="397"/>
      <point x="518" y="370" type="qcurve"/>
      <point x="559" y="357"/>
      <point x="575" y="348" type="qcurve"/>
      <point x="589" y="341"/>
      <point x="573" y="332" type="qcurve"/>
      <point x="557" y="324"/>
      <point x="553" y="314" type="qcurve"/>
      <point x="546" y="295"/>
      <point x="546" y="234" type="qcurve"/>
      <point x="546" y="69" type="line"/>
      <point x="546" y="-8"/>
      <point x="550" y="-47" type="qcurve"/>
      <point x="551" y="-55"/>
      <point x="545" y="-59" type="qcurve"/>
      <point x="503" y="-86" type="line"/>
      <point x="490" y="-96"/>
      <point x="491" y="-75" type="qcurve"/>
      <point x="497" y="18"/>
      <point x="498" y="69" type="qcurve"/>
      <point x="498" y="234" type="line"/>
      <point x="497" y="298"/>
      <point x="494" y="341" type="qcurve"/>
      <point x="351" y="171"/>
      <point x="81" y="29" type="qcurve"/>
      <point x="66" y="23"/>
      <point x="62" y="30" type="qcurve"/>
      <point x="54" y="43"/>
      <point x="67" y="50" type="qcurve"/>
      <point x="220" y="135"/>
      <point x="307" y="210" type="qcurve"/>
      <point x="421" y="310"/>
    </contour>
  </outline>
</glyph>
<glyph name="u2001B" format="2">
  <advance width="1024"/>
  <unicode hex="2001B"/>
  <outline>
    <contour>
      <point x="531" y="774" type="line"/>
      <point x="531" y="655" type="line"/>
      <point x="835" y="655" type="line"/>
      <point x="849" y="656"/>
      <point x="865" y="674" type="qcurve"/>
      <point x="891" y="711" type="line"/>
      <point x="898" y="720"/>
      <point x="907" y="711" type="qcurve"/>
      <point x="978" y="648"/>
      <point x="977" y="633" type="qcurve"/>
      <point x="975" y="625"/>
      <point x="962" y="624" type="qcurve"/>
      <point x="531" y="624" type="line"/>
      <point x="531" y="506" type="line"/>
      <point x="530" y="505" type="line"/>
      <point x="818" y="505" type="line"/>
      <point x="827" y="505"/>
      <point x="828" y="506" type="qcurve"/>
      <point x="853" y="539" type="line"/>
      <point x="855" y="543"/>
      <point x="859" y="543" type="qcurve"/>
      <point x="863" y="543"/>
      <point x="867" y="539" type="qcurve"/>
      <point x="898" y="514"/>
      <point x="922" y="489" type="qcurve"/>
      <point x="929" y="481"/>
      <point x="913" y="475" type="qcurve"/>
      <point x="889" y="465"/>
      <point x="886" y="461" type="qcurve"/>
      <point x="883" y="455"/>
      <point x="883" y="448" type="qcurve"/>
      <point x="883" y="10" type="line"/>
      <point x="883" y="-24"/>
      <point x="865" y="-49" type="qcurve"/>
      <point x="847" y="-74"/>
      <point x="820" y="-84" type="qcurve"/>
      <point x="811" y="-88"/>
      <point x="808" y="-78" type="qcurve"/>
      <point x="793" y="-30"/>
      <point x="712" y="-18" type="qcurve"/>
      <point x="701" y="-16"/>
      <point x="702" y="-6" type="qcurve"/>
      <point x="703" y="3"/>
      <point x="716" y="2" type="qcurve"/>
      <point x="819" y="-7"/>
      <point x="828" y="-4" type="qcurve"/>
      <point x="835" y="0"/>
      <point x="835" y="21" type="qcurve"/>
      <point x="835" y="474" type="line"/>
      <point x="530" y="474" type="line"/>
      <point x="525" y="418"/>
      <point x="515" y="364" type="qcurve"/>
      <point x="518" y="364"/>
      <point x="519" y="363" type="qcurve"/>
      <point x="644" y="291"/>
      <point x="711" y="224" type="qcurve"/>
      <point x="759" y="176"/>
      <point x="760" y="148" type="qcurve"/>
      <point x="762" y="124"/>
      <point x="749" y="109" type="qcurve"/>
      <point x="736" y="94"/>
      <point x="729" y="94" type="qcurve"/>
      <point x="723" y="94"/>
      <point x="714" y="113" type="qcurve"/>
      <point x="625" y="268"/>
      <point x="511" y="343" type="qcurve"/>
      <point x="449" y="169"/>
      <point x="254" y="78" type="qcurve"/>
      <point x="233" y="69"/>
      <point x="229" y="83" type="qcurve"/>
      <point x="226" y="93"/>
      <point x="238" y="99" type="qcurve"/>
      <point x="260" y="114"/>
      <point x="310" y="150" type="qcurve"/>
      <point x="466" y="272"/>
      <point x="481" y="474" type="qcurve"/>
      <point x="207" y="474" type="line"/>
      <point x="207" y="137" type="line"/>
      <point x="206" y="30"/>
      <point x="207" y="-45" type="qcurve"/>
      <point x="206" y="-60"/>
      <point x="169" y="-85" type="qcurve"/>
      <point x="161" y="-89"/>
      <point x="157" y="-89" type="qcurve"/>
      <point x="151" y="-88"/>
      <point x="152" y="-69" type="qcurve"/>
      <point x="156" y="31"/>
      <point x="159" y="137" type="qcurve"/>
      <point x="159" y="447" type="line"/>
      <point x="158" y="479"/>
      <point x="152" y="525" type="qcurve"/>
      <point x="150" y="535"/>
      <point x="153" y="536" type="qcurve"/>
      <point x="154" y="536"/>
      <point x="193" y="505" type="qcurve"/>
      <point x="482" y="505" type="line"/>
      <point x="482" y="506"/>
      <point x="483" y="506" type="qcurve"/>
      <point x="483" y="624" type="line"/>
      <point x="154" y="624" type="line"/>
      <point x="112" y="623"/>
      <point x="81" y="617" type="qcurve"/>
      <point x="72" y="614"/>
      <point x="71" y="623" type="qcurve"/>
      <point x="66" y="641"/>
      <point x="51" y="654" type="qcurve"/>
      <point x="43" y="661"/>
      <point x="47" y="665" type="qcurve"/>
      <point x="51" y="668"/>
      <point x="58" y="664" type="qcurve"/>
      <point x="96" y="655"/>
      <point x="142" y="655" type="qcurve"/>
      <point x="483" y="655" type="line"/>
      <point x="483" y="774" type="line"/>
      <point x="254" y="774" type="line"/>
      <point x="212" y="773"/>
      <point x="181" y="767" type="qcurve"/>
      <point x="172" y="764"/>
      <point x="171" y="773" type="qcurve"/>
      <point x="166" y="791"/>
      <point x="151" y="804" type="qcurve"/>
      <point x="143" y="811"/>
      <point x="147" y="815" type="qcurve"/>
      <point x="151" y="818"/>
      <point x="158" y="814" type="qcurve"/>
      <point x="196" y="805"/>
      <point x="242" y="805" type="qcurve"/>
      <point x="735" y="805" type="line"/>
      <point x="749" y="806"/>
      <point x="765" y="824" type="qcurve"/>
      <point x="791" y="861" type="line"/>
      <point x="798" y="870"/>
      <point x="807" y="861" type="qcurve"/>
      <point x="878" y="798"/>
      <point x="877" y="783" type="qcurve"/>
      <point x="875" y="775"/>
      <point x="862" y="774" type="qcurve"/>
    </contour>
  </outline>
</glyph>
<glyph name="u2001C" format="2">
  <advance width="1024"/>
  <unicode hex="2001C"/>
  <outline>
    <contour>
      <point x="209" y="553"/>
      <point x="212" y="554" type="qcurve"/>
      <point x="221" y="557"/>
      <point x="290" y="527" type="qcurve"/>
      <point x="303" y="521"/>
      <point x="302" y="515" type="qcurve"/>
      <point x="301" y="510"/>
      <point x="294" y="509" type="qcurve"/>
      <point x="260" y="506"/>
      <point x="239" y="440" type="qcurve"/>
      <point x="208" y="347"/>
      <point x="119" y="172" type="qcurve"/>
      <point x="111" y="158"/>
      <point x="101" y="164" type="qcurve"/>
      <point x="89" y="170"/>
      <point x="98" y="186" type="qcurve"/>
      <point x="181" y="365"/>
      <point x="209" y="545" type="qcurve"/>
    </contour>
    <contour>
      <point x="691" y="538"/>
      <point x="698" y="542" type="qcurve"/>
      <point x="707" y="548"/>
      <point x="714" y="535" type="qcurve"/>
      <point x="843" y="365"/>
      <point x="855" y="277" type="qcurve"/>
      <point x="859" y="244"/>
      <point x="844" y="223" type="qcurve"/>
      <point x="829" y="204"/>
      <point x="819" y="197" type="qcurve"/>
      <point x="809" y="190"/>
      <point x="802" y="193" type="qcurve"/>
      <point x="796" y="198"/>
      <point x="797" y="211" type="qcurve"/>
      <point x="800" y="330"/>
      <point x="695" y="528" type="qcurve"/>
    </contour>
    <contour>
      <point x="843" y="20"/>
      <point x="859" y="38" type="qcurve"/>
      <point x="885" y="75" type="line"/>
      <point x="892" y="84"/>
      <point x="901" y="75" type="qcurve"/>
      <point x="972" y="12"/>
      <point x="971" y="-3" type="qcurve"/>
      <point x="969" y="-11"/>
      <point x="956" y="-12" type="qcurve"/>
      <point x="160" y="-12" type="line"/>
      <point x="118" y="-13"/>
      <point x="87" y="-19" type="qcurve"/>
      <point x="78" y="-22"/>
      <point x="77" y="-13" type="qcurve"/>
      <point x="72" y="5"/>
      <point x="57" y="18" type="qcurve"/>
      <point x="49" y="25"/>
      <point x="53" y="29" type="qcurve"/>
      <point x="57" y="32"/>
      <point x="64" y="28" type="qcurve"/>
      <point x="102" y="19"/>
      <point x="148" y="19" type="qcurve"/>
      <point x="361" y="19" type="line"/>
      <point x="361" y="748" type="line"/>
      <point x="220" y="748" type="line"/>
      <point x="178" y="747"/>
      <point x="147" y="741" type="qcurve"/>
      <point x="138" y="738"/>
      <point x="137" y="747" type="qcurve"/>
      <point x="132" y="765"/>
      <point x="117" y="778" type="qcurve"/>
      <point x="109" y="785"/>
      <point x="113" y="789" type="qcurve"/>
      <point x="117" y="792"/>
      <point x="124" y="788" type="qcurve"/>
      <point x="162" y="779"/>
      <point x="208" y="779" type="qcurve"/>
      <point x="777" y="779" type="line"/>
      <point x="791" y="780"/>
      <point x="807" y="798" type="qcurve"/>
      <point x="833" y="835" type="line"/>
      <point x="840" y="844"/>
      <point x="849" y="835" type="qcurve"/>
      <point x="920" y="772"/>
      <point x="919" y="757" type="qcurve"/>
      <point x="917" y="749"/>
      <point x="904" y="748" type="qcurve"/>
      <point x="641" y="748" type="line"/>
      <point x="641" y="19" type="line"/>
      <point x="829" y="19" type="line"/>
    </contour>
    <contour>
      <point x="409" y="19" type="line"/>
      <point x="593" y="19" type="line"/>
      <point x="593" y="748" type="line"/>
      <point x="409" y="748" type="line"/>
    </contour>
  </outline>
</glyph>
<glyph name="u2001D" format="2">
  <advance width="1024"/>
  <unicode hex="2001D"/>
  <outline>
    <contour>
      <point x="835" y="-43"/>
      <point x="851" y="-25" type="qcurve"/>
      <point x="877" y="12" type="line"/>
      <point x="884" y="21"/>
      <point x="893" y="12" type="qcurve"/>
      <point x="964" y="-51"/>
      <point x="963" y="-66" type="qcurve"/>
      <point x="961" y="-74"/>
      <point x="948" y="-75" type="qcurve"/>
      <point x="176" y="-75" type="line"/>
      <point x="134" y="-76"/>
      <point x="103" y="-82" type="qcurve"/>
      <point x="94" y="-85"/>
      <point x="93" y="-76" type="qcurve"/>
      <point x="88" y="-58"/>
      <point x="73" y="-45" type="qcurve"/>
      <point x="65" y="-38"/>
      <point x="69" y="-34" type="qcurve"/>
      <point x="73" y="-31"/>
      <point x="80" y="-35" type="qcurve"/>
      <point x="118" y="-44"/>
      <point x="164" y="-44" type="qcurve"/>
      <point x="441" y="-44" type="line"/>
      <point x="441" y="263" type="line"/>
      <point x="440" y="302"/>
      <point x="437" y="333" type="qcurve"/>
      <point x="436" y="349"/>
      <point x="446" y="346" type="qcurve"/>
      <point x="499" y="329"/>
      <point x="517" y="320" type="qcurve"/>
      <point x="531" y="311"/>
      <point x="515" y="304" type="qcurve"/>
      <point x="500" y="296"/>
      <point x="496" y="286" type="qcurve"/>
      <point x="489" y="273"/>
      <point x="489" y="263" type="qcurve"/>
      <point x="489" y="172" type="line"/>
      <point x="705" y="172" type="line"/>
      <point x="719" y="174" type="line"/>
      <point x="731" y="186" type="line"/>
      <point x="761" y="228" type="line"/>
      <point x="768" y="237"/>
      <point x="777" y="228" type="qcurve"/>
      <point x="848" y="165"/>
      <point x="847" y="150" type="qcurve"/>
      <point x="845" y="142"/>
      <point x="832" y="141" type="qcurve"/>
      <point x="489" y="141" type="line"/>
      <point x="489" y="-44" type="line"/>
      <point x="821" y="-44" type="line"/>
    </contour>
    <contour>
      <point x="813" y="797"/>
      <point x="817" y="801" type="qcurve"/>
      <point x="822" y="806"/>
      <point x="831" y="816" type="qcurve"/>
      <point x="857" y="853" type="line"/>
      <point x="864" y="862"/>
      <point x="873" y="853" type="qcurve"/>
      <point x="904" y="825"/>
      <point x="934" y="794" type="qcurve"/>
      <point x="944" y="784"/>
      <point x="943" y="775" type="qcurve"/>
      <point x="941" y="767"/>
      <point x="928" y="766" type="qcurve"/>
      <point x="497" y="766" type="line"/>
      <point x="497" y="690" type="line"/>
      <point x="498" y="690" type="line"/>
      <point x="609" y="653"/>
      <point x="681" y="613" type="qcurve"/>
      <point x="751" y="577"/>
      <point x="773" y="549" type="qcurve"/>
      <point x="796" y="523"/>
      <point x="795" y="498" type="qcurve"/>
      <point x="793" y="474"/>
      <point x="789" y="462" type="qcurve"/>
      <point x="784" y="451"/>
      <point x="777" y="450" type="qcurve"/>
      <point x="769" y="449"/>
      <point x="762" y="462" type="qcurve"/>
      <point x="735" y="507"/>
      <point x="669" y="559" type="qcurve"/>
      <point x="600" y="615"/>
      <point x="497" y="667" type="qcurve"/>
      <point x="497" y="575" type="line"/>
      <point x="497" y="490"/>
      <point x="501" y="405" type="qcurve"/>
      <point x="501" y="396"/>
      <point x="494" y="395" type="qcurve"/>
      <point x="450" y="377" type="line"/>
      <point x="441" y="375"/>
      <point x="442" y="391" type="qcurve"/>
      <point x="448" y="524"/>
      <point x="449" y="575" type="qcurve"/>
      <point x="449" y="766" type="line"/>
      <point x="155" y="766" type="line"/>
      <point x="128" y="766"/>
      <point x="94" y="759" type="qcurve"/>
      <point x="89" y="758"/>
      <point x="88" y="761" type="qcurve"/>
      <point x="75" y="781"/>
      <point x="65" y="797" type="qcurve"/>
      <point x="59" y="807"/>
      <point x="72" y="804" type="qcurve"/>
      <point x="133" y="798"/>
      <point x="140" y="797" type="qcurve"/>
      <point x="801" y="797" type="line"/>
    </contour>
  </outline>
</glyph>
<glyph name="u2001E" format="2">
  <advance width="1024"/>
  <unicode hex="2001E"/>
  <outline>
    <contour>
      <point x="191" y="748" type="line"/>
      <point x="170" y="748" type="line"/>
      <point x="128" y="747"/>
      <point x="97" y="741" type="qcurve"/>
      <point x="88" y="738"/>
      <point x="87" y="747" type="qcurve"/>
      <point x="82" y="765"/>
      <point x="67" y="778" type="qcurve"/>
      <point x="59" y="785"/>
      <point x="63" y="789" type="qcurve"/>
      <point x="67" y="792"/>
      <point x="74" y="788" type="qcurve"/>
      <point x="112" y="779"/>
      <point x="158" y="779" type="qcurve"/>
      <point x="354" y="779" type="line"/>
      <point x="368" y="780"/>
      <point x="384" y="798" type="qcurve"/>
      <point x="410" y="835" type="line"/>
      <point x="417" y="844"/>
      <point x="426" y="835" type="qcurve"/>
      <point x="497" y="772"/>
      <point x="496" y="757" type="qcurve"/>
      <point x="494" y="749"/>
      <point x="481" y="748" type="qcurve"/>
      <point x="239" y="748" type="line"/>
      <point x="239" y="567" type="line"/>
      <point x="394" y="567" type="line"/>
      <point x="403" y="567"/>
      <point x="404" y="568" type="qcurve"/>
      <point x="429" y="601" type="line"/>
      <point x="431" y="605"/>
      <point x="435" y="605" type="qcurve"/>
      <point x="439" y="605"/>
      <point x="443" y="601" type="qcurve"/>
      <point x="474" y="576"/>
      <point x="498" y="551" type="qcurve"/>
      <point x="505" y="543"/>
      <point x="489" y="537" type="qcurve"/>
      <point x="465" y="527"/>
      <point x="462" y="523" type="qcurve"/>
      <point x="459" y="517"/>
      <point x="459" y="510" type="qcurve"/>
      <point x="459" y="237" type="line"/>
      <point x="458" y="130"/>
      <point x="459" y="55" type="qcurve"/>
      <point x="458" y="40"/>
      <point x="421" y="15" type="qcurve"/>
      <point x="413" y="11"/>
      <point x="409" y="11" type="qcurve"/>
      <point x="403" y="12"/>
      <point x="404" y="31" type="qcurve"/>
      <point x="408" y="131"/>
      <point x="411" y="237" type="qcurve"/>
      <point x="411" y="536" type="line"/>
      <point x="239" y="536" type="line"/>
      <point x="239" y="151" type="line"/>
      <point x="239" y="34"/>
      <point x="243" y="-45" type="qcurve"/>
      <point x="244" y="-53"/>
      <point x="238" y="-57" type="qcurve"/>
      <point x="196" y="-84" type="line"/>
      <point x="183" y="-94"/>
      <point x="184" y="-73" type="qcurve"/>
      <point x="190" y="60"/>
      <point x="191" y="151" type="qcurve"/>
    </contour>
    <contour>
      <point x="614" y="747" type="line"/>
      <point x="585" y="745"/>
      <point x="562" y="741" type="qcurve"/>
      <point x="553" y="738"/>
      <point x="552" y="747" type="qcurve"/>
      <point x="547" y="765"/>
      <point x="532" y="778" type="qcurve"/>
      <point x="524" y="785"/>
      <point x="528" y="789" type="qcurve"/>
      <point x="532" y="792"/>
      <point x="539" y="788" type="qcurve"/>
      <point x="577" y="779"/>
      <point x="623" y="779" type="qcurve"/>
      <point x="819" y="779" type="line"/>
      <point x="833" y="780"/>
      <point x="849" y="798" type="qcurve"/>
      <point x="875" y="835" type="line"/>
      <point x="882" y="844"/>
      <point x="891" y="835" type="qcurve"/>
      <point x="962" y="772"/>
      <point x="961" y="757" type="qcurve"/>
      <point x="959" y="749"/>
      <point x="946" y="748" type="qcurve"/>
      <point x="662" y="748" type="line"/>
      <point x="662" y="567" type="line"/>
      <point x="817" y="567" type="line"/>
      <point x="826" y="567"/>
      <point x="827" y="568" type="qcurve"/>
      <point x="852" y="601" type="line"/>
      <point x="854" y="605"/>
      <point x="858" y="605" type="qcurve"/>
      <point x="862" y="605"/>
      <point x="866" y="601" type="qcurve"/>
      <point x="897" y="576"/>
      <point x="921" y="551" type="qcurve"/>
      <point x="928" y="543"/>
      <point x="912" y="537" type="qcurve"/>
      <point x="888" y="527"/>
      <point x="885" y="523" type="qcurve"/>
      <point x="882" y="517"/>
      <point x="882" y="510" type="qcurve"/>
      <point x="882" y="237" type="line"/>
      <point x="881" y="130"/>
      <point x="882" y="55" type="qcurve"/>
      <point x="881" y="40"/>
      <point x="844" y="15" type="qcurve"/>
      <point x="836" y="11"/>
      <point x="832" y="11" type="qcurve"/>
      <point x="826" y="12"/>
      <point x="827" y="31" type="qcurve"/>
      <point x="831" y="131"/>
      <point x="834" y="237" type="qcurve"/>
      <point x="834" y="536" type="line"/>
      <point x="662" y="536" type="line"/>
      <point x="662" y="151" type="line"/>
      <point x="662" y="34"/>
      <point x="666" y="-45" type="qcurve"/>
      <point x="667" y="-53"/>
      <point x="661" y="-57" type="qcurve"/>
      <point x="619" y="-84" type="line"/>
      <point x="606" y="-94"/>
      <point x="607" y="-73" type="qcurve"/>
      <point x="613" y="60"/>
      <point x="614" y="151" type="qcurve"/>
    </contour>
  </outline>
</glyph>
<glyph name="u2001F" format="2">
  <advance width="1024"/>
  <unicode hex="2001F"/>
  <outline>
    <contour>
      <point x="539" y="580" type="line"/>
      <point x="539" y="399" type="line"/>
      <point x="837" y="399" type="line"/>
      <point x="848" y="400"/>
      <point x="852" y="404" type="qcurve"/>
      <point x="875" y="436" type="line"/>
      <point x="881" y="446"/>
      <point x="890" y="436" type="qcurve"/>
      <point x="927" y="401"/>
      <point x="949" y="376" type="qcurve"/>
      <point x="954" y="369"/>
      <point x="945" y="366" type="qcurve"/>
      <point x="924" y="361"/>
      <point x="915" y="354" type="qcurve"/>
      <point x="909" y="349"/>
      <point x="894" y="212" type="qcurve"/>
      <point x="877" y="168"/>
      <point x="808" y="144" type="qcurve"/>
      <point x="800" y="140"/>
      <point x="800" y="146" type="qcurve"/>
      <point x="797" y="167"/>
      <point x="785" y="179" type="qcurve"/>
      <point x="770" y="192"/>
      <point x="712" y="205" type="qcurve"/>
      <point x="699" y="207"/>
      <point x="700" y="217" type="qcurve"/>
      <point x="701" y="227"/>
      <point x="713" y="224" type="qcurve"/>
      <point x="829" y="214"/>
      <point x="844" y="229" type="qcurve"/>
      <point x="852" y="234"/>
      <point x="867" y="368" type="qcurve"/>
      <point x="559" y="368" type="line"/>
      <point x="595" y="292"/>
      <point x="649" y="232" type="qcurve"/>
      <point x="709" y="167"/>
      <point x="790" y="115" type="qcurve"/>
      <point x="872" y="62"/>
      <point x="943" y="44" type="qcurve"/>
      <point x="951" y="41"/>
      <point x="963" y="40" type="qcurve"/>
      <point x="970" y="39"/>
      <point x="969" y="33" type="qcurve"/>
      <point x="968" y="24"/>
      <point x="956" y="23" type="qcurve"/>
      <point x="941" y="21"/>
      <point x="923" y="12" type="qcurve"/>
      <point x="901" y="2"/>
      <point x="888" y="-14" type="qcurve"/>
      <point x="883" y="-19"/>
      <point x="871" y="-12" type="qcurve"/>
      <point x="779" y="39"/>
      <point x="664" y="153" type="qcurve"/>
      <point x="598" y="222"/>
      <point x="545" y="343" type="qcurve"/>
      <point x="542" y="351"/>
      <point x="541" y="355" type="qcurve"/>
      <point x="538" y="363"/>
      <point x="532" y="360" type="qcurve"/>
      <point x="526" y="358"/>
      <point x="527" y="352" type="qcurve"/>
      <point x="533" y="336"/>
      <point x="540" y="317" type="qcurve"/>
      <point x="540" y="151" type="line"/>
      <point x="540" y="26"/>
      <point x="544" y="-59" type="qcurve"/>
      <point x="544" y="-68"/>
      <point x="537" y="-69" type="qcurve"/>
      <point x="493" y="-87" type="line"/>
      <point x="484" y="-89"/>
      <point x="485" y="-73" type="qcurve"/>
      <point x="491" y="60"/>
      <point x="492" y="151" type="qcurve"/>
      <point x="492" y="306" type="line"/>
      <point x="498" y="323"/>
      <point x="502" y="338" type="qcurve"/>
      <point x="504" y="343"/>
      <point x="500" y="344" type="qcurve"/>
      <point x="494" y="346"/>
      <point x="493" y="342" type="qcurve"/>
      <point x="490" y="334"/>
      <point x="486" y="324" type="qcurve"/>
      <point x="471" y="302"/>
      <point x="458" y="286" type="qcurve"/>
      <point x="411" y="229"/>
      <point x="336" y="160" type="qcurve"/>
      <point x="228" y="67"/>
      <point x="74" y="-9" type="qcurve"/>
      <point x="61" y="-15"/>
      <point x="57" y="-6" type="qcurve"/>
      <point x="52" y="3"/>
      <point x="62" y="9" type="qcurve"/>
      <point x="196" y="92"/>
      <point x="322" y="205" type="qcurve"/>
      <point x="416" y="293"/>
      <point x="447" y="368" type="qcurve"/>
      <point x="212" y="368" type="line"/>
      <point x="199" y="350" type="line"/>
      <point x="193" y="343"/>
      <point x="187" y="350" type="qcurve"/>
      <point x="171" y="364"/>
      <point x="149" y="380" type="qcurve"/>
      <point x="142" y="387"/>
      <point x="149" y="391" type="qcurve"/>
      <point x="170" y="404"/>
      <point x="177" y="425" type="qcurve"/>
      <point x="196" y="579" type="line"/>
      <point x="201" y="603"/>
      <point x="202" y="631" type="qcurve"/>
      <point x="202" y="645"/>
      <point x="206" y="646" type="qcurve"/>
      <point x="211" y="647"/>
      <point x="217" y="638" type="qcurve"/>
      <point x="229" y="624"/>
      <point x="242" y="611" type="qcurve"/>
      <point x="491" y="611" type="line"/>
      <point x="491" y="720" type="line"/>
      <point x="160" y="720" type="line"/>
      <point x="118" y="719"/>
      <point x="87" y="713" type="qcurve"/>
      <point x="78" y="710"/>
      <point x="77" y="719" type="qcurve"/>
      <point x="72" y="737"/>
      <point x="57" y="750" type="qcurve"/>
      <point x="49" y="757"/>
      <point x="53" y="761" type="qcurve"/>
      <point x="57" y="764"/>
      <point x="64" y="760" type="qcurve"/>
      <point x="102" y="751"/>
      <point x="148" y="751" type="qcurve"/>
      <point x="491" y="751" type="line"/>
      <point x="488" y="837"/>
      <point x="487" y="854" type="qcurve"/>
      <point x="486" y="872"/>
      <point x="496" y="868" type="qcurve"/>
      <point x="552" y="850"/>
      <point x="573" y="838" type="qcurve"/>
      <point x="584" y="830"/>
      <point x="574" y="826" type="qcurve"/>
      <point x="543" y="809"/>
      <point x="542" y="805" type="qcurve"/>
      <point x="541" y="804"/>
      <point x="539" y="751" type="qcurve"/>
      <point x="829" y="751" type="line"/>
      <point x="843" y="752"/>
      <point x="859" y="770" type="qcurve"/>
      <point x="885" y="807" type="line"/>
      <point x="892" y="816"/>
      <point x="901" y="807" type="qcurve"/>
      <point x="972" y="744"/>
      <point x="971" y="729" type="qcurve"/>
      <point x="969" y="721"/>
      <point x="956" y="720" type="qcurve"/>
      <point x="539" y="720" type="line"/>
      <point x="539" y="611" type="line"/>
      <point x="734" y="611" type="line"/>
      <point x="743" y="611"/>
      <point x="744" y="612" type="qcurve"/>
      <point x="769" y="645" type="line"/>
      <point x="771" y="649"/>
      <point x="775" y="649" type="qcurve"/>
      <point x="779" y="649"/>
      <point x="783" y="645" type="qcurve"/>
      <point x="814" y="620"/>
      <point x="838" y="595" type="qcurve"/>
      <point x="845" y="587"/>
      <point x="829" y="581" type="qcurve"/>
      <point x="805" y="571"/>
      <point x="802" y="567" type="qcurve"/>
      <point x="799" y="561"/>
      <point x="799" y="554" type="qcurve"/>
      <point x="799" y="541" type="line"/>
      <point x="798" y="514"/>
      <point x="799" y="479" type="qcurve"/>
      <point x="798" y="464"/>
      <point x="761" y="439" type="qcurve"/>
      <point x="753" y="435"/>
      <point x="749" y="435" type="qcurve"/>
      <point x="743" y="436"/>
      <point x="744" y="455" type="qcurve"/>
      <point x="748" y="515"/>
      <point x="751" y="541" type="qcurve"/>
      <point x="751" y="580" type="line"/>
    </contour>
    <contour>
      <point x="491" y="399" type="line"/>
      <point x="491" y="580" type="line"/>
      <point x="244" y="580" type="line"/>
      <point x="219" y="399" type="line"/>
    </contour>
  </outline>
</glyph>
<glyph name="u20020" format="2">
  <advance width="1024"/>
  <unicode hex="20020"/>
  <outline>
    <contour>
      <point x="298" y="24" type="line"/>
      <point x="300" y="-46"/>
      <point x="296" y="-49" type="qcurve"/>
      <point x="254" y="-76" type="line"/>
      <point x="241" y="-86"/>
      <point x="242" y="-65" type="qcurve"/>
      <point x="248" y="68"/>
      <point x="249" y="159" type="qcurve"/>
      <point x="249" y="566" type="line"/>
      <point x="152" y="566" type="line"/>
      <point x="110" y="565"/>
      <point x="79" y="559" type="qcurve"/>
      <point x="70" y="556"/>
      <point x="69" y="565" type="qcurve"/>
      <point x="64" y="583"/>
      <point x="49" y="596" type="qcurve"/>
      <point x="41" y="603"/>
      <point x="45" y="607" type="qcurve"/>
      <point x="49" y="610"/>
      <point x="56" y="606" type="qcurve"/>
      <point x="94" y="597"/>
      <point x="140" y="597" type="qcurve"/>
      <point x="249" y="597" type="line"/>
      <point x="249" y="706" type="line"/>
      <point x="248" y="786"/>
      <point x="244" y="834" type="qcurve"/>
      <point x="242" y="851"/>
      <point x="254" y="847" type="qcurve"/>
      <point x="308" y="830"/>
      <point x="326" y="820" type="qcurve"/>
      <point x="340" y="813"/>
      <point x="324" y="804" type="qcurve"/>
      <point x="308" y="796"/>
      <point x="304" y="786" type="qcurve"/>
      <point x="297" y="767"/>
      <point x="297" y="706" type="qcurve"/>
      <point x="297" y="597" type="line"/>
      <point x="719" y="597" type="line"/>
      <point x="719" y="706" type="line"/>
      <point x="718" y="786"/>
      <point x="714" y="834" type="qcurve"/>
      <point x="712" y="851"/>
      <point x="724" y="847" type="qcurve"/>
      <point x="778" y="830"/>
      <point x="796" y="820" type="qcurve"/>
      <point x="810" y="813"/>
      <point x="794" y="804" type="qcurve"/>
      <point x="778" y="796"/>
      <point x="774" y="786" type="qcurve"/>
      <point x="767" y="767"/>
      <point x="767" y="706" type="qcurve"/>
      <point x="767" y="597" type="line"/>
      <point x="837" y="597" type="line"/>
      <point x="851" y="598"/>
      <point x="867" y="616" type="qcurve"/>
      <point x="893" y="653" type="line"/>
      <point x="900" y="662"/>
      <point x="909" y="653" type="qcurve"/>
      <point x="980" y="590"/>
      <point x="979" y="575" type="qcurve"/>
      <point x="977" y="567"/>
      <point x="964" y="566" type="qcurve"/>
      <point x="767" y="566" type="line"/>
      <point x="767" y="155" type="line"/>
      <point x="767" y="38"/>
      <point x="771" y="-41" type="qcurve"/>
      <point x="772" y="-49"/>
      <point x="766" y="-53" type="qcurve"/>
      <point x="724" y="-80" type="line"/>
      <point x="711" y="-90"/>
      <point x="712" y="-69" type="qcurve"/>
      <point x="714" y="-19"/>
      <point x="715" y="24" type="qcurve"/>
    </contour>
    <contour>
      <point x="297" y="55" type="line"/>
      <point x="716" y="55" type="line"/>
      <point x="718" y="112"/>
      <point x="719" y="155" type="qcurve"/>
      <point x="719" y="566" type="line"/>
      <point x="297" y="566" type="line"/>
    </contour>
    <contour>
      <point x="423" y="398"/>
      <point x="329" y="464" type="qcurve"/>
      <point x="321" y="468"/>
      <point x="325" y="477" type="qcurve"/>
      <point x="329" y="484"/>
      <point x="341" y="480" type="qcurve"/>
      <point x="446" y="420"/>
      <point x="512" y="364" type="qcurve"/>
      <point x="562" y="427"/>
      <point x="608" y="509" type="qcurve"/>
      <point x="614" y="519"/>
      <point x="621" y="515" type="qcurve"/>
      <point x="648" y="500"/>
      <point x="687" y="472" type="qcurve"/>
      <point x="696" y="465"/>
      <point x="695" y="461" type="qcurve"/>
      <point x="691" y="456"/>
      <point x="675" y="457" type="qcurve"/>
      <point x="648" y="455"/>
      <point x="624" y="428" type="qcurve"/>
      <point x="595" y="396"/>
      <point x="550" y="343" type="qcurve"/>
      <point x="624" y="281"/>
      <point x="652" y="245" type="qcurve"/>
      <point x="673" y="221"/>
      <point x="672" y="197" type="qcurve"/>
      <point x="670" y="174"/>
      <point x="666" y="164" type="qcurve"/>
      <point x="662" y="154"/>
      <point x="655" y="153" type="qcurve"/>
      <point x="648" y="152"/>
      <point x="641" y="164" type="qcurve"/>
      <point x="589" y="245"/>
      <point x="521" y="310" type="qcurve"/>
      <point x="455" y="235"/>
      <point x="340" y="139" type="qcurve"/>
      <point x="327" y="132"/>
      <point x="323" y="141" type="qcurve"/>
      <point x="318" y="147"/>
      <point x="327" y="155" type="qcurve"/>
      <point x="373" y="197"/>
      <point x="458" y="299" type="qcurve"/>
      <point x="472" y="314"/>
      <point x="488" y="332" type="qcurve"/>
    </contour>
  </outline>
</glyph>
<glyph name="u20021" format="2">
  <advance width="1024"/>
  <unicode hex="20021"/>
  <outline>
    <contour>
      <point x="829" y="324"/>
      <point x="845" y="342" type="qcurve"/>
      <point x="871" y="379" type="line"/>
      <point x="878" y="388"/>
      <point x="887" y="379" type="qcurve"/>
      <point x="958" y="316"/>
      <point x="957" y="301" type="qcurve"/>
      <point x="955" y="293"/>
      <point x="942" y="292" type="qcurve"/>
      <point x="635" y="292" type="line"/>
      <point x="635" y="1" type="line"/>
      <point x="636" y="-11"/>
      <point x="637" y="-15" type="qcurve"/>
      <point x="639" y="-19"/>
      <point x="654" y="-19" type="qcurve"/>
      <point x="846" y="-19" type="line"/>
      <point x="863" y="-17"/>
      <point x="870" y="-13" type="qcurve"/>
      <point x="900" y="5"/>
      <point x="921" y="143" type="qcurve"/>
      <point x="923" y="157"/>
      <point x="935" y="156" type="qcurve"/>
      <point x="947" y="154"/>
      <point x="946" y="139" type="qcurve"/>
      <point x="933" y="52"/>
      <point x="937" y="24" type="qcurve"/>
      <point x="941" y="3"/>
      <point x="957" y="-9" type="qcurve"/>
      <point x="963" y="-13"/>
      <point x="959" y="-19" type="qcurve"/>
      <point x="936" y="-58"/>
      <point x="867" y="-61" type="qcurve"/>
      <point x="649" y="-61" type="line"/>
      <point x="606" y="-61"/>
      <point x="597" y="-49" type="qcurve"/>
      <point x="587" y="-37"/>
      <point x="587" y="-12" type="qcurve"/>
      <point x="587" y="292" type="line"/>
      <point x="454" y="292" type="line"/>
      <point x="422" y="160"/>
      <point x="382" y="88" type="qcurve"/>
      <point x="299" y="-54"/>
      <point x="83" y="-88" type="qcurve"/>
      <point x="64" y="-91"/>
      <point x="63" y="-73" type="qcurve"/>
      <point x="63" y="-60"/>
      <point x="79" y="-59" type="qcurve"/>
      <point x="157" y="-46"/>
      <point x="227" y="-6" type="qcurve"/>
      <point x="294" y="33"/>
      <point x="328" y="87" type="qcurve"/>
      <point x="372" y="157"/>
      <point x="394" y="292" type="qcurve"/>
      <point x="178" y="292" type="line"/>
      <point x="136" y="291"/>
      <point x="105" y="285" type="qcurve"/>
      <point x="96" y="282"/>
      <point x="95" y="291" type="qcurve"/>
      <point x="90" y="309"/>
      <point x="75" y="322" type="qcurve"/>
      <point x="67" y="329"/>
      <point x="71" y="333" type="qcurve"/>
      <point x="75" y="336"/>
      <point x="82" y="332" type="qcurve"/>
      <point x="120" y="323"/>
      <point x="166" y="323" type="qcurve"/>
      <point x="499" y="323" type="line"/>
      <point x="499" y="512" type="line"/>
      <point x="283" y="512" type="line"/>
      <point x="248" y="446"/>
      <point x="194" y="383" type="qcurve"/>
      <point x="184" y="373"/>
      <point x="177" y="379" type="qcurve"/>
      <point x="169" y="386"/>
      <point x="178" y="396" type="qcurve"/>
      <point x="222" y="459"/>
      <point x="253" y="547" type="qcurve"/>
      <point x="284" y="636"/>
      <point x="284" y="664" type="qcurve"/>
      <point x="287" y="681"/>
      <point x="303" y="671" type="qcurve"/>
      <point x="341" y="648"/>
      <point x="356" y="638" type="qcurve"/>
      <point x="368" y="631"/>
      <point x="367" y="625" type="qcurve"/>
      <point x="366" y="619"/>
      <point x="357" y="620" type="qcurve"/>
      <point x="348" y="621"/>
      <point x="338" y="612" type="qcurve"/>
      <point x="326" y="601"/>
      <point x="301" y="543" type="qcurve"/>
      <point x="499" y="543" type="line"/>
      <point x="499" y="650" type="line"/>
      <point x="498" y="689"/>
      <point x="495" y="720" type="qcurve"/>
      <point x="494" y="736"/>
      <point x="504" y="733" type="qcurve"/>
      <point x="557" y="716"/>
      <point x="575" y="707" type="qcurve"/>
      <point x="589" y="698"/>
      <point x="573" y="691" type="qcurve"/>
      <point x="558" y="683"/>
      <point x="554" y="673" type="qcurve"/>
      <point x="547" y="660"/>
      <point x="547" y="650" type="qcurve"/>
      <point x="547" y="543" type="line"/>
      <point x="703" y="543" type="line"/>
      <point x="717" y="545" type="line"/>
      <point x="729" y="557" type="line"/>
      <point x="759" y="599" type="line"/>
      <point x="766" y="608"/>
      <point x="775" y="599" type="qcurve"/>
      <point x="846" y="536"/>
      <point x="845" y="521" type="qcurve"/>
      <point x="843" y="513"/>
      <point x="830" y="512" type="qcurve"/>
      <point x="547" y="512" type="line"/>
      <point x="547" y="323" type="line"/>
      <point x="815" y="323" type="line"/>
    </contour>
    <contour>
      <point x="167" y="776" type="line"/>
      <point x="140" y="776"/>
      <point x="106" y="769" type="qcurve"/>
      <point x="101" y="768"/>
      <point x="100" y="771" type="qcurve"/>
      <point x="87" y="791"/>
      <point x="77" y="807" type="qcurve"/>
      <point x="71" y="817"/>
      <point x="84" y="814" type="qcurve"/>
      <point x="145" y="808"/>
      <point x="152" y="807" type="qcurve"/>
      <point x="809" y="807" type="line"/>
      <point x="821" y="807"/>
      <point x="825" y="811" type="qcurve"/>
      <point x="830" y="816"/>
      <point x="839" y="826" type="qcurve"/>
      <point x="865" y="863" type="line"/>
      <point x="872" y="872"/>
      <point x="881" y="863" type="qcurve"/>
      <point x="912" y="835"/>
      <point x="942" y="804" type="qcurve"/>
      <point x="952" y="794"/>
      <point x="951" y="785" type="qcurve"/>
      <point x="949" y="777"/>
      <point x="936" y="776" type="qcurve"/>
    </contour>
  </outline>
</glyph>
<glyph name="u20022" format="2">
  <advance width="1024"/>
  <unicode hex="20022"/>
  <outline>
    <contour>
      <point x="261" y="88"/>
      <point x="325" y="104" type="qcurve"/>
      <point x="325" y="608" type="line"/>
      <point x="324" y="647"/>
      <point x="321" y="678" type="qcurve"/>
      <point x="320" y="694"/>
      <point x="330" y="691" type="qcurve"/>
      <point x="383" y="674"/>
      <point x="401" y="665" type="qcurve"/>
      <point x="415" y="656"/>
      <point x="399" y="649" type="qcurve"/>
      <point x="384" y="641"/>
      <point x="380" y="631" type="qcurve"/>
      <point x="373" y="618"/>
      <point x="373" y="608" type="qcurve"/>
      <point x="373" y="411" type="line"/>
      <point x="433" y="411" type="line"/>
      <point x="446" y="411"/>
      <point x="456" y="423" type="qcurve"/>
      <point x="491" y="464" type="line"/>
      <point x="500" y="472"/>
      <point x="507" y="465" type="qcurve"/>
      <point x="533" y="437"/>
      <point x="552" y="412" type="qcurve"/>
      <point x="563" y="397"/>
      <point x="560" y="388" type="qcurve"/>
      <point x="557" y="381"/>
      <point x="542" y="380" type="qcurve"/>
      <point x="373" y="380" type="line"/>
      <point x="373" y="118" type="line"/>
      <point x="466" y="147"/>
      <point x="553" y="171" type="qcurve"/>
      <point x="564" y="174"/>
      <point x="567" y="165" type="qcurve"/>
      <point x="570" y="156"/>
      <point x="560" y="153" type="qcurve"/>
      <point x="376" y="79"/>
      <point x="178" y="4" type="qcurve"/>
      <point x="131" y="-17"/>
      <point x="100" y="-39" type="qcurve"/>
      <point x="90" y="-48"/>
      <point x="84" y="-39" type="qcurve"/>
      <point x="55" y="3"/>
      <point x="42" y="24" type="qcurve"/>
      <point x="36" y="35"/>
      <point x="46" y="35" type="qcurve"/>
      <point x="88" y="37"/>
      <point x="145" y="52" type="qcurve"/>
      <point x="146" y="53"/>
      <point x="149" y="52" type="qcurve"/>
      <point x="149" y="421" type="line"/>
      <point x="148" y="460"/>
      <point x="145" y="491" type="qcurve"/>
      <point x="144" y="507"/>
      <point x="154" y="504" type="qcurve"/>
      <point x="207" y="487"/>
      <point x="225" y="478" type="qcurve"/>
      <point x="239" y="469"/>
      <point x="223" y="462" type="qcurve"/>
      <point x="208" y="454"/>
      <point x="204" y="444" type="qcurve"/>
      <point x="197" y="431"/>
      <point x="197" y="421" type="qcurve"/>
      <point x="197" y="67" type="line"/>
    </contour>
    <contour>
      <point x="875" y="0"/>
      <point x="891" y="16" type="qcurve"/>
      <point x="916" y="37"/>
      <point x="935" y="167" type="qcurve"/>
      <point x="937" y="181"/>
      <point x="947" y="180" type="qcurve"/>
      <point x="958" y="179"/>
      <point x="957" y="166" type="qcurve"/>
      <point x="951" y="78"/>
      <point x="961" y="56" type="qcurve"/>
      <point x="969" y="37"/>
      <point x="979" y="31" type="qcurve"/>
      <point x="987" y="25"/>
      <point x="978" y="18" type="qcurve"/>
      <point x="920" y="-48"/>
      <point x="830" y="-48" type="qcurve"/>
      <point x="699" y="-48" type="line"/>
      <point x="646" y="-48"/>
      <point x="625" y="-24" type="qcurve"/>
      <point x="601" y="1"/>
      <point x="601" y="44" type="qcurve"/>
      <point x="601" y="560" type="line"/>
      <point x="601" y="638"/>
      <point x="597" y="686" type="qcurve"/>
      <point x="596" y="702"/>
      <point x="606" y="699" type="qcurve"/>
      <point x="659" y="681"/>
      <point x="678" y="674" type="qcurve"/>
      <point x="691" y="666"/>
      <point x="675" y="657" type="qcurve"/>
      <point x="660" y="648"/>
      <point x="656" y="639" type="qcurve"/>
      <point x="649" y="621"/>
      <point x="649" y="560" type="qcurve"/>
      <point x="649" y="347" type="line"/>
      <point x="770" y="425"/>
      <point x="851" y="540" type="qcurve"/>
      <point x="858" y="549"/>
      <point x="865" y="545" type="qcurve"/>
      <point x="891" y="528"/>
      <point x="927" y="497" type="qcurve"/>
      <point x="935" y="489"/>
      <point x="934" y="485" type="qcurve"/>
      <point x="930" y="479"/>
      <point x="914" y="482" type="qcurve"/>
      <point x="891" y="488"/>
      <point x="870" y="467" type="qcurve"/>
      <point x="767" y="376"/>
      <point x="649" y="321" type="qcurve"/>
      <point x="649" y="55" type="line"/>
      <point x="650" y="27"/>
      <point x="663" y="14" type="qcurve"/>
      <point x="676" y="0"/>
      <point x="700" y="0" type="qcurve"/>
      <point x="846" y="0" type="line"/>
    </contour>
    <contour>
      <point x="165" y="776" type="line"/>
      <point x="138" y="776"/>
      <point x="104" y="769" type="qcurve"/>
      <point x="99" y="768"/>
      <point x="98" y="771" type="qcurve"/>
      <point x="85" y="791"/>
      <point x="75" y="807" type="qcurve"/>
      <point x="69" y="817"/>
      <point x="82" y="814" type="qcurve"/>
      <point x="143" y="808"/>
      <point x="150" y="807" type="qcurve"/>
      <point x="807" y="807" type="line"/>
      <point x="819" y="807"/>
      <point x="823" y="811" type="qcurve"/>
      <point x="828" y="816"/>
      <point x="837" y="826" type="qcurve"/>
      <point x="863" y="863" type="line"/>
      <point x="870" y="872"/>
      <point x="879" y="863" type="qcurve"/>
      <point x="910" y="835"/>
      <point x="940" y="804" type="qcurve"/>
      <point x="950" y="794"/>
      <point x="949" y="785" type="qcurve"/>
      <point x="947" y="777"/>
      <point x="934" y="776" type="qcurve"/>
    </contour>
  </outline>
</glyph>
<glyph name="u20024" format="2">
  <advance width="1024"/>
  <unicode hex="20024"/>
  <outline>
    <contour>
      <point x="831" y="-14"/>
      <point x="847" y="4" type="qcurve"/>
      <point x="873" y="41" type="line"/>
      <point x="880" y="50"/>
      <point x="889" y="41" type="qcurve"/>
      <point x="960" y="-22"/>
      <point x="959" y="-37" type="qcurve"/>
      <point x="957" y="-45"/>
      <point x="944" y="-46" type="qcurve"/>
      <point x="176" y="-46" type="line"/>
      <point x="134" y="-47"/>
      <point x="103" y="-53" type="qcurve"/>
      <point x="94" y="-56"/>
      <point x="93" y="-47" type="qcurve"/>
      <point x="88" y="-29"/>
      <point x="73" y="-16" type="qcurve"/>
      <point x="65" y="-9"/>
      <point x="69" y="-5" type="qcurve"/>
      <point x="73" y="-2"/>
      <point x="80" y="-6" type="qcurve"/>
      <point x="118" y="-15"/>
      <point x="164" y="-15" type="qcurve"/>
      <point x="817" y="-15" type="line"/>
    </contour>
    <contour>
      <point x="749" y="476" type="qcurve"/>
      <point x="749" y="506" type="line"/>
      <point x="749" y="512"/>
      <point x="745" y="512" type="qcurve"/>
      <point x="740" y="513"/>
      <point x="739" y="507" type="qcurve"/>
      <point x="738" y="490"/>
      <point x="739" y="474" type="qcurve"/>
      <point x="739" y="466" type="line"/>
      <point x="729" y="417"/>
      <point x="718" y="369" type="qcurve"/>
      <point x="702" y="292"/>
      <point x="658" y="223" type="qcurve"/>
      <point x="611" y="146"/>
      <point x="517" y="64" type="qcurve"/>
      <point x="503" y="50"/>
      <point x="492" y="56" type="qcurve"/>
      <point x="485" y="63"/>
      <point x="493" y="78" type="qcurve"/>
      <point x="565" y="150"/>
      <point x="606" y="215" type="qcurve"/>
      <point x="651" y="286"/>
      <point x="667" y="358" type="qcurve"/>
      <point x="689" y="453"/>
      <point x="699" y="544" type="qcurve"/>
      <point x="611" y="544" type="line"/>
      <point x="584" y="544"/>
      <point x="550" y="537" type="qcurve"/>
      <point x="545" y="536"/>
      <point x="544" y="539" type="qcurve"/>
      <point x="531" y="559"/>
      <point x="521" y="575" type="qcurve"/>
      <point x="515" y="585"/>
      <point x="528" y="582" type="qcurve"/>
      <point x="589" y="576"/>
      <point x="596" y="575" type="qcurve"/>
      <point x="701" y="575" type="line"/>
      <point x="705" y="627"/>
      <point x="705" y="679" type="qcurve"/>
      <point x="705" y="759" type="line"/>
      <point x="704" y="795"/>
      <point x="697" y="849" type="qcurve"/>
      <point x="695" y="862"/>
      <point x="699" y="865" type="qcurve"/>
      <point x="702" y="868"/>
      <point x="712" y="864" type="qcurve"/>
      <point x="755" y="845"/>
      <point x="786" y="829" type="qcurve"/>
      <point x="792" y="825"/>
      <point x="792" y="821" type="qcurve"/>
      <point x="792" y="816"/>
      <point x="789" y="815" type="qcurve"/>
      <point x="768" y="799"/>
      <point x="764" y="795" type="qcurve"/>
      <point x="754" y="784"/>
      <point x="753" y="759" type="qcurve"/>
      <point x="753" y="679" type="line"/>
      <point x="753" y="626"/>
      <point x="750" y="575" type="qcurve"/>
      <point x="831" y="575" type="line"/>
      <point x="843" y="575"/>
      <point x="847" y="579" type="qcurve"/>
      <point x="852" y="584"/>
      <point x="861" y="594" type="qcurve"/>
      <point x="887" y="631" type="line"/>
      <point x="894" y="640"/>
      <point x="903" y="631" type="qcurve"/>
      <point x="934" y="603"/>
      <point x="964" y="572" type="qcurve"/>
      <point x="974" y="562"/>
      <point x="973" y="553" type="qcurve"/>
      <point x="971" y="545"/>
      <point x="958" y="544" type="qcurve"/>
      <point x="760" y="544" type="line"/>
      <point x="787" y="412"/>
      <point x="817" y="339" type="qcurve"/>
      <point x="857" y="247"/>
      <point x="898" y="192" type="qcurve"/>
      <point x="927" y="151"/>
      <point x="955" y="126" type="qcurve"/>
      <point x="965" y="117"/>
      <point x="974" y="109" type="qcurve"/>
      <point x="979" y="107"/>
      <point x="976" y="100" type="qcurve"/>
      <point x="971" y="93"/>
      <point x="958" y="94" type="qcurve"/>
      <point x="941" y="96"/>
      <point x="925" y="89" type="qcurve"/>
      <point x="903" y="79"/>
      <point x="896" y="72" type="qcurve"/>
      <point x="891" y="68"/>
      <point x="885" y="77" type="qcurve"/>
      <point x="847" y="161"/>
      <point x="802" y="266" type="qcurve"/>
      <point x="777" y="327"/>
    </contour>
    <contour>
      <point x="254" y="415" type="qcurve"/>
      <point x="249" y="388"/>
      <point x="242" y="365" type="qcurve"/>
      <point x="222" y="292"/>
      <point x="188" y="223" type="qcurve"/>
      <point x="151" y="146"/>
      <point x="82" y="61" type="qcurve"/>
      <point x="73" y="50"/>
      <point x="62" y="56" type="qcurve"/>
      <point x="55" y="63"/>
      <point x="63" y="78" type="qcurve"/>
      <point x="105" y="150"/>
      <point x="136" y="215" type="qcurve"/>
      <point x="163" y="279"/>
      <point x="187" y="358" type="qcurve"/>
      <point x="212" y="440"/>
      <point x="219" y="544" type="qcurve"/>
      <point x="141" y="544" type="line"/>
      <point x="114" y="544"/>
      <point x="80" y="537" type="qcurve"/>
      <point x="75" y="536"/>
      <point x="74" y="539" type="qcurve"/>
      <point x="61" y="559"/>
      <point x="51" y="575" type="qcurve"/>
      <point x="45" y="585"/>
      <point x="58" y="582" type="qcurve"/>
      <point x="119" y="576"/>
      <point x="126" y="575" type="qcurve"/>
      <point x="221" y="575" type="line"/>
      <point x="225" y="627"/>
      <point x="225" y="679" type="qcurve"/>
      <point x="225" y="759" type="line"/>
      <point x="224" y="795"/>
      <point x="217" y="849" type="qcurve"/>
      <point x="215" y="862"/>
      <point x="219" y="865" type="qcurve"/>
      <point x="222" y="868"/>
      <point x="232" y="864" type="qcurve"/>
      <point x="275" y="845"/>
      <point x="306" y="829" type="qcurve"/>
      <point x="312" y="825"/>
      <point x="312" y="821" type="qcurve"/>
      <point x="312" y="816"/>
      <point x="309" y="815" type="qcurve"/>
      <point x="288" y="799"/>
      <point x="284" y="795" type="qcurve"/>
      <point x="274" y="784"/>
      <point x="273" y="759" type="qcurve"/>
      <point x="273" y="679" type="line"/>
      <point x="273" y="626"/>
      <point x="270" y="575" type="qcurve"/>
      <point x="351" y="575" type="line"/>
      <point x="363" y="575"/>
      <point x="367" y="579" type="qcurve"/>
      <point x="372" y="584"/>
      <point x="381" y="594" type="qcurve"/>
      <point x="407" y="631" type="line"/>
      <point x="414" y="640"/>
      <point x="423" y="631" type="qcurve"/>
      <point x="454" y="603"/>
      <point x="484" y="572" type="qcurve"/>
      <point x="494" y="562"/>
      <point x="493" y="553" type="qcurve"/>
      <point x="491" y="545"/>
      <point x="478" y="544" type="qcurve"/>
      <point x="270" y="544" type="line"/>
      <point x="266" y="487"/>
      <point x="259" y="441" type="qcurve"/>
      <point x="422" y="325"/>
      <point x="455" y="243" type="qcurve"/>
      <point x="468" y="212"/>
      <point x="461" y="188" type="qcurve"/>
      <point x="453" y="165"/>
      <point x="444" y="155" type="qcurve"/>
      <point x="436" y="146"/>
      <point x="429" y="147" type="qcurve"/>
      <point x="422" y="150"/>
      <point x="419" y="163" type="qcurve"/>
      <point x="388" y="279"/>
    </contour>
  </outline>
</glyph>
<glyph name="u20025" format="2">
  <advance width="1024"/>
  <unicode hex="20025"/>
  <outline>
    <contour>
      <point x="132" y="679"/>
      <point x="144" y="675" type="qcurve"/>
      <point x="198" y="658"/>
      <point x="216" y="648" type="qcurve"/>
      <point x="230" y="641"/>
      <point x="214" y="632" type="qcurve"/>
      <point x="198" y="624"/>
      <point x="194" y="614" type="qcurve"/>
      <point x="187" y="595"/>
      <point x="187" y="534" type="qcurve"/>
      <point x="187" y="305" type="line"/>
      <point x="187" y="188"/>
      <point x="191" y="109" type="qcurve"/>
      <point x="192" y="101"/>
      <point x="186" y="97" type="qcurve"/>
      <point x="144" y="70" type="line"/>
      <point x="131" y="60"/>
      <point x="132" y="81" type="qcurve"/>
      <point x="138" y="214"/>
      <point x="139" y="305" type="qcurve"/>
      <point x="139" y="534" type="line"/>
      <point x="138" y="614"/>
      <point x="134" y="662" type="qcurve"/>
    </contour>
    <contour>
      <point x="418" y="180" type="line"/>
      <point x="418" y="149"/>
      <point x="419" y="107" type="qcurve"/>
      <point x="418" y="92"/>
      <point x="381" y="67" type="qcurve"/>
      <point x="373" y="63"/>
      <point x="369" y="63" type="qcurve"/>
      <point x="363" y="64"/>
      <point x="364" y="83" type="qcurve"/>
      <point x="368" y="183"/>
      <point x="371" y="269" type="qcurve"/>
      <point x="371" y="587" type="line"/>
      <point x="370" y="619"/>
      <point x="364" y="665" type="qcurve"/>
      <point x="362" y="675"/>
      <point x="365" y="676" type="qcurve"/>
      <point x="366" y="676"/>
      <point x="405" y="645" type="qcurve"/>
      <point x="776" y="645" type="line"/>
      <point x="788" y="645"/>
      <point x="795" y="652" type="qcurve"/>
      <point x="820" y="678" type="line"/>
      <point x="825" y="685"/>
      <point x="834" y="679" type="qcurve"/>
      <point x="865" y="656"/>
      <point x="887" y="637" type="qcurve"/>
      <point x="894" y="629"/>
      <point x="885" y="628" type="qcurve"/>
      <point x="868" y="625"/>
      <point x="859" y="616" type="qcurve"/>
      <point x="851" y="607"/>
      <point x="851" y="597" type="qcurve"/>
      <point x="851" y="259" type="line"/>
      <point x="852" y="191"/>
      <point x="859" y="112" type="qcurve"/>
      <point x="859" y="99"/>
      <point x="849" y="93" type="qcurve"/>
      <point x="804" y="67"/>
      <point x="800" y="68" type="qcurve"/>
      <point x="796" y="70"/>
      <point x="797" y="86" type="qcurve"/>
      <point x="801" y="130"/>
      <point x="802" y="180" type="qcurve"/>
    </contour>
    <contour>
      <point x="419" y="416" type="line"/>
      <point x="419" y="269" type="line"/>
      <point x="418" y="239"/>
      <point x="418" y="211" type="qcurve"/>
      <point x="802" y="211" type="line"/>
      <point x="802" y="221"/>
      <point x="803" y="230" type="qcurve"/>
      <point x="803" y="416" type="line"/>
    </contour>
    <contour>
      <point x="803" y="447" type="line"/>
      <point x="803" y="614" type="line"/>
      <point x="419" y="614" type="line"/>
      <point x="419" y="447" type="line"/>
    </contour>
    <contour>
      <point x="829" y="-34"/>
      <point x="845" y="-16" type="qcurve"/>
      <point x="871" y="21" type="line"/>
      <point x="878" y="30"/>
      <point x="887" y="21" type="qcurve"/>
      <point x="958" y="-42"/>
      <point x="957" y="-57" type="qcurve"/>
      <point x="955" y="-65"/>
      <point x="942" y="-66" type="qcurve"/>
      <point x="174" y="-66" type="line"/>
      <point x="132" y="-67"/>
      <point x="101" y="-73" type="qcurve"/>
      <point x="92" y="-76"/>
      <point x="91" y="-67" type="qcurve"/>
      <point x="86" y="-49"/>
      <point x="71" y="-36" type="qcurve"/>
      <point x="63" y="-29"/>
      <point x="67" y="-25" type="qcurve"/>
      <point x="71" y="-22"/>
      <point x="78" y="-26" type="qcurve"/>
      <point x="116" y="-35"/>
      <point x="162" y="-35" type="qcurve"/>
      <point x="815" y="-35" type="line"/>
    </contour>
    <contour>
      <point x="165" y="776" type="line"/>
      <point x="138" y="776"/>
      <point x="104" y="769" type="qcurve"/>
      <point x="99" y="768"/>
      <point x="98" y="771" type="qcurve"/>
      <point x="85" y="791"/>
      <point x="75" y="807" type="qcurve"/>
      <point x="69" y="817"/>
      <point x="82" y="814" type="qcurve"/>
      <point x="143" y="808"/>
      <point x="150" y="807" type="qcurve"/>
      <point x="807" y="807" type="line"/>
      <point x="819" y="807"/>
      <point x="823" y="811" type="qcurve"/>
      <point x="828" y="816"/>
      <point x="837" y="826" type="qcurve"/>
      <point x="863" y="863" type="line"/>
      <point x="870" y="872"/>
      <point x="879" y="863" type="qcurve"/>
      <point x="910" y="835"/>
      <point x="940" y="804" type="qcurve"/>
      <point x="950" y="794"/>
      <point x="949" y="785" type="qcurve"/>
      <point x="947" y="777"/>
      <point x="934" y="776" type="qcurve"/>
    </contour>
  </outline>
</glyph>
